<?xml version="1.0" encoding="utf-8"?>
<!-- Generator: Adobe Illustrator 22.0.1, SVG Export Plug-In . SVG Version: 6.00 Build 0)  -->
<svg version="1.1" id="레이어_1" xmlns="http://www.w3.org/2000/svg" xmlns:xlink="http://www.w3.org/1999/xlink" x="0px"
	 y="0px" viewBox="0 0 160 44" style="enable-background:new 0 0 160 44;" xml:space="preserve">
<style type="text/css">
	.st0{fill:url(#SVGID_1_);}
</style>
<g>
	<g>
		
			<linearGradient id="SVGID_1_" gradientUnits="userSpaceOnUse" x1="146.0041" y1="-191.9333" x2="302.7756" y2="-191.9333" gradientTransform="matrix(1 0 0 -1 -144 -169.6667)">
			<stop  offset="0" style="stop-color:#231815"/>
			<stop  offset="8.962709e-02" style="stop-color:#231815"/>
			<stop  offset="1" style="stop-color:#231815"/>
		</linearGradient>
		<path class="st0" d="M42,10c0-0.1,0-0.2,0-0.3c0-0.1,0-0.2,0-0.3l-0.1-0.3c0-0.3,0-0.5-0.1-0.7c0-0.2-0.1-0.3-0.1-0.5
			c-0.1-0.1-0.1-0.3-0.2-0.5c-0.2-0.4-0.4-0.7-0.5-1c-0.2-0.3-0.4-0.5-0.7-0.7c-0.1-0.1-0.2-0.2-0.4-0.2c-0.2-0.1-0.3-0.1-0.5-0.2
			s-0.3-0.1-0.5-0.2c-0.1,0-0.3,0-0.4,0c0,0-0.1,0-0.2,0s-0.2,0-0.2,0s-0.1,0-0.3,0.1c-0.2,0.1-0.3,0.1-0.4,0.2s-0.1,0.2-0.2,0.3
			c0,0.1-0.1,0.2-0.2,0.3c0,0.1-0.1,0.3-0.1,0.5c0,0.4,0.1,0.6,0.4,0.7c0.1,0,0.3,0.1,0.6,0.1c0.3,0,0.5,0.1,0.6,0.4
			c0.1,0.2,0.2,0.4,0.3,0.6c0.1,0.2,0.1,0.5,0.1,0.9v1c0,0.3,0,0.6-0.1,1c0,0-0.1,0.1-0.1,0.2v0.3l-0.1,0.4
			c-0.1,0.2-0.2,0.5-0.3,0.9c0,0,0,0.1-0.1,0.2c0,0.1-0.1,0.2-0.1,0.2c-0.1,0.3-0.1,0.5-0.2,0.7s-0.1,0.5-0.2,0.7
			c0,0.1-0.1,0.2-0.1,0.3c0,0-0.1,0.1-0.1,0.3c-0.1,0.3-0.1,0.5-0.1,0.6c0,0.2-0.1,0.4-0.1,0.7l-0.2,0.5c-0.1,0.3-0.1,0.5-0.2,0.7
			s-0.1,0.4-0.2,0.6c0,0.1-0.1,0.3-0.1,0.5s-0.1,0.4-0.1,0.6s-0.1,0.4-0.1,0.6c-0.1,0.2-0.1,0.4-0.1,0.6c-0.2,0.7-0.3,1.3-0.3,1.9
			v0.8c0,0.2,0,0.3,0.1,0.4c0,0.1,0.1,0.2,0.1,0.3s0.1,0.2,0.2,0.3s0.1,0.3,0.2,0.3c0,0.2,0.2,0.3,0.4,0.3c0.1,0,0.2-0.1,0.3-0.2
			c0.1-0.1,0.2-0.2,0.3-0.2c0.2,0,0.3-0.1,0.4-0.2c0.1-0.1,0.3-0.2,0.4-0.3c0.1,0,0.1-0.1,0.2-0.1c0.1-0.1,0.2-0.1,0.4-0.2
			c0,0,0.1,0,0.1-0.1c0,0,0-0.1,0.1-0.1c0.2,0,0.3-0.1,0.5-0.1c0.1,0,0.3-0.1,0.3-0.3l0.2-0.1v-0.5c0-0.1,0-0.2,0-0.3s0-0.2,0-0.3
			c0-0.4,0-0.8,0.1-1.2c0-0.4,0.1-0.8,0.1-1.1c0,0,0-0.1,0.1-0.3c0-0.1,0.1-0.2,0.1-0.3c0-0.3,0.1-0.6,0.1-0.8
			c0-0.3,0.1-0.5,0.1-0.7c0-0.1,0-0.2,0-0.2c0-0.1,0-0.1,0-0.1v-0.1c0.1-0.4,0.1-0.7,0.2-1c0.1-0.3,0.1-0.5,0.2-0.7
			c0,0,0-0.2,0.1-0.4c0.1-0.2,0.1-0.4,0.2-0.5c0.1-0.2,0.2-0.5,0.2-0.9c0.1-0.4,0.2-0.8,0.2-1.2c0-0.2,0.1-0.4,0.1-0.5
			c0-0.2,0-0.3,0-0.5v-0.2c0.1-0.1,0.1-0.3,0.1-0.6C42,10.4,42,10.2,42,10z M17.6,27.9c0-0.2-0.1-0.3-0.2-0.4
			c-0.1-0.1-0.1-0.2-0.1-0.4c0-0.1-0.1-0.2-0.1-0.4c-0.1-0.1-0.1-0.3-0.2-0.4c-0.1-0.1-0.1-0.3-0.2-0.5L16.3,25
			c-0.2-0.3-0.3-0.5-0.5-0.7c-0.1-0.2-0.3-0.4-0.5-0.5c0,0-0.1-0.1-0.2-0.1c0,0-0.1-0.1-0.1-0.1c-0.3-0.3-0.5-0.4-0.8-0.4
			c-0.1,0-0.1,0-0.2-0.1c-0.1,0-0.1,0-0.2,0.1s-0.3,0.1-0.4,0.2c-0.1,0.1-0.2,0.1-0.2,0.2C13,23.6,13,23.8,13,24s0,0.3,0.1,0.4
			c0.1,0.2,0.1,0.3,0.1,0.4c0,0.1,0.1,0.2,0.1,0.3c0.1,0.1,0.1,0.2,0.2,0.3c0,0.1,0.1,0.1,0.2,0.2c0.1,0.3,0.3,0.5,0.3,0.6
			c0,0,0,0.1,0.1,0.2c0.1,0.1,0.1,0.2,0.2,0.4c0,0.1,0.1,0.3,0.1,0.4c0,0.1,0.1,0.2,0.1,0.4c0,0.1,0.1,0.2,0.1,0.3s0.1,0.2,0.1,0.2
			l0.1,0.5l0.3,0.8l0.1,0.4c0.1,0.1,0.1,0.4,0.2,0.7s0.1,0.5,0.2,0.7c0,0.1,0.1,0.1,0.3,0.2c0.1,0,0.1,0,0.2,0s0.1,0,0.1,0
			c0.1,0,0.1,0,0.2,0c0,0,0.1,0,0.2-0.1c0.1,0,0.2-0.1,0.3-0.2c0.1-0.1,0.3-0.2,0.4-0.3s0.2-0.2,0.2-0.4c0.1-0.1,0.1-0.3,0.2-0.3
			c0,0,0-0.1,0.1-0.2c0.1-0.1,0.1-0.2,0.1-0.2c0.1-0.2,0-0.6-0.2-1C17.7,28.3,17.6,28,17.6,27.9z M13.5,19.3
			c0.1-0.1,0.2-0.4,0.3-0.8c0.1-0.4,0.3-0.8,0.4-1.2c0.1-0.2,0.1-0.4,0.2-0.7c0.1-0.3,0.1-0.5,0.1-0.7c0,0,0-0.2,0-0.4
			c0-0.2,0-0.4,0-0.4c0-0.3,0-0.5,0-0.7s0-0.4,0-0.5s0-0.2,0-0.2c0-0.1,0-0.2,0-0.3c0-0.3,0-0.5,0-0.6s0-0.3,0-0.4
			c0-0.2-0.1-0.5-0.1-0.7c0-0.3,0-0.5-0.1-0.7c0-0.3-0.1-0.6-0.2-0.9c0,0,0-0.1-0.1-0.2c0-0.1-0.1-0.2-0.1-0.2L14,9.1
			C14,9,14,9,13.9,8.9c0-0.1-0.1-0.1-0.1-0.2C13.7,8.4,13.4,8.2,13,8c-0.3-0.2-0.5-0.3-0.7-0.3c-0.1,0-0.1,0-0.2-0.1
			c-0.1,0-0.1-0.1-0.2-0.1s-0.3-0.1-0.4-0.1s-0.3,0-0.5-0.1c-0.1,0-0.4,0-0.6,0c-0.3,0-0.5,0-0.6,0s-0.3,0-0.5,0S9,7.3,8.9,7.4
			C8.7,7.5,8.6,7.5,8.5,7.5c-0.1,0-0.2,0-0.4,0.1C8,7.6,7.9,7.7,7.9,7.7c-0.1,0-0.2,0.1-0.4,0.1c-0.1,0-0.2,0.1-0.4,0.1
			C7,8,6.8,8,6.7,8.1C6.4,8.2,6.2,8.3,6,8.4C5.8,8.5,5.7,8.6,5.6,8.6c-0.1,0-0.2,0.1-0.4,0.2S4.9,9,4.7,9.2C4.5,9.3,4.4,9.5,4.2,9.6
			C4.1,9.7,4,9.8,3.9,9.8C3.8,9.9,3.7,10,3.6,10.2c-0.1,0.2-0.2,0.4-0.2,0.4c0,0.1,0,0.2,0,0.3c0,0.1,0,0.2,0,0.2s0,0.1,0.1,0.3
			c0,0.1,0.1,0.2,0.1,0.3c0,0.1,0.1,0.2,0.2,0.3c0.2,0.2,0.4,0.3,0.8,0.4c0.1,0,0.3,0,0.5,0s0.4-0.1,0.5-0.2s0.2-0.1,0.3-0.2
			s0.2-0.2,0.3-0.3c0.1-0.1,0.2-0.2,0.3-0.3C6.6,11.3,6.8,11.2,7,11c0.3-0.2,0.5-0.4,0.6-0.4c0.3-0.1,0.6-0.3,0.9-0.5
			C8.6,10,8.7,10,8.8,9.9S9,9.8,9,9.8c0.1-0.1,0.3-0.1,0.5-0.2c0.3-0.1,0.7-0.1,1.1-0.1c0.3,0,0.5,0,0.6,0.1s0.2,0.2,0.3,0.4
			c0.1,0.4,0.1,0.7,0.1,0.9v0.8c0,0.2,0,0.3,0,0.5c0,0.1,0,0.3,0,0.4c0,0,0,0.1,0,0.2s0,0.1,0,0.2c-0.1,0.3-0.1,0.5-0.2,0.8
			s-0.1,0.5-0.2,0.7c0,0,0,0.1-0.1,0.3c-0.1,0.2-0.2,0.4-0.3,0.5s-0.1,0.2-0.2,0.3c-0.1,0.1-0.1,0.3-0.2,0.4
			c-0.1,0.1-0.1,0.2-0.2,0.3c-0.1,0.1-0.1,0.3-0.2,0.3c-0.1,0.1-0.2,0.3-0.4,0.5s-0.3,0.4-0.4,0.5c-0.1,0.2-0.3,0.4-0.4,0.6
			c-0.1,0.2-0.2,0.3-0.4,0.5S8,19.2,7.9,19.5c-0.1,0.1-0.2,0.3-0.4,0.5c-0.1,0.2-0.3,0.4-0.4,0.5C7,20.7,6.9,20.9,6.7,21
			c-0.1,0.2-0.2,0.4-0.3,0.5c0,0,0,0.1-0.1,0.2c-0.1,0.1-0.1,0.1-0.1,0.2c-0.1,0.1-0.3,0.3-0.3,0.4c-0.1,0.1-0.1,0.3-0.2,0.4
			c-0.2,0.3-0.3,0.5-0.5,0.7c-0.1,0.2-0.3,0.4-0.4,0.6c-0.1,0.1-0.1,0.1-0.2,0.2c0,0.1-0.1,0.1-0.1,0.2c-0.1,0.2-0.2,0.3-0.3,0.4
			c-0.1,0.1-0.2,0.3-0.3,0.4c-0.1,0.1-0.2,0.3-0.4,0.6s-0.3,0.5-0.4,0.7c-0.1,0.1-0.2,0.3-0.4,0.6s-0.3,0.7-0.5,1.1
			c0,0-0.1,0.2-0.2,0.6c0,0.1-0.1,0.3-0.1,0.5c0,0.1,0,0.2-0.1,0.4S2,30.4,2,30.5s0,0.3,0,0.5s0,0.4,0,0.5s0.1,0.2,0.2,0.3
			c0.1,0.1,0.2,0.2,0.2,0.3c0.1,0.1,0.2,0.1,0.4,0.1s0.3,0,0.4,0c0.1,0,0.2,0,0.2,0c0.1,0,0.2,0,0.4,0c0.1,0,0.1,0,0.1,0H4h0.1
			c0.1,0,0.1,0,0.1,0c0.2,0,0.4-0.1,0.5-0.2c0,0,0.1-0.1,0.2-0.1c0.1-0.1,0.2-0.1,0.2-0.2c0.1-0.1,0.2-0.2,0.2-0.3
			c0.1-0.1,0.2-0.2,0.3-0.4c0.1-0.1,0.2-0.2,0.3-0.4s0.2-0.3,0.3-0.4c0.2-0.3,0.4-0.5,0.5-0.7C6.9,29.3,7,29,7.2,28.7
			c0.1-0.1,0.2-0.3,0.4-0.5s0.3-0.3,0.3-0.3c0.1-0.1,0.2-0.3,0.3-0.5s0.3-0.5,0.5-0.8s0.3-0.5,0.5-0.7c0.1-0.2,0.3-0.4,0.5-0.7
			c0,0,0.1-0.1,0.2-0.3c0.1-0.1,0.2-0.3,0.2-0.3c0.2-0.2,0.3-0.4,0.4-0.7c0.2-0.3,0.4-0.6,0.6-0.8c0.2-0.2,0.3-0.5,0.5-0.9
			c0.1-0.2,0.1-0.4,0.2-0.6c0.1-0.2,0.2-0.4,0.3-0.5l0.1-0.1c0,0,0,0,0.1-0.1s0.2-0.3,0.4-0.7S13.4,19.4,13.5,19.3z M34.4,9.4V9
			c0-0.3,0-0.5-0.1-0.8c-0.1-0.2-0.1-0.4-0.1-0.6S34.1,7.2,34,7s-0.2-0.4-0.2-0.6c0-0.1-0.1-0.2-0.1-0.4c-0.1-0.1-0.1-0.2-0.2-0.3
			c0-0.2-0.1-0.4-0.2-0.4c0-0.1-0.1-0.2-0.2-0.5c-0.1-0.2-0.2-0.4-0.3-0.5c-0.2-0.2-0.4-0.3-0.5-0.5c-0.2-0.1-0.4-0.2-0.5-0.4
			c-0.3-0.1-0.8-0.2-1.4-0.2h-0.7c-0.1,0-0.2,0.1-0.4,0.2c-0.2,0.1-0.3,0.2-0.4,0.3c-0.1,0-0.2,0.1-0.2,0.2
			c-0.1,0.1-0.2,0.2-0.2,0.3c-0.1,0.1-0.3,0.4-0.4,0.7C28,5,28,5.2,28,5.3v0.5c0,0.1,0,0.2,0.1,0.5c0.1,0.2,0.2,0.4,0.2,0.5l0.1,0.1
			c0.1,0.1,0.1,0.2,0.2,0.4c0.1,0.2,0.1,0.3,0.2,0.5s0.1,0.4,0.1,0.6s0,0.4,0,0.5c-0.1,0.5-0.2,0.8-0.4,1c-0.1,0.1-0.2,0.3-0.3,0.4
			c-0.1,0.1-0.2,0.2-0.3,0.4c-0.1,0.1-0.2,0.3-0.4,0.5c-0.2,0.2-0.3,0.3-0.3,0.4c-0.2,0.2-0.3,0.3-0.4,0.3s-0.2,0.1-0.4,0.2
			c-0.1,0.1-0.2,0.1-0.4,0.2c-0.1,0-0.3,0.1-0.4,0.2s-0.3,0.1-0.4,0.2c-0.2,0-0.3,0.1-0.4,0.2c-0.1,0-0.2,0.1-0.4,0.1
			c-0.1,0-0.3,0.1-0.4,0.1c-0.1,0.1-0.3,0.1-0.6,0.2c-0.3,0-0.4,0.1-0.5,0.2c-0.3,0.1-0.6,0.1-1,0.2s-0.7,0.1-1,0.2
			c-0.1,0-0.2,0-0.4,0c-0.1,0-0.3,0-0.4,0s-0.2,0-0.3,0c-0.1,0-0.2,0-0.4,0.1c-0.2,0-0.4,0.1-0.6,0.1s-0.4,0.1-0.5,0.2
			c-0.2,0.1-0.3,0.3-0.4,0.4s-0.1,0.2-0.2,0.4c0,0.1,0,0.3,0,0.4s0,0.2,0.1,0.3s0.1,0.3,0.2,0.4c0,0.1,0.1,0.4,0.2,0.7
			c0.1,0.3,0.2,0.5,0.4,0.6c0.1,0,0.1,0.1,0.2,0.2s0.2,0.1,0.3,0.2l0.1,0.1c0.1,0.1,0.3,0.1,0.4,0.2s0.2,0.1,0.4,0.1
			c0,0,0.1,0,0.2,0s0.1,0,0.2,0s0.2,0,0.3,0.1c0.1,0,0.2,0.1,0.3,0.1h1.1c0.3,0,0.6,0,0.8-0.1c0.2,0,0.4-0.1,0.6-0.1
			s0.4-0.1,0.6-0.1s0.3-0.1,0.4-0.2c0.2,0,0.4-0.1,0.5-0.1c0.2,0,0.3-0.1,0.5-0.1c0.1,0,0.2-0.1,0.4-0.1c0.1,0,0.3,0,0.5-0.1
			s0.3-0.1,0.5-0.1c0.1,0,0.3-0.1,0.5-0.1c0.2-0.1,0.3-0.1,0.4-0.1s0.2,0,0.3-0.1C28,17.6,28,18,28,18.3c0,0.3-0.1,0.7-0.1,1.1
			c0,0.1-0.1,0.3-0.1,0.4s-0.1,0.3-0.1,0.4c0,0.2-0.1,0.4-0.1,0.6c0,0.2-0.1,0.4-0.1,0.6c0,0.4,0,0.8-0.1,1.2s-0.1,0.8-0.1,1.1
			c0,0.4,0,0.8,0.1,1.1s0.2,0.6,0.4,0.9c0.2,0.2,0.4,0.2,0.6,0.1c0.2-0.1,0.4-0.2,0.6-0.2h0.1c0.1,0.1,0.3,0.2,0.3,0.1
			c0.1,0,0.1-0.1,0.2-0.1l0.2-0.2c0.1-0.1,0.2-0.1,0.3-0.1c0.3,0.1,0.6,0.1,0.8,0c0.3-0.1,0.5-0.1,0.7-0.2c0.2-0.1,0.4-0.1,0.6-0.2
			c0.2,0,0.3-0.1,0.4-0.2c0.2-0.2,0.4-0.6,0.4-1.2c0.1-0.6,0.1-1,0.2-1.3c0.1-0.4,0.2-0.9,0.2-1.3c0-0.1,0-0.2,0.1-0.5
			c0-0.3,0.1-0.5,0.1-0.6c0.1-0.3,0.1-0.5,0.2-0.7s0.1-0.4,0.1-0.7c0-0.2,0-0.3,0.1-0.5c0-0.1,0.1-0.5,0.3-1.2v-0.1c0,0,0-0.1,0-0.2
			s0-0.2,0-0.3c0-0.1,0-0.2,0-0.2c0-0.3,0.1-0.5,0.1-0.8c0.1-0.3,0.1-0.5,0.1-0.8c0-0.2,0.1-0.4,0.1-0.7c0-0.2,0-0.5,0.1-0.7
			c0-0.1,0-0.2,0.1-0.3c0.1-0.1,0.1-0.2,0.1-0.2c0-0.1,0.1-0.2,0.1-0.2V12c0-0.2,0.1-0.4,0.1-0.5c0-0.2,0-0.3,0-0.5v-0.6
			c0-0.2,0-0.3-0.1-0.5C34.5,9.7,34.4,9.6,34.4,9.4z M48.4,19.4c0.3,0.2,0.6,0.4,0.9,0.4c0.5,0.1,0.9,0.1,1.4,0.1s0.8,0,1,0
			c0.6-0.1,1.1-0.2,1.5-0.3c0.4-0.2,0.7-0.4,1-0.6c0.4-0.3,0.7-0.6,1-0.9s0.6-0.7,1-1.2c0.2-0.2,0.4-0.5,0.6-0.8
			c0.3-0.3,0.5-0.6,0.6-0.9c0.2-0.4,0.4-0.8,0.6-1.1c0.1-0.3,0.2-0.6,0.3-0.7c0.2-0.2,0.3-0.6,0.5-1c0.1-0.1,0.2-0.4,0.3-0.7
			c0.2-0.3,0.3-0.6,0.5-1s0.4-0.7,0.5-1c0.2-0.3,0.3-0.6,0.4-0.8c0.2-0.5,0.4-1.1,0.4-1.7S61,6.1,61,5.6c0-0.2,0-0.4-0.1-0.7
			c-0.1-0.2-0.2-0.4-0.3-0.6c-0.2-0.4-0.3-0.7-0.5-1.1c-0.2-0.3-0.5-0.6-0.9-0.8c-0.3-0.1-0.5-0.1-0.8-0.2C58.2,2.1,57.9,2,57.6,2
			c-0.2,0-0.3-0.1-0.5-0.1h-0.5c-0.3,0-0.5,0-0.6,0s-0.2,0-0.2,0c-0.6,0.1-1.1,0.2-1.5,0.3s-0.8,0.2-1.2,0.3c-0.4,0.1-0.8,0.3-1,0.4
			c-0.2,0.1-0.3,0.2-0.5,0.3s-0.3,0.2-0.5,0.3c-0.6,0.4-1,0.8-1.3,1.3c-0.1,0.1-0.1,0.3-0.2,0.5S49.5,5.7,49.4,6
			c0,0.3,0.1,0.7,0.1,1s0.3,0.6,0.6,0.8c0.1,0.1,0.3,0.1,0.5,0.1c0.1,0,0.2,0,0.5,0s0.5-0.1,0.6-0.2c0.2-0.1,0.4-0.3,0.5-0.6
			c0.2-0.3,0.3-0.5,0.3-0.6s0.1-0.3,0.3-0.5c0.5-0.4,1.1-0.7,1.7-0.8C55,5,55.5,4.9,56,4.8c0.3-0.1,0.7-0.1,1.1,0s0.5,0.4,0.3,0.9
			c-0.1,0.5-0.3,0.9-0.5,1.4c-0.2,0.3-0.3,0.6-0.5,0.9c-0.1,0.3-0.3,0.6-0.5,0.8c-0.3,0.5-0.5,1-0.8,1.5s-0.6,0.9-0.8,1.2
			c-0.3,0.4-0.6,0.8-0.9,1.2c-0.3,0.4-0.6,0.9-0.9,1.2c-0.1,0.2-0.3,0.5-0.7,1c-0.4,0.4-0.7,0.7-0.9,0.9c-0.1,0.1-0.3,0.2-0.4,0.2
			s-0.3,0.1-0.4,0.3c-0.2,0.2-0.4,0.3-0.7,0.5c-0.3,0.1-0.5,0.3-0.7,0.5c-0.1,0.1-0.2,0.2-0.3,0.2c-0.1,0.1-0.2,0.1-0.3,0.2
			c-0.2,0.3-0.4,0.6-0.4,0.9c0,0.1,0,0.2,0,0.3C48.1,19.1,48.2,19.2,48.4,19.4z M60.5,11.7c-0.2,0-0.4,0.2-0.5,0.4
			c-0.1,0.2-0.1,0.4,0,0.6l0.7,0.7c0.1,0.1,0.3,0.3,0.4,0.3c0.1,0.1,0.2,0.2,0.3,0.3c0.1,0.1,0.3,0.3,0.5,0.5s0.4,0.4,0.6,0.6
			c0.1,0.2,0.2,0.4,0.3,0.6c0.1,0.2,0.2,0.4,0.4,0.5c0.2,0.2,0.3,0.4,0.4,0.5c0.1,0.2,0.2,0.3,0.3,0.4c0.2,0.3,0.5,0.5,0.8,0.5
			c0.3,0.1,0.6,0,0.9-0.1c0.3-0.2,0.5-0.4,0.6-0.7c0.1-0.3,0.2-0.5,0.2-0.8c0-0.3-0.1-0.5-0.2-0.8s-0.3-0.5-0.4-0.7
			c-0.1-0.1-0.2-0.2-0.3-0.3c-0.1-0.2-0.3-0.3-0.5-0.5c-0.1-0.2-0.3-0.4-0.5-0.5s-0.3-0.3-0.3-0.3c-0.3-0.2-0.5-0.4-0.7-0.5
			c-0.1-0.1-0.3-0.1-0.3-0.2c-0.1-0.1-0.2-0.1-0.4-0.2c-0.3-0.2-0.6-0.3-0.8-0.3c-0.2,0-0.3-0.1-0.4-0.1s-0.2,0-0.4,0
			c-0.2,0-0.3,0-0.5,0C60.6,11.6,60.5,11.6,60.5,11.7z M68.9,24.7c-0.1-0.1-0.2-0.3-0.3-0.4c-0.1-0.2-0.2-0.3-0.4-0.4
			c-0.2-0.1-0.4-0.2-0.5-0.3c-0.1,0-0.2-0.1-0.3-0.1c-0.1,0-0.2-0.1-0.3-0.1c-0.1,0-0.3-0.1-0.3-0.1c-0.2-0.1-0.4-0.2-0.7-0.3
			c-0.3-0.1-0.5-0.2-0.6-0.2c-0.2,0-0.3-0.1-0.5-0.1s-0.4-0.1-0.5-0.1c0,0-0.2,0-0.4,0c-0.3,0-0.4,0-0.5,0c-0.4,0-0.8-0.1-1.3-0.1
			s-0.9-0.1-1.2-0.1c-0.2-0.1-0.5-0.1-1-0.1s-0.9,0-1.2,0c-0.4-0.1-0.8-0.1-1.4-0.1c-0.5,0-0.9,0.1-1.1,0.1s-0.4-0.1-0.6-0.1h-0.6
			c-0.4,0-0.7,0.1-0.8,0.1c-0.1,0-0.2,0-0.3,0c-0.3,0.1-0.7,0.2-1.3,0.3c-0.6,0.1-1,0.3-1.3,0.3c-0.3,0.1-0.6,0.1-0.9,0.2
			s-0.5,0.1-0.7,0.2c-0.3,0.1-0.5,0.1-0.8,0.2c-0.2,0.1-0.5,0.1-0.8,0.2c-0.2,0.2-0.5,0.3-0.7,0.3c-0.3,0.1-0.5,0.2-0.7,0.3
			s-0.3,0.1-0.4,0.2c-0.1,0.1-0.2,0.1-0.3,0.2c-0.1,0.1-0.4,0.2-0.7,0.5c-0.3,0.3-0.6,0.5-0.7,0.7c-0.2,0.3-0.4,0.5-0.6,0.8
			s-0.2,0.6-0.1,0.8s0.2,0.4,0.3,0.6c0.1,0.2,0.2,0.3,0.3,0.4c0.2,0.2,0.5,0.3,1,0.4c0.4,0,0.6-0.1,0.8-0.4c0.1-0.1,0.2-0.1,0.3-0.3
			c0.1-0.1,0.2-0.1,0.3-0.2c0.1-0.1,0.2-0.1,0.3-0.2c0.2-0.2,0.5-0.3,0.7-0.4c0.2-0.1,0.5-0.2,1-0.4c0,0,0.2-0.1,0.4-0.2
			c0.2-0.1,0.3-0.1,0.4-0.1c0.3-0.1,0.5-0.2,0.8-0.2s0.5-0.1,0.7-0.1c0.1-0.1,0.4-0.1,0.7-0.1c0.3,0,0.5,0,0.6-0.1
			c0.3-0.1,0.5-0.1,0.7-0.2c0.2,0,0.4-0.1,0.7-0.1c0.3,0,0.5-0.1,0.8-0.1c0.2,0,0.4,0,0.4,0c0.1,0,0.3,0,0.5,0s0.4,0,0.5,0H57
			c0.2,0,0.4,0,0.6,0s0.4,0.1,0.6,0.1s0.4,0,0.6,0s0.4,0,0.6,0s0.4,0,0.6,0c0,0.1-0.1,0.4-0.2,0.7c-0.1,0.4-0.2,0.6-0.3,0.8
			c-0.1,0.5-0.3,0.8-0.4,0.9c-0.1,0.2-0.3,0.5-0.4,0.9c-0.1,0.2-0.1,0.5-0.2,0.7s-0.2,0.5-0.3,0.7c-0.1,0.3-0.2,0.6-0.3,0.8
			c-0.1,0.2-0.2,0.5-0.2,0.7c-0.1,0.2-0.1,0.5-0.2,0.8s-0.1,0.6-0.2,0.9c-0.1,0.3-0.1,0.5-0.1,0.7s-0.1,0.4-0.2,0.7
			c-0.1,0.2-0.1,0.5-0.2,0.9c0,0.4-0.1,0.7-0.2,1s-0.1,0.6-0.2,1c0,0.4-0.1,0.7-0.1,0.8v0.7c-0.1,0.4-0.1,0.6-0.1,0.7
			c0,0.1,0,0.1,0,0.3v0.6c0,0.3,0,0.6,0.1,0.7c0.1,0.1,0.2,0.3,0.3,0.4c0.2,0.1,0.4,0.2,0.6,0.3s0.4,0.1,0.6,0.1c0,0,0.1,0,0.2,0
			s0.2,0,0.4-0.1c0.1,0,0.3-0.1,0.6-0.2c0.1,0,0.2-0.1,0.3-0.2c0.1-0.1,0.3-0.2,0.4-0.4c0.1-0.1,0.3-0.2,0.3-0.3
			c0.1-0.1,0.2-0.2,0.3-0.2c0.2-0.1,0.3-0.2,0.5-0.3c0.2-0.2,0.3-0.3,0.3-0.6c0.1-0.4,0.2-0.8,0.2-1.1c0-0.4,0-0.8,0-1.1s0-0.7,0-1
			s0.1-0.7,0.1-1s0.1-0.7,0.1-1.2c0-0.2,0.1-0.6,0.2-1s0.1-0.8,0.2-1c0.1-0.3,0.2-0.6,0.3-1c0.1-0.3,0.2-0.7,0.3-1.2
			c0.1-0.2,0.1-0.6,0.2-1.1s0.1-0.8,0.2-0.9c0-0.2,0-0.4,0.1-0.7c0-0.3,0.1-0.6,0.2-0.8c0-0.3,0-0.5,0-0.7s0-0.4,0-0.6
			c0.2,0,0.5,0,0.7,0c0.3,0,0.5,0,0.6,0s0.3,0.1,0.5,0.1s0.5,0.1,0.8,0.2c0.2,0.1,0.3,0.1,0.5,0.1s0.3,0,0.5,0.1
			c0.3,0.1,0.5,0.1,0.5,0.1c0.1,0,0.3,0.1,0.5,0.1s0.4,0,0.4,0c0.3,0,0.5-0.2,0.7-0.5c0.1-0.1,0.1-0.2,0.2-0.5
			c0-0.3,0.1-0.4,0.1-0.5c0.1-0.2,0.1-0.4,0.1-0.5C69.1,25,69,24.9,68.9,24.7z M98.3,21c0-0.2-0.2-0.4-0.4-0.5s-0.4-0.2-0.6-0.3
			C97,20.1,96.6,20,96,19.8c-0.6-0.1-1-0.2-1.3-0.3c0.1-0.3,0.2-0.6,0.3-0.9s0.2-0.6,0.3-0.9s0.2-0.6,0.3-0.9
			c0.2-0.5,0.3-0.9,0.4-1.1c0-0.2,0.1-0.6,0.3-1.2c0.4-1.3,0.6-2.4,0.7-3.4c0-0.3,0.1-0.7,0.1-1.1s0.1-0.8,0.1-1.1V8
			c0-0.3,0-0.5-0.1-0.8c-0.2-0.4-0.4-0.8-0.7-1.1C96.2,6,96.1,5.9,96,5.8c-0.1-0.1-0.3-0.2-0.5-0.3c-0.3,0-0.6,0-1,0
			c-0.1,0-0.3,0.1-0.5,0.2S93.6,5.9,93.5,6c-0.3,0.3-0.4,0.6-0.3,0.9c0,0.2,0.1,0.3,0.2,0.4c0.1,0.1,0.1,0.2,0.1,0.3
			c0,0.1,0.1,0.2,0.1,0.2c0,0.1,0.1,0.2,0.1,0.4c0.1,0.4,0.1,0.8-0.1,1.3c-0.1,0.6-0.3,1.2-0.5,1.8c-0.2,0.6-0.4,1.1-0.5,1.7
			s-0.3,1.1-0.5,1.7c0,0.1-0.1,0.3-0.2,0.6c-0.1,0.3-0.2,0.6-0.3,1c-0.1,0.4-0.2,0.8-0.3,1.1c-0.1,0.4-0.2,0.7-0.2,0.9
			c0,0.1-0.1,0.2-0.1,0.5c0,0.2-0.1,0.4-0.2,0.6h-1.1c-0.3,0-0.5,0-0.6,0.1l-0.5,0.1c-0.2,0-0.4,0-0.7,0s-0.5,0-0.6,0s-0.3,0-0.6,0
			s-0.6,0-0.8,0h-1.3c-0.2,0-0.5,0-0.8-0.1c-0.1,0-0.2,0-0.3-0.2c-0.1-0.1-0.3-0.3-0.3-0.5c-0.1-0.2-0.1-0.5-0.1-0.8s0-0.6,0.1-0.9
			c0-0.3,0.1-0.6,0.2-1c0.1-0.4,0.2-0.7,0.3-1c0.1-0.2,0.1-0.3,0.2-0.5c0.1-0.2,0.1-0.4,0.2-0.6c0.1-0.2,0.2-0.4,0.3-0.7
			c0.2-0.3,0.3-0.5,0.4-0.8c0.1-0.2,0.3-0.4,0.4-0.6c0.1-0.2,0.2-0.3,0.3-0.6c0.1-0.2,0.2-0.4,0.3-0.6s0.1-0.5-0.1-0.8
			c-0.1-0.3-0.2-0.5-0.3-0.5c-0.3-0.4-0.6-0.7-1.1-0.9c-0.2-0.1-0.5-0.2-0.8-0.2S83,8.2,82.8,8.1c-0.2,0-0.6,0-1,0.1
			s-0.7,0.3-0.9,0.5c-0.1,0.1-0.2,0.2-0.2,0.2c-0.1,0.1-0.1,0.2-0.2,0.2c-0.3,0.4-0.6,0.8-0.9,1.3c-0.1,0.2-0.3,0.5-0.4,0.9
			c-0.2,0.4-0.3,0.7-0.4,0.8c-0.1,0.3-0.3,0.7-0.5,1.2s-0.4,0.9-0.5,1.2c-0.1,0.2-0.2,0.5-0.2,0.7s-0.1,0.4-0.1,0.6
			c-0.1,0.5-0.1,1-0.2,1.3c0,0.4-0.1,0.7-0.1,0.9c-0.1,0.8,0,1.5,0.1,2c0.2,1.2,0.5,2,0.8,2.5c0.2,0.3,0.5,0.6,0.7,0.8
			s0.5,0.5,0.8,0.7c0.3,0.1,0.6,0.2,0.9,0.4c0.3,0.1,0.7,0.2,1,0.3l0.6,0.1c0.3,0,0.6,0.1,0.8,0.1h1.6c0.2,0,0.4,0,0.5,0
			c0.2,0,0.3,0,0.5,0s0.6,0,1-0.1c0.4,0,0.7-0.1,0.9-0.1s0.3,0,0.5-0.1c0.2,0,0.3-0.1,0.4-0.1c0.2,0,0.3-0.1,0.4-0.1
			c0.1,0,0.2,0,0.4-0.1c0.1,0,0.2-0.1,0.4-0.1c0,0.1,0,0.3-0.1,0.6s-0.1,0.5-0.2,0.5c-0.1,0.3-0.1,0.5-0.1,0.7S89,26.4,89,26.6
			c-0.1,0.3-0.1,0.6-0.2,0.8c0,0.3-0.1,0.6-0.2,0.9c0,0.1,0,0.2,0,0.2c0,0.1,0,0.1,0,0.2c0,0.2-0.1,0.5-0.1,0.7s-0.1,0.5-0.1,0.8
			c0,0.2-0.1,0.5-0.1,0.8s-0.1,0.6-0.1,0.6c0,0.2-0.1,0.4-0.1,0.6c0,0.2-0.1,0.5-0.1,0.7c0,0.1-0.1,0.3-0.1,0.5v0.4
			c0,0.2-0.1,0.4-0.1,0.5s-0.1,0.3-0.1,0.5v0.9c0,0.3,0.1,0.6,0.4,0.8c0.3,0.2,0.6,0.3,0.9,0.3c0.4,0,0.7-0.1,1-0.4
			c0.2-0.2,0.4-0.4,0.6-0.6c0.2-0.2,0.3-0.3,0.4-0.5c0.1-0.1,0.2-0.4,0.2-0.8c0.1-0.4,0.2-0.8,0.2-1.2c0.1-0.6,0.2-1.1,0.3-1.4
			c0.1-0.4,0.1-0.8,0.2-1.1c0-0.3,0.1-0.6,0.1-0.8c0.1-0.2,0.1-0.5,0.2-0.8c0-0.3,0.1-0.5,0.2-0.7c0.1-0.4,0.1-0.7,0.2-0.9
			c0-0.2,0.1-0.5,0.2-0.9c0-0.3,0.1-0.6,0.1-1s0.1-0.7,0.2-1c0.1-0.2,0.1-0.4,0.2-0.5c0-0.1,0.1-0.2,0.1-0.3c0.1,0,0.2,0,0.3,0
			s0.2,0,0.3,0h0.3c0.1,0,0.1,0,0.2,0h0.1c0,0,0.1,0,0.2,0c0.1,0,0.4,0,0.7-0.1c0.6-0.1,1-0.1,1.2-0.2c0.2,0,0.3-0.1,0.5-0.2
			c0.1-0.1,0.2-0.1,0.2-0.2c0.1,0,0.2-0.1,0.2-0.2c0.1-0.1,0.2-0.2,0.2-0.4c0.1-0.2,0.1-0.4,0.1-0.6c0-0.3,0-0.5,0-0.6
			C98.3,21.3,98.3,21.1,98.3,21z M121.2,21.7v-0.2c0-0.2,0-0.6-0.1-1c-0.1-0.4-0.2-0.8-0.4-1.1c-0.2-0.4-0.4-0.8-0.7-1.1
			c-0.3-0.3-0.4-0.4-0.5-0.5c-0.1,0-0.2-0.1-0.4-0.3c-0.2-0.1-0.3-0.2-0.4-0.2c-0.2-0.1-0.4-0.2-0.6-0.3s-0.5-0.2-0.7-0.3l-0.2-0.1
			c-0.2,0-0.3-0.1-0.5-0.2c-0.1-0.1-0.3-0.2-0.4-0.2c-0.2-0.1-0.4-0.1-0.7-0.2c-0.3,0-0.5,0-0.7-0.1c-0.2,0-0.4,0-0.7,0
			s-0.5,0-0.7,0h-0.8c0.1-0.3,0.2-0.6,0.3-1c0.1-0.3,0.1-0.5,0.2-0.6c0.1-0.3,0.1-0.6,0.2-1.1c0-0.4,0.1-0.8,0.1-1.2
			c0-0.4,0-0.9-0.1-1.5s-0.3-1.2-0.5-1.7c0-0.1-0.1-0.1-0.1-0.1s-0.1,0-0.1-0.1c-0.1-0.2-0.2-0.4-0.3-0.7c-0.1-0.3-0.2-0.5-0.4-0.7
			L111.8,7l-0.2-0.4c-0.1-0.2-0.3-0.3-0.4-0.4c-0.2-0.1-0.4-0.2-0.5-0.3c-0.3-0.2-0.9-0.4-2-0.5c-0.1,0-0.2,0-0.4,0
			c-0.1,0-0.2,0-0.4,0h-0.6c-0.2,0-0.4,0-0.6,0.1c-0.6,0.1-1,0.2-1.2,0.3c-0.3,0.1-0.6,0.2-0.9,0.4h-0.1h-0.1
			c-0.4,0.2-0.8,0.3-1.1,0.5s-0.7,0.4-1,0.6c-0.1,0-0.1,0.1-0.1,0.1s-0.1,0.1-0.2,0.1c-0.3,0.2-0.5,0.5-0.8,0.8
			c-0.2,0.3-0.4,0.6-0.5,0.9c-0.2,0.5-0.2,0.9-0.2,1.4v0.5c0,0.2,0,0.3,0.1,0.4c0,0.2,0.1,0.4,0.2,0.7c0.1,0.3,0.2,0.5,0.2,0.5
			c0.2,0.2,0.4,0.3,0.5,0.4s0.3,0.2,0.5,0.2c0.4,0.2,0.8,0.2,1.2,0c0.1,0,0.2-0.1,0.3-0.2s0.2-0.1,0.3-0.2s0.1-0.2,0.2-0.2
			c0-0.1,0.1-0.2,0.2-0.2c0.1-0.2,0.2-0.3,0.4-0.5s0.3-0.3,0.4-0.4c0.2-0.1,0.4-0.2,0.6-0.3c0.2-0.1,0.4-0.2,0.7-0.2
			c0.2,0,0.4,0,0.7,0.1c0.3,0,0.5,0.2,0.7,0.4c0.2,0.3,0.4,0.7,0.5,1.1s0.1,0.9,0.1,1.5c0,0.3-0.1,0.6-0.2,0.9
			c-0.1,0.3-0.3,0.6-0.5,0.9v0.1c0,0,0,0,0,0.1c-0.1,0.1-0.1,0.2-0.2,0.3c0,0.1-0.1,0.3-0.2,0.3c-0.1,0.2-0.1,0.3-0.2,0.5
			c0,0.1-0.1,0.3-0.2,0.5c-0.1,0.4-0.2,0.7-0.3,1s-0.1,0.7,0,1.2c0,0.1,0.1,0.3,0.2,0.4c0.1,0.2,0.2,0.3,0.3,0.5
			c0.2,0.2,0.3,0.4,0.5,0.5c0.1,0.1,0.2,0.1,0.2,0.1c0.4,0.2,0.8,0.3,1,0.2s0.7-0.2,1.3-0.3c0.2-0.1,0.3-0.1,0.5-0.1
			c0.1,0,0.2,0,0.3-0.1c0.4-0.2,0.7-0.3,1.1-0.3c0.4-0.1,0.8-0.1,1.3-0.2h0.8c0.3,0,0.6,0.1,0.8,0.1s0.5,0.1,0.8,0.2
			c0.2,0,0.5,0.1,0.8,0.3c0.3,0.1,0.5,0.3,0.6,0.3c0.2,0.2,0.3,0.3,0.4,0.4c0.1,0.1,0.2,0.2,0.2,0.4c0.2,0.6,0.1,1-0.2,1.4
			c0,0.1-0.1,0.3-0.3,0.5c-0.1,0.1-0.1,0.2-0.2,0.2c0,0.1-0.1,0.2-0.2,0.2c-0.3,0.3-0.6,0.6-0.9,1c-0.3,0.4-0.5,0.6-0.7,0.8
			s-0.4,0.4-0.6,0.6c-0.2,0.2-0.4,0.5-0.6,0.7c-0.6,0.7-1.1,1.3-1.6,1.8l-0.1,0.1c0,0.1-0.1,0.1-0.1,0.2l-0.9,1.2
			c-0.1,0.1-0.1,0.3-0.2,0.4c-0.1,0.2-0.1,0.3-0.2,0.4c-0.4,0.7-0.7,1.4-0.9,2c-0.1,0.3-0.2,0.6-0.2,0.9c-0.1,0.3-0.1,0.6-0.1,0.9
			c0,0.1,0,0.2,0,0.3s0,0.2,0,0.3c0,0.2,0.1,0.3,0.1,0.5s0,0.3,0.1,0.4c0,0.1,0.1,0.2,0.3,0.4c0.1,0.2,0.2,0.2,0.3,0.2
			c0.1,0.2,0.3,0.3,0.5,0.3s0.3,0,0.5,0c0.2-0.1,0.4-0.1,0.6-0.1c0.2,0,0.4-0.1,0.6-0.2c0.1,0,0.2-0.1,0.2-0.1c0.1,0,0.2,0,0.2-0.1
			l0.1-0.1c0.2-0.1,0.4-0.2,0.5-0.3s0.2-0.2,0.2-0.3c0.1-0.1,0.2-0.2,0.3-0.4c0.2-0.2,0.3-0.4,0.3-0.5c0.1-0.3,0.2-0.5,0.2-0.6v-0.3
			c0.1-0.3,0-0.5-0.3-0.7c-0.1,0-0.3,0-0.4,0c-0.2,0.1-0.3,0.1-0.4,0c-0.2-0.2-0.2-0.4-0.1-0.7c0-0.3,0.1-0.5,0.2-0.8
			c0.1-0.3,0.3-0.5,0.4-0.8c0.5-0.8,1-1.4,1.4-1.7c0.3-0.2,0.5-0.5,0.7-0.6c0.2-0.2,0.3-0.3,0.5-0.5c0.1-0.1,0.2-0.2,0.3-0.3
			s0.2-0.2,0.2-0.3l0.4-0.5c0.3-0.4,0.6-0.6,0.8-0.8s0.4-0.4,0.6-0.6c0.1-0.1,0.3-0.2,0.5-0.4c0.2-0.1,0.3-0.3,0.5-0.5
			c0.2-0.3,0.4-0.6,0.5-0.9c0.2-0.3,0.4-0.7,0.5-1.1c0.1-0.4,0.2-0.7,0.2-1c0-0.2,0.1-0.3,0.1-0.5v-0.3c0,0,0-0.1,0-0.2
			C121.3,21.8,121.2,21.8,121.2,21.7z M143.8,9.3c0-0.3-0.1-0.5-0.1-0.8c-0.1-0.2-0.2-0.5-0.3-0.7c-0.5-0.6-1.1-1-1.6-1.3
			c-0.1,0-0.2-0.1-0.3-0.2c-0.1,0-0.2-0.1-0.2-0.1c-0.1,0-0.1-0.1-0.1-0.1c-0.1,0-0.2,0-0.2,0c-0.1,0-0.2,0-0.4,0
			c-0.4,0-0.7-0.1-0.9-0.1c-0.3,0-0.6,0-0.9,0c-0.3,0-0.5,0-0.8,0.1c-0.2,0-0.5,0.1-0.8,0.1L137,6.3c-0.1,0-0.3,0.1-0.5,0.1
			s-0.3,0.1-0.4,0.1c-0.1,0-0.2,0-0.3,0.1c-0.1,0-0.2,0.1-0.3,0.1c-0.2,0.1-0.4,0.1-0.5,0.2c-0.1,0-0.3,0.1-0.4,0.1l-0.8,0.5
			c0,0-0.2,0.1-0.5,0.2c-0.1,0.1-0.2,0.2-0.2,0.3c-0.1,0.1-0.2,0.2-0.2,0.3c0,0.1-0.1,0.3-0.2,0.5c-0.1,0.3-0.1,0.5,0,0.6
			c0.1,0.4,0.3,0.7,0.5,0.8c0.1,0.1,0.2,0.1,0.3,0.1s0.2,0,0.3,0c0.2,0,0.5,0,0.7-0.1s0.4-0.1,0.6-0.2c0.1-0.1,0.2-0.2,0.4-0.2
			c0.2-0.1,0.3-0.1,0.3-0.2c0.3-0.2,0.6-0.3,0.7-0.3c0.2-0.1,0.4-0.2,0.8-0.3c0.2,0,0.3-0.1,0.4-0.1c0.1,0,0.2,0,0.3-0.1
			c0.2,0,0.4-0.1,0.6-0.1h0.3c0.3,0,0.5,0.1,0.7,0.2s0.4,0.2,0.4,0.4c0,0.3-0.1,0.6-0.2,0.9c0,0.1-0.1,0.3-0.2,0.4
			c-0.1,0.1-0.1,0.3-0.2,0.4c-0.1,0.2-0.2,0.5-0.4,0.7c-0.1,0.2-0.3,0.4-0.4,0.7c-0.3,0.6-0.6,1.1-0.7,1.4c-0.2,0.3-0.4,0.7-0.7,1.1
			c-0.3,0.5-0.6,1-0.8,1.5c-0.2,0.5-0.5,1-0.7,1.4c-0.2,0.2-0.3,0.5-0.5,0.9c-0.2,0.3-0.3,0.7-0.5,0.9c-0.1,0.3-0.3,0.6-0.4,1
			c-0.2,0.4-0.3,0.7-0.5,1c-0.1,0.3-0.3,0.6-0.5,0.9c-0.2,0.3-0.3,0.6-0.4,0.8c-0.1,0.2-0.3,0.5-0.4,0.8c-0.1,0.3-0.3,0.6-0.5,1
			s-0.4,0.9-0.7,1.4c-0.2,0.5-0.5,1.1-0.7,1.6c-0.2,0.4-0.4,0.9-0.6,1.4c-0.2,0.5-0.4,1-0.5,1.5c-0.1,0.3-0.2,0.7-0.3,1.1
			c-0.1,0.4-0.2,0.7-0.3,1c0,0.4-0.1,0.8-0.1,1v1c0,0.1,0,0.3,0.1,0.4c0,0.2,0.1,0.3,0.1,0.4c0,0.2,0.2,0.5,0.6,0.8
			c0.2,0.1,0.3,0.2,0.5,0.2c0.1,0.1,0.4,0.1,0.7,0.2c0.4,0,0.7,0.1,1.1,0c0.4,0,0.7-0.1,0.9-0.2c0.5-0.2,0.9-0.7,1.1-1.4l0.4-0.9
			c0.2-0.3,0.3-0.6,0.5-1c0.1-0.3,0.2-0.6,0.3-1c0.2-0.4,0.4-0.9,0.5-1.3c0.1-0.4,0.3-0.9,0.5-1.5c0.2-0.4,0.3-0.9,0.5-1.4
			s0.3-1,0.4-1.4c0.2-0.6,0.4-1,0.6-1.3c0.1-0.3,0.3-0.6,0.4-0.9s0.2-0.5,0.2-0.6s0-0.2,0.1-0.5c0.1-0.2,0.2-0.5,0.3-0.7
			c0.1-0.3,0.2-0.5,0.3-0.7s0.1-0.3,0.2-0.4c0.2-0.5,0.4-1,0.6-1.4c0.2-0.4,0.4-1,0.8-1.6c0,0,0.2-0.2,0.3-0.5
			c0.2-0.3,0.4-0.7,0.6-1.1c0.2-0.4,0.4-0.8,0.6-1.2c0.2-0.4,0.3-0.7,0.4-0.9c0.1-0.2,0.2-0.5,0.5-0.9c0.2-0.4,0.4-0.8,0.5-1
			c0.1-0.4,0.2-0.7,0.3-1.1s0.2-0.8,0.2-1.2c0-0.1,0-0.3,0-0.4c0-0.2,0-0.3,0-0.4s0-0.2,0-0.3C143.9,9.5,143.8,9.4,143.8,9.3z
			 M129.5,17.9c0.1-0.1,0.2-0.2,0.2-0.3c0.2-0.4,0.3-0.8,0.4-1c0-0.2,0.1-0.4,0.1-0.6c0-0.3,0-0.7,0.1-1.1s0.1-0.8,0.1-1.3
			c0-0.1,0-0.2,0.1-0.4c0-0.1,0-0.2,0.1-0.3c0-0.2,0.1-0.3,0.1-0.6c0-0.2,0.1-0.4,0.1-0.5c0-0.3,0.1-0.6,0.1-1
			c0.1-0.3,0.1-0.6,0.2-0.8c0-0.1,0.1-0.3,0.1-0.7c0.1-0.3,0.2-0.6,0.4-1c0.2-0.3,0.3-0.6,0.5-0.9s0.3-0.5,0.4-0.7
			c0.2-0.2,0.4-0.6,0.4-1c0-0.2,0-0.4-0.1-0.6s-0.2-0.4-0.2-0.6c-0.1-0.3-0.3-0.4-0.4-0.5c-0.2,0-0.3-0.1-0.5-0.2l-0.2-0.1
			c-0.2-0.1-0.6-0.1-1-0.2c-0.5,0-0.9,0-1.2,0.1c-0.2,0-0.4,0.1-0.6,0.2c-0.2,0.1-0.4,0.1-0.5,0.2c-0.2,0.3-0.5,0.7-0.6,1
			c-0.2,0.4-0.3,0.7-0.5,1s-0.4,0.7-0.6,1.1c-0.2,0.4-0.4,0.9-0.7,1.3c-0.2,0.2-0.4,0.6-0.6,1.1c-0.2,0.5-0.3,0.9-0.4,1.1
			c-0.1,0.3-0.2,0.7-0.3,1.1s-0.2,0.9-0.2,1.4s0,0.9-0.1,1.3s-0.1,0.8-0.1,1.2c0,0,0,0.2,0.1,0.6c0.1,0.4,0.1,0.6,0.1,0.8
			c0,0.2,0.1,0.4,0.2,0.7c0.1,0.3,0.2,0.4,0.5,0.5c0.2,0.2,0.4,0.4,0.7,0.5s0.7,0.2,1,0.2s0.7,0,1-0.1s0.6-0.1,0.7-0.1
			c0.1,0,0.2-0.1,0.3-0.3c0.1-0.2,0.3-0.3,0.5-0.5C129.2,18.2,129.4,18,129.5,17.9z M158.7,18c0-0.4-0.1-0.6-0.2-0.8
			c-0.1-0.2-0.2-0.4-0.3-0.6c-0.1-0.1-0.3-0.3-0.5-0.5c-0.2-0.2-0.5-0.4-0.9-0.6s-0.8-0.4-1.3-0.6c-0.4-0.2-0.7-0.3-0.7-0.3
			c-0.3-0.2-0.5-0.3-0.8-0.4c-0.2-0.1-0.5-0.2-0.7-0.2c-0.2-0.1-0.4-0.1-0.6-0.2c-0.2,0-0.3-0.1-0.4-0.1c-0.2,0-0.4-0.1-0.4-0.1
			c-0.1,0-0.2,0-0.4-0.1c-0.1,0-0.3,0-0.5,0.2s-0.3,0.3-0.2,0.5s0.2,0.3,0.2,0.5c0.1,0.2,0.1,0.4,0.2,0.5c0.1,0.2,0.2,0.4,0.4,0.7
			c0.1,0.3,0.3,0.5,0.5,0.8l-0.7-0.7c-0.3-0.3-0.8-0.3-1.3,0c-0.1,0.1-0.2,0.2-0.4,0.4c-0.2,0.2-0.3,0.4-0.4,0.8
			c-0.1,0.2-0.2,0.5-0.4,0.8c-0.1,0.3-0.2,0.7-0.4,1c-0.2,0.4-0.3,0.7-0.4,1c-0.1,0.3-0.2,0.6-0.3,0.9c-0.1,0.2-0.1,0.4-0.2,0.7
			c0,0.3-0.1,0.5-0.2,0.8c-0.1,0.5-0.2,1-0.3,1.5S147,24.7,147,25v0.7c0,0.3,0,0.6,0.1,0.8c0.1,0.3,0.1,0.6,0.2,0.9
			c0,0.3,0.1,0.4,0.2,0.5c0.4,0.7,0.9,1.2,1.4,1.5c0.1,0.1,0.3,0.1,0.7,0.1s0.7-0.1,0.9-0.2c0.2-0.1,0.4-0.2,0.5-0.2
			c0.2-0.1,0.3-0.1,0.5-0.2c0.2,0,0.3-0.1,0.5-0.2c0.2-0.1,0.4-0.2,0.5-0.3c0.2-0.1,0.4-0.2,0.5-0.3s0.3-0.2,0.4-0.3
			c0.3-0.2,0.6-0.4,0.7-0.5c0.2-0.1,0.3-0.3,0.5-0.5c0.4-0.3,0.7-0.6,0.9-0.9c0.2-0.3,0.5-0.6,0.7-0.9c0.2-0.2,0.3-0.4,0.4-0.5
			c0.1-0.1,0.2-0.3,0.3-0.5s0.2-0.5,0.4-0.7c0.1-0.2,0.3-0.5,0.4-0.8c0.1-0.2,0.2-0.5,0.4-0.8c0.1-0.3,0.2-0.6,0.3-0.8
			c0.1-0.3,0.1-0.6,0.2-0.8c0-0.2,0.1-0.4,0.1-0.6C158.8,19,158.8,18.5,158.7,18z M153.3,22.7c-0.5,0.5-1,0.8-1.4,1
			c-0.1,0-0.3,0.1-0.6,0.1c-0.2,0-0.4-0.2-0.4-0.3c0-0.2-0.1-0.4-0.1-0.6c0-0.4-0.1-0.7,0-1c0-0.3,0-0.5,0.1-0.7
			c0.1-0.3,0.2-0.6,0.2-1c0.1-0.3,0.2-0.7,0.3-1c0.3-0.8,0.6-1.5,0.8-2.2l0.2,0.4l0.2,0.4c0.2,0.3,0.4,0.6,0.5,0.9
			c0.2,0.3,0.3,0.5,0.5,0.8c0.2,0.2,0.3,0.4,0.3,0.6s0.1,0.5,0.1,0.7C154.2,21.5,153.9,22.2,153.3,22.7z"/>
	</g>
</g>
</svg>
