<?xml version="1.0" encoding="utf-8"?>
<!-- Generator: Adobe Illustrator 22.0.1, SVG Export Plug-In . SVG Version: 6.00 Build 0)  -->
<svg version="1.1" id="레이어_1" xmlns="http://www.w3.org/2000/svg" xmlns:xlink="http://www.w3.org/1999/xlink" x="0px"
	 y="0px" viewBox="0 0 232.4 124.7" style="enable-background:new 0 0 232.4 124.7;" xml:space="preserve">
<style type="text/css">
	.st0{fill:#009565;}
	.st1{fill:#51BA95;}
	.st2{fill-rule:evenodd;clip-rule:evenodd;fill:#B60005;}
	.st3{fill:none;}
	.st4{fill:#B60005;}
	.st5{fill:none;stroke:#FFE100;stroke-width:1.8174;stroke-linecap:round;stroke-miterlimit:10;}
	.st6{fill:#FFE100;}
	.st7{fill-rule:evenodd;clip-rule:evenodd;}
</style>
<g>
	<g>
		<path class="st0" d="M119.8,109.3c-8.1-6.7-6.1-16.9-6.1-16.9s9.7-4,17.8,2.7c8.1,6.7,11.6,21.5,11.6,21.5S127.9,116,119.8,109.3z
			"/>
		<path class="st1" d="M118.2,96.4c0,0,12,6.2,21.3,17.8c0,0-5.8-10.5-19.9-18.8L118.2,96.4z"/>
		<path class="st0" d="M75.2,111.6c5.5-4.5,4.1-11.5,4.1-11.5s-6.6-2.7-12.1,1.8c-5.5,4.5-7.9,14.6-7.9,14.6S69.7,116.2,75.2,111.6z
			"/>
		<path class="st1" d="M76.2,102.8c0,0-8.2,4.2-14.5,12.1c0,0,3.9-7.1,13.6-12.8L76.2,102.8z"/>
		<path class="st0" d="M136.4,53c-7.4,3.8-14.2-0.9-14.2-0.9s0.1-8.3,7.5-12.1c7.4-3.8,19.2-1.7,19.2-1.7S143.7,49.2,136.4,53z"/>
		<path class="st1" d="M126.5,50c0,0,8.2-6.8,19.6-9.9c0,0-9.4,0.9-19.9,8.6L126.5,50z"/>
		<g>
			<path class="st2" d="M39,115c-0.2-2.4,2.4-4.7,2.9-7.2c-1.1-0.7-1.1,0.7-1.5,1.5c-0.7,0.1-0.9,1.2-1.5,1.4
				c-1.7,3.5-2.6,6.2-4.2,9.7c-0.8,0.7-1.9,0.8-2.5,1.9c-0.8-0.5-1.2-0.1-1.8,0c-1.1-0.2-0.8-0.9-1.6-1.2c-1,0.2-0.2,1.4-0.8,2.1
				c-2.4-0.8-4.6-1.3-6.2-0.7c-0.8-0.4-1.4-0.2-2.4-0.8c-0.9-0.5-0.9,0.5-1.8,0c-0.8-0.6-1.1-1.4-1.9-2.1c-0.8-0.6-1.3-1.3-1.7-2
				c-1.1-0.3-1.2-0.9-2.2-1.2c-0.4-0.8-1.1-1.5-1.6-2.2c-1.2-0.5-1.1-0.3-2.1-0.9c-0.6-2,0.7-3.4,0.6-5.6c0.8-0.3,1.2,0.9,1.9,0.6
				c1.1-0.7,1.5-2.5,2.6-3.3c0-0.7,0-1.3-0.3-1.9c0.8-0.7,1.5-1.5,2.1-2.5c0.2-0.3-0.1-0.8,0.1-1.3c0.3-0.7,1.4-1,0.7-2.1
				c0.3-0.8,1.1-0.7,1.5-1.5c0.7-0.7-0.9-0.6-0.6-1.1c1.4-1.4,1.2-3.4,3-4.2c1.3-5.7,4.7-9.2,6.9-14.6c0.7-1.2,2.1-2,1.9-3.7
				c0.5-0.2,1-0.3,1.3-0.9c0.4-1.1,0.8-2.3,1.2-3.5c0.6-0.6,0.9-1.5,1.4-2.2c0.8-1,1.7-1.5,2.3-3.7c2-1.6,3.3-4.6,4.7-7.6
				c0-1.3-1.7,0.2-1.5-0.7c0.5-2.1,1.8-0.4,2.8-0.3c1.8-3.7,4.2-6.2,6.1-10.1c0.2-1.3-0.1-2.4,0.3-3.8c1.3-1.8,2.2-4.8,3.7-6.2
				c0.7-1.1-0.6-1.4,0.2-2.5c1.1-0.5,1.8-2,2.6-3.2c0.1-1.9-2.3-1.8-3.6-2.2c-1.4-0.2-3.1-1.2-4.1-0.6c-3-0.9-5.4-0.5-7.7,0.3
				c-2.4-1-3.7,0.3-6-0.4c-2.3,0.1-6.2,1.2-8.5,1.1c-0.8,0.7-2,0.6-2.8,1.1c-0.5,6-2.4,12.5-0.1,17.2c-1.1,2.2-0.2,4-1.4,5.4
				c0.1,1.3-0.5,2.9,0.1,4c-1.5,1.2-1.1,3.2-1.7,5.4c-0.5,0.5-1.6-0.2-2.1,0.3c-0.6,0.1-1.2,0.3-1.8,0.4c-1-0.8-2.2-1.5-3.7-2.1
				c-0.4-0.7-0.8-1.3-1.8-1.8C6,51.1,4.1,46.1,1.2,41.4c-0.4-1.4-0.2-2.9-0.5-4.3c0.8-1.2,0.5-2.7,1.2-4.6c0-1.3-0.6-2.3-0.8-3.5
				c0.2-1,0.9-1.1,1-2.4c0.2-2.7,1-5.7,0.4-8.1c1.2-0.4,1.5-2.9,1.5-4.4c0.3-1-1.4-1.2-1.6-1.9C3.2,9.5,3,7.3,2,5.4
				c0.2-2,2.2-0.1,2.2-2.8c1.5,0,2.7-0.6,3.7-1.6c1.5,1,2.1,0.2,3-0.1c1.1,0.7,1.8,0.8,2.7,1c0.9-0.2,1.9,0.2,2.7-0.2
				c2.3,0.6,4.7,0.9,7.1,1.2c2.3,0.3,6.7,1,8.7,0.3C34.6,5,36,3.6,38.7,5.4c1.1,0.3,2.1,0.2,3-0.1c3,1.3,5.6,1.9,8.2,2.2
				c6,2.5,11.6,3.8,17.9,7.2c1.2,1,2.2,2.2,4.1,2.9c6,4.9,5.8,12,7.2,18.4c-0.5,1.1-0.6,2,0,2.6c-0.9,0.9-0.3,2-0.5,2.8
				c-0.4,2.6-1,4.7-0.9,7.2c-1.2,1.8-0.8,4.2-2.3,5.3c-0.3,3.2-1.2,6.6-2.2,9.9c-2.2,3.4-4,7.8-6.3,10.7c-0.5,0.7,0.2,1-0.4,1.7
				c-3.1,3.6-6.5,6.6-9.1,11.2c-2.5,3.2-5,6.4-7,10.5c-2.3,1.1-3.4,4.5-5.4,6.2C43.2,108.3,41.1,111.7,39,115z M43.8,104.9
				c-0.7-0.4-0.9,0.2-1.2,0.6C43.3,105.8,43.6,105.5,43.8,104.9z M44,103.6c-0.1,0.3-0.1,0.6,0.3,0.7c0.7-0.3,1.9-2.1,1.6-3.1
				C45.3,102,44.6,102.8,44,103.6z"/>
			<path class="st2" d="M11,102.8c0.7,0.8,0.9,2.1,0,2.9c-0.3-0.1-0.5-0.2-0.8-0.4C9.9,104.7,10.4,103.1,11,102.8z"/>
			<path class="st2" d="M12,101.4c-0.3-0.1-0.1-0.4-0.1-0.6C12.2,101,12,101.2,12,101.4z"/>
			<path class="st2" d="M15.5,91.9c0.3-0.7,0.6-1.3,1.5-0.7C16.8,91.8,16.5,92.4,15.5,91.9z"/>
			<path class="st2" d="M17.9,88.7c0.1-0.2,0.2-0.5,0.2-0.7c0.2,0.1,0.4,0.2,0.6,0.3c-0.1,0.2-0.2,0.5-0.2,0.7
				C18.2,88.9,18,88.8,17.9,88.7z"/>
			<path class="st2" d="M18.8,85.7c0.1-0.2,0.1-0.3,0.2-0.5c0.2,0.2,0.3,0,0.4-0.1c0.2,0.1,0.4,0.2,0.6,0.3c-0.1,0.2,0,0.3,0.2,0.4
				c-0.1,0.2-0.1,0.3-0.2,0.5c-0.2-0.2-0.3,0-0.4,0.1c-0.2-0.1-0.4-0.2-0.6-0.3C19.2,85.9,19,85.8,18.8,85.7z"/>
			<path class="st2" d="M32.3,64.5c-0.3-0.1-0.1-0.4-0.1-0.7C32.5,63.9,32.3,64.2,32.3,64.5z"/>
			<path class="st2" d="M40.5,50.9c-0.3-0.2-0.1-0.7,0.2-0.6C41,50.7,40.5,50.6,40.5,50.9z"/>
			<path class="st2" d="M43.1,47.4c-0.3-0.2-0.1-0.4,0.1-0.3C43.5,47.3,43.3,47.5,43.1,47.4z"/>
		</g>
		<path class="st3" d="M110.2,67.8c-0.8-0.4-1.1-1.4-1.7-2.1c-0.9-0.5-1.7-1.1-2.5-1.7c-0.2,0.1-0.5,0.2-0.6,0.4
			c-2.1,1.1-3.5,2.9-5.4,4.2c-2.5,1.2-5,2.4-7.3,3.8c-0.9,0.9-2.3,1.4-3.2,2.3c-1.2,0.7-2.1,1.8-3.4,2.4c-1.7,2-3.8,3.5-4.9,6
			c0.3,1.4,1.5,1.9,2.3,2.8c1.1,0.6,1.6,1.8,2.9,2.2c0.9,0.8,2.1,1.3,3,2.2c1.6,0,2.3,1.4,3.8,1.5c1.6,0.2,3.3-1.1,5.3-0.4
			c1.6-0.9,3.4-1.6,5.3-2.2c0.9-0.9,2.2-1.4,3-2.2c0.3-0.3,0.2-1,0.8-0.9c1.8-1.4,3.6-3,4.4-5.4c0.1-2.5,0.5-4.9,0.1-7.1
			C111.8,71.4,110.7,69.7,110.2,67.8z"/>
		<path class="st4" d="M138.8,68.8c0.3-2.8,0-6.1,0.8-8.4c-0.3-0.8-0.8-1.5-0.7-2.7c-1.6-1.7-2.8-3.6-4.7-4.9
			c-0.3-0.7-0.9-1.2-1.3-1.8c-0.5-1.6-1.6-2.5-2-4.1c-1.6-0.4-2.1-1.9-2.1-3.8c-1-0.9-1.3-2.5-1.9-3.4c-0.2-0.3-0.5-0.4-0.6-0.6
			c-0.3-0.5-0.7-0.9-0.8-1.4c-0.8-0.4-1.7-0.7-2.1-1.6c-1-0.3-1.8-0.7-2.5-1.4c-1.7-0.1-2.6-1-4.3-1.2c-0.6-0.1-0.5-0.8-1.2-0.8
			c-3.6-0.3-6.9,0.2-10.1-0.6c-1.4-0.1-2.4,0.4-3.6,0c-0.9,0.5-1.2,1.6-2.2,2c-0.5,0-0.9,0-1.4,0c-0.7,1.1-1.7,1.9-2.4,3
			c-0.7,0.4-1,1-1.8,1.2c-0.1,0.8-0.8,1.1-1.4,1.4c0,1.1-0.9,1.1-1,2c-0.7,0.2-0.9,0.7-1.4,1c-0.2,0.7-1.2,0.6-1.2,1.4
			c0.7,0.5,1.3-0.4,1.6-0.8c0.5-0.6,1.3-0.7,1.4-1.6c1,0,1.6-1.5,2.5-1c-0.7,1.3-2,2-3.1,3c-0.5,0.6-1.2,0.9-1.7,1.4
			c-0.6,0.4-0.9,1.2-1.9,1.2c-0.3-0.6,0.6-1.3-0.2-1.2c-0.8,0-1,0.6-1.6,0.8c-0.2,0.7-1.2,0.6-1.2,1.4c1.1,0.1,1.7-1.5,2.3-0.2
			c-0.4,0.9-1.4,1.2-2.1,1.8c-1.2,0.9-2.7,2.2-3.7,2.9c-0.4,0.3-0.8,0.6-1.2,0.8c-0.3,1.5-0.3,3.9-1.3,4.8c-0.2,4.3-2,5.6-3,10.1
			c-2.7,4.7-6,10.7-8.9,14.7c-0.7,1,0.3,1.3-0.4,2.3c-1.6,2-3.2,3.9-4.7,5.9c0.2,0.7,2.4,3.6,2.2,4.5c0.8,0.2,1.3,0.7,1.9,1.1
			c1.7,2.8,3.8,5.2,6.5,7.1c0.3,1.3,1.3,1.7,1.9,2.7c3.6,1.3,5.8,4.1,9.4,5.4c1.1,1.5,3.4,1.9,4.5,3.4c1.8,0.1,2.8,1.1,4.3,1.6
			c2.4-0.5,4.8,0.4,6.9-0.5c1.7-1.7,4.1-2.6,6.3-3.6c1.7-1.6,3.6-3.2,5.4-4.7c0.6-1,1.3-1.8,2.1-2.5c1.6-0.9,2.9-2.1,4.3-3.3
			c2.1-1.1,3.5-3,5.5-4.2c2.1-0.2,2.8-1.7,4.7-2.2c0.1-0.6,0.4-1,1-1.1c0.3-1.3,1.4-1.8,1.8-2.8c1.1-0.1,1.3-1.1,2.1-1.5
			c0.3-1.3,1.1-2.1,1.4-3.5c1.1-1,2.1-2.2,2.4-4.1c1.1-2.1,2.7-3.6,2.7-6.6c0.1-0.4,0.4-0.5,0.4-1.1c-0.2-1.4,0.2-2.1,0.3-3.2
			C139.3,70.1,139.1,69.4,138.8,68.8z M95,39.8c0.1,0.1-0.2,0.3-0.2,0.2C94.7,39.9,95,39.8,95,39.8z M112,80.7
			c-0.8,2.4-2.6,4-4.4,5.4c-0.7-0.2-0.6,0.6-0.8,0.9c-0.8,0.8-2,1.3-3,2.2c-1.9,0.6-3.8,1.2-5.3,2.2c-2-0.6-3.7,0.6-5.3,0.4
			c-1.5-0.1-2.2-1.5-3.8-1.5c-0.8-0.9-2.1-1.4-3-2.2c-1.4-0.3-1.8-1.6-2.9-2.2c-0.8-0.9-2-1.4-2.3-2.8c1.2-2.5,3.2-4.1,4.9-6
			c1.3-0.6,2.1-1.7,3.4-2.4c0.9-0.9,2.3-1.4,3.2-2.3c2.4-1.4,4.9-2.6,7.3-3.8c1.9-1.3,3.3-3.1,5.4-4.2c0.2-0.2,0.4-0.3,0.6-0.4
			c0.8,0.6,1.6,1.2,2.5,1.7c0.6,0.7,0.9,1.7,1.7,2.1c0.6,1.9,1.6,3.7,1.9,5.9C112.4,75.9,112,78.3,112,80.7z"/>
		<path class="st5" d="M85.8,65.4c0,0,8.4,10.9,11.2,17.7"/>
		<path class="st5" d="M99.2,59c0,0,1.6,13.7,4.4,20.5"/>
		<path class="st6" d="M88.4,64.8c0.3,1.5-0.6,2.9-2.1,3.3c-1.5,0.3-2.9-0.6-3.3-2.1c-0.3-1.5,0.6-2.9,2.1-3.3
			C86.6,62.4,88.1,63.3,88.4,64.8z"/>
		<path class="st6" d="M101.9,58.4c0.3,1.5-0.6,2.9-2.1,3.3s-2.9-0.6-3.3-2.1c-0.3-1.5,0.6-2.9,2.1-3.3S101.6,56.9,101.9,58.4z"/>
		<path class="st6" d="M94.8,60.5c0.3,1.5-0.6,2.9-2.1,3.3c-1.5,0.3-2.9-0.6-3.3-2.1c-0.3-1.5,0.6-2.9,2.1-3.3
			C93,58.1,94.5,59.1,94.8,60.5z"/>
		<line class="st5" x1="92.1" y1="61.1" x2="100.6" y2="82.4"/>
	</g>
	<g>
		<g>
			<path class="st7" d="M229.1,27.6c0,0-0.4,0.5-0.3,0.6C229.1,28.3,229,27.7,229.1,27.6c0.1,0,0.2,0,0.2,0c0,0.1-0.1,0.2-0.1,0.2
				c0,0.1,0.1,0.3,0.1,0.4c-0.7,0-0.5,1.3-0.5,1.4c0,0.7-0.2,0.7-0.5,1.3c0,0,0.2,0,0.2,0c0,0.1-0.4,0.7-0.4,0.8
				c-0.1,0.5-0.2,0.9-0.3,1.4c-0.1,0.6-0.4,1.5-0.6,2c-0.3,0.8-1.5,1.1-1.8,1.9c-0.2,0.4-0.2,0.4,0.3,0.9c0.3,0.3,0.6,0.5,0.8,0.8
				c0.9,1.4,1.6,2.7,1.9,4.3c0.1,0.4,0.2,1,0.3,1.4c0.1,0.9-0.1,1.8-0.2,2.4c0,0.5,0.1,0.5-0.1,0.9c-0.2,0.4-0.4,1-0.5,1.4
				c-0.1,0.4-0.1,0.8-0.2,1.2c-0.1,0.2-0.3,0.4-0.3,0.5c0,0.2,0.1,0.5,0,0.7c-0.7,0-0.6,2.8-1.1,2.6c0,0.4,0.1,0.9-0.3,1
				c0,1.1-0.8,1.6-1.4,2.4c-0.3,0.4-0.4,0.6-0.8,0.8c-0.3,0.1-1.1,0.3-1.3,0.2c-0.2-0.1,0.1-0.4-0.2-0.5c-0.1-0.1-0.6,0-0.8,0
				c-0.2,0-0.3-0.2-0.6,0c-0.3,0.1-0.5,0.6-0.8,0.6c-0.4,0.1-0.9-0.1-1.3-0.1c-0.5,0-0.8-0.1-1.3-0.2c-0.6-0.1-0.8-0.2-1.4,0.2
				c-0.5,0.3-1,0.5-1.5,0.7c-0.9,0.3-2.1,0.5-3.1,0.6c-0.8,0.1-1.7,0.5-2.4,0.7c-0.9,0.2-2.1,0.1-3,0c-0.9-0.1-2.2,0.1-2.6-0.7
				c-0.4-0.7-0.4-1.9-0.3-2.6c0-0.3,0-0.5,0.3-0.6c0-0.3-0.1-0.5,0.4-0.4c0-0.1-0.2-0.2-0.2-0.2c0-0.1,0.5,0,0.4-0.3
				c-0.1,0-0.1,0-0.1,0.1c-0.1,0-0.1-0.1-0.1-0.1c0.1-0.3,0.8-0.3,0.8-0.5c0-0.1-0.1,0-0.1,0c0-0.1,0.5-0.5,0.5-0.7
				c0.1,0,1.1,0,1.1,0c-0.3,0-0.3,0.2-0.6,0.1c-0.2,0,0.4,0.2,0.5,0.2c0.1,0,0.4-0.3,0.5-0.5c0.1,0,0.2,0.3,0.2,0.3
				c0.2,0,0.3,0,0.5-0.1c0.2-0.1,0.4-0.2,0.6-0.3c0.1,0,1.6-0.5,1.5-0.5c0,0,0-0.1,0-0.1c0.1,0,1-0.1,1.1-0.1c0.1,0,0.3-0.4,0.4-0.4
				c0.2,0,0.4,0.1,0.3,0.3c0.1,0,0.8-0.2,0.8-0.2c0-0.1-0.5,0.1-0.6,0.1c0-0.4,1.1-0.2,1.3-0.2c0-0.2-0.1-0.2,0.3-0.4
				c0.3-0.1,0.5-0.1,0.8-0.3c0.5-0.2,1.1-0.6,1.7-0.6c-0.1-0.6,1.6-1,2.2-1.4c0.4-0.3,0.6-0.9,0.9-1.5c0.1-0.2,0.2-0.5,0.3-0.7
				c0.1-0.2,0.2-0.1,0.3-0.3c0-0.1,0-0.3,0-0.4c0,0-0.1,0-0.1,0c0-0.3,0.1-0.3,0.2-0.4c0-0.2,0.1-0.3,0.1-0.5
				c0.1-0.5,0.2-0.7,0.4-1.3c0.3-0.7,0.1-1,0.3-1.8c-0.1,0-0.2,0.1-0.2,0.1c0-0.7,0.4-1.3-0.1-1.9c-0.4-0.4-0.9-0.3-1.5-0.3
				c-0.5,0-1.1-0.1-1.6-0.1c-0.5,0-0.8,0.1-1.4,0.2c-1,0.2-1.6,0.3-2.5,0.9c-0.5,0.3-0.6,0.4-1.1,0.1c-0.6-0.3-1.1-0.9-1.3-1.5
				c-0.2-0.4-0.3-1-0.5-1.6c-0.1-0.5-0.5-1-0.5-1.4c0.4-0.1,0.3-0.6,0.4-0.9c0.1-0.2,0.4-0.5,0.6-0.7c0.2-0.2,0.5-0.4,0.6-0.6
				c0,0-0.3-0.8,0.1-0.8c0,0.2-0.3,0.6,0,0.7c0.4,0,0.8-0.7,1-0.9c0.1-0.1,0.2-0.3,0.4-0.4c0.2-0.1,0.6,0.1,0.6-0.3
				c-0.1,0-0.1,0-0.1-0.1c0.2,0,0.3-0.1,0.5-0.2c0.2-0.1,0.4-0.1,0.4-0.1c0.2-0.1,0.7-0.1,0.8-0.4c0,0-0.1,0-0.2,0
				c0-0.2,1.7-1.2,1.9-1.3c0.6-0.5,1-0.7,1.6-1.1c1.4-0.9,2.1-1.9,2.4-3.4c0.1-0.4,0.2-1.5,0.5-1.9c-0.4-0.1-0.1,0-0.2-0.3
				c-0.7-0.1-1.5,0.4-2.2,0.6c-0.6,0.2-1.4,0.5-2,0.9c-0.4,0.2-0.6,0.5-0.8,0.7c-0.3,0.2-0.7,0.2-1.1,0.3c-0.8,0.2-1.6,0.5-2.5,0.5
				c-0.5,0-2,0-2.1-0.5c-0.6,0-1.1-0.4-1.5-0.7c-0.5-0.3-1-0.4-1.5-0.6c-0.6-0.3-1.1-0.9-1.4-1.5c-0.2-0.3-0.1-0.4-0.3-0.6
				c-0.1-0.2-0.5-0.4-0.7-0.6c-0.3-0.4-0.8-1.2-0.9-1.6c-0.2,0-0.6-0.6-0.7-0.7c-0.3-0.4-0.6-0.9-1-1.3c-0.7-0.7-1.2-1.1-1.2-2.2
				c0-0.5,0.2-0.6,0.5-0.8c0.1-0.1,0.4-0.3,0.5-0.4c0.3-0.1,0.4-0.1,0.6-0.2c0.3-0.1,0.6-0.3,0.8-0.4c0.4,0,0.9,0.2,1.4,0.1
				c1.8-0.2,3.5-0.8,5.2-1.1c0.9-0.2,1.7-0.2,2.6-0.2c0.5,0,1-0.2,1.5-0.1c0.4,0,0.9,0.1,1.5,0c1-0.1,1.9-0.3,2.9-0.2
				c0.5,0,1.2,0,1.7,0c0.2,0,0.5,0.1,0.7,0.1c0.1,0,0.6,0.1,0.7,0.1c0,0-0.1,0.1-0.1,0.1c0.1,0.2,1.1,0.2,1.1,0c0,0-0.2,0-0.2,0
				c0-0.5,2.4,0.7,2.6,0.8c0.9,0.5,1.5,1.1,2.1,1.7c0.4,0.4,0.7,0.9,1.1,1.4c0.5,0.7,0.9,1.6,1.3,2.4c0.2,0.4,0.5,1.1,0.6,1.5
				c0.2,0.5,0.1,1,0.2,1.3c0,0,0.3,0.3,0,0.2c0,0.1,0,0.3,0,0.4c0.1,0,0.1-0.1,0.2-0.1c0,0.1-0.3,0.9,0,0.6c0,0.3-0.3,0.3-0.4,0.6
				c-0.1,0.2-0.1,0.6-0.1,0.8c0.2,0,0.1-0.2,0.2-0.2c0.1,0.6-0.2,0.7-0.4,1.2C229.1,27.4,229.1,27.3,229.1,27.6z M228.2,30.9
				c0,0.1,0,0.1,0,0.1C228.3,30.9,228.3,31,228.2,30.9z M209.3,37c0,0-0.2,0.3,0.1,0.1C209.4,37.1,209.4,37,209.3,37z M210.3,53.3
				C210.2,53.4,210.4,53.2,210.3,53.3z M226.3,53.9C226.5,53.9,226.3,53.8,226.3,53.9z M206,54.6c-0.1,0-0.2,0-0.2,0.1
				C205.8,54.6,205.9,54.7,206,54.6z M205.3,54.7C205.3,54.7,205.3,54.7,205.3,54.7C205.3,54.8,205.4,54.8,205.3,54.7z"/>
			<path class="st7" d="M216.1,14.6c0,0-0.1,0-0.1,0C216,14.5,216.1,14.5,216.1,14.6z"/>
			<path class="st7" d="M221.5,14.6C221.6,14.6,221.6,14.8,221.5,14.6z"/>
			<path class="st7" d="M219.2,28.3c0,0.1-0.1,0.3-0.2,0.2C218.8,28.5,219.1,28.3,219.2,28.3z"/>
			<path class="st7" d="M226.6,36.5c0,0.2-0.3,0.4-0.5,0.4C226.2,36.7,226.4,36.5,226.6,36.5z"/>
			<path class="st7" d="M211.9,52.8C211.7,52.8,211.9,52.7,211.9,52.8z"/>
			<path class="st7" d="M209.8,53C210,53,209.8,53.1,209.8,53z"/>
			<path class="st7" d="M209.8,53C209.8,53.2,209.5,53,209.8,53z"/>
			<path class="st7" d="M208,53.4c0,0.2-0.1,0.3-0.4,0.3C207.6,53.6,207.8,53.4,208,53.4z"/>
			<path class="st7" d="M208.6,53.5C208.7,53.5,208.6,53.7,208.6,53.5z"/>
			<path class="st7" d="M207,53.7c0,0.1-0.1,0.2-0.1,0.3C206.6,54,206.6,53.7,207,53.7z"/>
			<path class="st7" d="M207.1,53.7C207.2,53.7,207.1,53.8,207.1,53.7z"/>
			<path class="st7" d="M206.5,53.9C206.6,53.9,206.5,54,206.5,53.9z"/>
			<path class="st7" d="M207.5,53.9C207.5,54.1,207.4,53.9,207.5,53.9z"/>
			<path class="st7" d="M206.7,54.1c0,0.2-0.2,0.1-0.2,0C206.6,54,206.6,54,206.7,54.1z"/>
			<path class="st7" d="M205.9,54.1C205.9,54.1,205.8,54.2,205.9,54.1z"/>
			<path class="st7" d="M205.2,54.2C205.3,54.2,205.2,54.4,205.2,54.2z"/>
		</g>
		<g>
			<path class="st7" d="M172.1,11.4c0.2,0.4,0.7,0.7,1,1c0.3,0.3,0.7,0.7,0.8,1.1c0.5,1.1,0.3,2.3,0.3,3.4c0,1-0.2,2.1-0.5,2.9
				c-0.1,0.4-0.3,0.6-0.5,0.8c-0.1,0.3-0.1,0.6-0.2,0.9c-0.2,0.5-0.5,0.8-0.6,1.4c-0.2,0.7-0.4,1.3-0.7,2c-0.4,0.7-0.3,1.3-0.5,2.1
				c-0.2,0.6-0.4,1.1-0.5,1.7c-0.2,0.7,0,1.2-0.2,1.8c-0.2,1.2-0.8,2.3-1.3,3.6c-0.1,0.3-0.1,0.5-0.3,0.8c-0.2,0.3-0.4,0.2-0.5,0.4
				c-0.2,0.3-0.3,0.9-0.5,1.3c-0.4,0.8-0.4,1,0.6,1c0.7,0,1.5,0,2.2-0.1c0.7-0.1,2.8,0,3-0.5c0.1-0.1-0.2-0.8,0-0.8c0,0,0,0.1,0,0.1
				c0.3-0.1,0.1-0.4,0.1-0.6c-0.1,0,0,0.2-0.1,0.2c0-0.1,0-0.2,0-0.3c0.4,0-0.1-0.4,0.2-0.4c0-0.3-0.3-0.3-0.3-0.6
				c0-0.1,0.2-0.6,0.2-0.7c0.2-0.5,0.3-0.8,0.4-1.1c0-0.5,0.2-0.9,0.3-1.3c0-0.1,0.1-0.6,0-0.7c-0.1,0-0.1,0.4-0.2,0.4
				c-0.3,0.1-0.1-0.3,0.1-0.6c0.2-0.4,0.3-0.9,0.4-1.3c0.3-0.9,0.4-1.8,0.8-2.6c0.3-0.7,0.8-2.2,0.8-3c0-0.1,0.1-0.1,0.2,0
				c0-0.5,0.4-1,0.6-1.5c0.1-0.5,0.3-0.9,0.4-1.4c0.3-0.9,0.7-1.9,1.5-2.6c1.1-0.9,1.7-0.5,2.3,0.4c0.4,0.5,1,0.8,1.1,1.4
				c0.1,0.4,0.1,1.1,0.2,1.6c0.3,2.1,1.2,4.1,1,6.3c0,0.5-0.2,0.7-0.1,1.4c0.1,0.5,0.1,1,0.1,1.5c0,1-0.3,2.1,0,3.2
				c0.1,0.4,0.4,1.2,0.8,1.4c0.3,0.2,1.6,0.1,1.9,0.1c0.4-0.1,0.6-0.7,1-0.8c0.7-0.2,1.5,0.2,2,0.2c0.1,0,0.3-0.3,0.5-0.3
				c0.2,0.1,0.1,0.3,0.3,0.4c0.3,0.3,0.8,0.4,1.1,0.6c0.3,0.2,0.9,0.2,1.3,0.4c0,0,0.3,0.3,0.4,0.4c0.1,0.2,0.3,0.3,0.3,0.5
				c0.1,0.3,0,0.6,0,0.9c0.1,0.8,0.2,1.2-0.5,1.8c-0.6,0.5-1.1,0.9-1.7,1.3c-0.6,0.4-1.3,0.8-1.9,0.8c-0.6,0.1-1.3-0.2-1.8,0
				c-0.9,0.2-0.9,0.8-1,1.7c-0.1,1.3-0.5,2.5-0.4,3.7c0,0.5,0,1.3,0.2,1.9c0.2,0.6,0.5,0.8,0.5,1.5c0,0.4-0.1,0.5,0.1,0.9
				c0.2,0.5,0.5,1,0.5,1.5c0,0.8-0.2,1.5-0.5,2.1c-0.1,0.2,0,0.2,0,0.3c0,0.1-0.2,0.2-0.3,0.2c0,0,0.1,0.1,0.1,0.2
				c-0.3,0.3-0.6,0.3-0.9,0.7c-0.4,0.6-1.2,1-1.8,1.3c-0.5,0.3-1,0.5-1.6,0.7c-0.5,0.2-1,0.1-1.5,0.4c-0.4,0.3-0.6,0.5-1.2,0.7
				c0,0-0.5,0.2-0.5,0.2c-0.2,0.1-0.4,0.6-0.7,0.7c-0.4,0.2-0.9,0.1-1.2,0c0,0.2,0.5,0.2,0.4,0.3c-0.9,0-1.4-0.7-2-1.1
				c-0.2-0.1-0.9-0.3-0.9-0.7c0.2,0,0.4,0.4,0.6,0.5c0,0,0,0,0.1,0c0-0.5-1.3-1.3-1.5-1.9c-0.1-0.3-0.2-0.8-0.3-1.2
				c-0.2-0.5,0-0.9-0.1-1.4c-0.1-0.6-0.4-0.9-0.3-1.4c0-0.3,0.3-0.4,0.3-0.6c0-0.1-0.1-0.6-0.1-0.8c-0.1-0.9-0.1-1.7-0.2-2.6
				c0-0.5-0.3-3.7,0.4-3.8c0-0.2-0.3-0.2-0.3-0.4c0,0,0.2-0.8,0.2-0.8c0.6-1,0.2,0.3,0.2,0.3c0.3,0,0.2,0.7-0.1,0.7
				c0,0.4,0.4,0.1,0.4-0.1c-0.1,0-0.3,0.9-0.3,1.1c0,0-0.1,0.4-0.1,0.3c0.1,0.2,0.2,0.1,0.2,0.2c0.1,0.3,0.1,0.5,0.1,0.8
				c0,0.3-0.2,2.8,0.2,2.8c0.5,0,0.3-1.7,0.3-2.1c0-0.2-0.1-0.6-0.1-0.7c0-0.2,0.4-0.8,0.3-0.9c0-0.1-0.1,0-0.2,0
				c0-0.2,0.2-0.1,0.2-0.3c0-0.1-0.2,0-0.3,0c0-0.2,1.1-2.3,0.6-2.3c-0.3,0.2-0.3,0.8-0.2,1.1c0,0-0.2,0-0.3,0
				c0.1-0.3,0.1-1,0.1-1.4c-0.1,0-0.3,0.1-0.3,0.2c-0.3,0-0.6-0.8-1-0.9c-0.4-0.1-1,0-1.3-0.1c-0.8-0.1-1.7,0.2-2.6,0.3
				c-1.9,0.2-4.1-0.1-5.8-0.5c-1.8-0.5-3.3-1.4-4.7-2.7c-0.2-0.2-0.4-0.1-0.5-0.6c-0.1-0.4-0.2-0.9-0.2-1.3c0-0.4,0.1-0.8,0.3-1.1
				c0.3-0.5,0.5-0.3,0.9-0.7c0.3-0.3,0.4-1,0.6-1.4c0.3-0.5,0.5-0.9,0.8-1.4c0.3-0.5,0.7-1.5,1-1.5c0-0.3-0.2,0-0.1-0.5
				c0-0.2,0.3-0.5,0.5-0.7c0.4-0.7,0.7-1.4,1-2.1c0.5-1.1,0.6-1.9,1.1-2.8c0.2-0.4,0.4-0.7,0.6-1c0.1-0.1,0.5-0.8,0.5-0.7
				c0-0.1-0.3,0.1-0.2-0.2c0.1-0.1,0.2-0.3,0.2-0.4c0.1-0.2,0.2-0.6,0.3-0.9c0.2-0.6,0.4-1.2,0.7-1.8c0.4-1.1,0.4-1.9,0.8-2.9
				c0.7-2,0.8-4.1,1.7-6.1C169.4,11.1,171,11.2,172.1,11.4z M165.4,24.2C165.5,24.2,165.4,24,165.4,24.2z M174.6,30.7
				C174.6,30.7,174.8,30.6,174.6,30.7z M174.1,33.6c0,0,0,0.2,0,0.2C174.1,33.8,174.3,33.6,174.1,33.6z M174.6,46
				C174.6,46.1,174.8,46,174.6,46z M174.7,46.3C174.4,46.2,174.8,46.5,174.7,46.3z M174.6,47.6c0-0.2-0.2,0.1-0.2,0.1c0,0,0,0,0,0.1
				C174.5,47.8,174.7,47.6,174.6,47.6z M174.4,47.9C174.4,47.9,174.4,47.9,174.4,47.9C174.4,48,174.5,47.9,174.4,47.9z M183.4,57.9
				C183.5,57.9,183.4,57.8,183.4,57.9z"/>
			<path class="st7" d="M173.9,31C173.8,31,173.9,31,173.9,31C173.9,31,173.9,31,173.9,31z"/>
			<path class="st7" d="M174,32.1c0,0.1,0,0.3-0.1,0.3C173.8,32.3,173.9,32.1,174,32.1z"/>
			<path class="st7" d="M174.1,33.3C174,33.2,174,33.2,174.1,33.3z"/>
			<path class="st7" d="M173.6,36.1C173.6,36.2,173.6,36.2,173.6,36.1z"/>
			<path class="st7" d="M173.3,36.4C173.4,36.4,173.3,36.7,173.3,36.4z"/>
			<path class="st7" d="M173.3,43.6c0,0,0,1-0.2,0.9C173,44.1,173.3,43.9,173.3,43.6z"/>
			<path class="st7" d="M173.7,44C173.9,44,173.7,44.2,173.7,44z"/>
			<path class="st7" d="M174,44.4c0.1,0,0.1,0,0.1,0.1C174,44.6,174,44.5,174,44.4z"/>
			<path class="st7" d="M173.1,44.7c0.2,0,0.1,0.3,0,0.3C173.1,44.8,173.1,44.8,173.1,44.7z"/>
			<path class="st7" d="M174.9,44.8C174.9,44.8,174.9,44.8,174.9,44.8C174.9,44.8,174.9,44.8,174.9,44.8z"/>
			<path class="st7" d="M174.4,45.6C174.6,45.6,174.4,45.7,174.4,45.6z"/>
		</g>
		<path class="st2" d="M202.1,35c0.6,0,1.1,0.5,1.3,0.9c0.4,0.6,1.2,1,1.4,1.7c0.2,0.6,0.2,1.2,0.2,1.8c0,0.7,0,1.1-0.1,1.8
			c-0.1,0.6-0.4,0.9-0.9,1.3c-0.3,0.2-0.6,0.4-0.1,0.4c0,0.1-0.6,0.4-0.6,0.5c0,0-0.4,0.1-0.4,0.2c-0.1,0.2,0.7,0.1,0.8,0.2
			c0,0.1-2.2,0.3-2.4,0.3c-1,0-1.7-0.4-2.5-0.4c0-0.2-0.8-0.6-1-0.7c-0.3-0.2-0.6-0.5-0.8-0.7c-0.7-0.5-1.3-1.2-1.1-2.1
			c0.3-0.9,1-1.5,1.6-2.1c0.5-0.6,0.9-1.1,1.5-1.6c0.2-0.2,0.5-0.6,0.7-0.7c0.2-0.1,0.7-0.1,0.9-0.2c0.2,0,0.5-0.1,0.6-0.2
			c0.2-0.1,0.4-0.1,0.7-0.1C201.9,35.1,202.1,34.8,202.1,35z M204.7,37.9C204.9,37.9,204.7,37.8,204.7,37.9z M202.3,40.2
			c0,0.6-1.5,0.8-0.2,1.3C202.1,41.3,203.1,40.4,202.3,40.2z"/>
	</g>
	<g>
		<g>
			<path class="st7" d="M179.2,75.7c0.3,0,0.6,0.9,0.8,1.1c0.2,0.2,0.5,0.2,0.7,0.5c0.1,0.2,0.3,0.6,0.4,0.8
				c0.2,1.3-0.6,2.8-2.3,2.8c-0.5,0-0.6-0.1-0.9,0.1c-0.2,0.1-0.8,0.8-0.8,1c0,0.1,2.3,0.2,2.5,0.2c0.8,0.2,1.6,0.4,2.4,0.7
				c0.3,0.1,1.3,0.3,1.5,0.4c0,0-0.1,0-0.1-0.1c0.5,0.1,1.2,0.7,1.6,0.9c0.5,0.2,1,0.4,1.4,0.7c0.5,0.3,0.5,0.4,0.9,0.8
				c0.6,0.7,0.6,1.3,0.5,2c-0.1,0.5-0.5,1.4-1.1,1.5c-0.4,0.1-0.7-0.1-1.1-0.2c-0.3-0.1-0.8-0.1-1.2-0.1c-0.8,0-1.3-0.3-1.9-0.5
				c-0.3-0.1-0.7-0.3-1.1-0.4c-0.4-0.1-0.9-0.1-1.2-0.2c-0.4-0.1-0.6-0.4-0.9-0.6c-0.4-0.2-0.7-0.4-1.1-0.6
				c-0.9-0.4-1.7-0.8-2.5-1.1c-0.2-0.1-1-0.3-1.2-0.2c-0.3,0.1-0.5,0.6-0.8,0.9c-0.1,0.2-0.2,0.5-0.5,0.4c0.2-0.6,0.7-0.8,0.9-1.3
				c-0.4,0-0.7,1-1,0.9c0-0.1,0.5-0.6,0.4-0.6c0,0-1.3,1.2-1.4,1.3c-0.3,0.3-0.7,0.7-1,1c-0.6,0.6-1.3,1.2-2,1.7
				c-0.2,0.2-1.7,1.7-1.5,1.7c0.2,0.1,1.6-1.1,1.8-1.3c0.3-0.2,1.1-1.2,1.5-1.2c-0.3,0.5-2.1,2.2-2.7,2.1c-0.1,0.3-0.5,0.4-0.7,0.7
				c-0.3,0.4-0.3,0.7-0.5,1.2c-0.1,0.2-0.3,0.2-0.4,0.3c0,0,0.1,0.2,0,0.2c-0.1,0.1-0.3,0-0.4,0.1c-0.2,0.4-0.1,0.5-0.5,0.8
				c-0.5,0.4-0.7,0.2-1.3-0.2c-0.1,0-0.3-0.4-0.3-0.4c-0.2,0-0.1,0.2-0.2,0.2c-0.9-0.1-0.9-0.5-1.3-1.3c-0.2-0.4-0.4-0.9-0.1-1.3
				c0.1-0.3,0.6-0.4,0.7-0.7c-0.1,0-0.4,0.2-0.4,0.2c0.2-0.4,1-0.6,1.5-1c0.3-0.2,1.2-1,1.3-1c0-0.2,0.4-0.1,0.4-0.2
				c0,0-0.1-0.1-0.1-0.1c0,0,0,0,0,0c0.4,0.2,1.2-1.2,1.7-1.2c0-0.6,0.4-1.2,0.7-1.8c0.2-0.5,0.2-1,0.3-1.5c0-0.3-0.7-1.1-1.1-1.2
				c-0.3-0.1-0.8-0.1-1.2-0.2c-0.1,0-0.8-0.4-1-0.4c0-0.1,0-0.1,0-0.1c-0.5,0-1-0.6-1.4-0.8c-0.4-0.3-0.7-0.3-1.1-0.8
				c-0.5-0.6-1-1.2-1.7-1.7c-0.3-0.2-0.8-0.4-1.2-0.7c-0.4-0.4-0.4-0.6-0.6-1.1c-0.3-0.8-1.1-1.4,0.1-1.9c0.9-0.4,1.9-1,3-0.7
				c0.9,0.2,2,0.2,3,0.1c2.3-0.1,4.6-0.2,6.9-0.3c2.2-0.1,4.4-0.4,6.2,1.1C178.7,75.1,179.3,75.5,179.2,75.7z M173.7,85.2
				C173.7,85.1,173.7,85.2,173.7,85.2z M185.7,88.9C185.7,88.9,185.7,88.9,185.7,88.9C185.7,88.9,185.8,88.9,185.7,88.9z
				 M165.1,89.1C165.1,89.1,165,89.1,165.1,89.1c-0.1,0.1,0.2,0,0.1,0C165.2,89,165.1,88.9,165.1,89.1z M164.9,89.3
				C164.9,89.3,165,89.3,164.9,89.3z"/>
			<path class="st7" d="M173,86C173,86,173,86.2,173,86z"/>
			<path class="st7" d="M173.1,86.4C173.1,86.6,173,86.4,173.1,86.4z"/>
			<path class="st7" d="M173,86.6c0,0.1-0.2,0.3-0.3,0.2C172.7,86.8,173,86.6,173,86.6z"/>
			<path class="st7" d="M172.7,86.9C172.6,86.9,172.7,86.9,172.7,86.9C172.7,86.9,172.7,86.9,172.7,86.9z"/>
			<path class="st7" d="M172,87.6C172,87.6,172,87.6,172,87.6C172,87.6,172,87.6,172,87.6z"/>
			<path class="st7" d="M171.7,87.7C171.7,87.7,171.7,87.7,171.7,87.7C171.7,87.7,171.7,87.7,171.7,87.7z"/>
			<path class="st7" d="M171.8,87.7C171.9,87.7,171.7,87.8,171.8,87.7z"/>
			<path class="st7" d="M171.5,88C171.6,88,171.6,88,171.5,88C171.6,88,171.5,88,171.5,88z"/>
			<path class="st7" d="M171.5,88.1C171.5,88.1,171.5,88.1,171.5,88.1z"/>
			<path class="st7" d="M171.1,88.3c0.1,0,0,0.2-0.1,0.2C171,88.4,171.1,88.3,171.1,88.3z"/>
			<path class="st7" d="M171,88.4C171,88.6,170.7,88.4,171,88.4z"/>
			<path class="st7" d="M164.7,89C164.7,89,164.7,89,164.7,89C164.7,89,164.7,89,164.7,89z"/>
			<path class="st7" d="M163.3,90.1C163.3,90,163.3,90.2,163.3,90.1z"/>
			<path class="st7" d="M163.1,90.2C163.2,90.2,163.1,90.2,163.1,90.2z"/>
			<path class="st7" d="M162.8,90.7C162.8,90.7,162.7,90.7,162.8,90.7z"/>
		</g>
		<g>
			<path class="st7" d="M223.8,69.1c0.6,0.2,1.4,1.1,1.7,1.8c0.4,1-0.2,2,0.1,2.8c0.3,0.7,0.8,1.8,0.8,2.8c0,0.5,0,0.9,0.1,1.4
				c0.2,0.6,0.5,0.9,0.7,1.3c0.2,0.4,0.2,1.2,0.2,1.7c0,0.6,0,1.2-0.1,1.7c0,0.2-0.1,0.3-0.1,0.4c0.1,0,0,0.9-0.1,1.1
				c0,0,0.1-0.1,0.1-0.1c0,0.2,0,0.4,0,0.6c0.4,0,0.1,1.4,0,1.7c-0.2,0.9-0.1,1.1,0.2,2c0.3,0.8,0.1,1.3,0,2.1
				c0,0.6-0.1,1.3-0.2,1.9c0,0.3-0.2,0.7-0.3,0.9c-0.1,0.2-0.3,0.4-0.3,0.6c0,0.2,0.1,0.4,0.1,0.5c-0.1,0.4-0.4,0.4-0.6,0.8
				c-0.2,0.4,0,0.6-0.1,1c-0.2,0.7-0.9,0.7-1.5,0.7c-0.8,0.1-1.2,0.4-1.9,0.8c-1.7,0.8-1.4-1.4-1.4-2.4c0-0.1-0.1-0.5,0.1-0.5
				c-0.2-0.7-0.2-1.5,0.2-2.2c0-0.2,0.1-1,0.1-1.4c0.2,0,0.2-1.1,0.2-1.1c0-0.5,0.4-1.2,0.3-1.9c0-0.1,0.2-1.5,0.1-1.6
				c-0.1-0.2-2.4,1.1-2.8,1.2c-0.8,0.2-1.2,0-1.9-0.3c-0.6-0.2-1.3-0.2-2-0.2c-1.4,0-3,0.4-4.2-0.4c-0.7-0.5-1.5-1.7-1.8-2.5
				c0-0.1-0.1-0.3,0.1-0.3c-0.2-0.3,0.1-1,0.4-1.3c0.4-0.5,1-0.5,1.7-0.4c1,0.1,2.1,0,3.2,0c0.2,0,1.9,0,1.9,0.1
				c-0.2,0-2.1-0.2-2.1,0.1c0,0.1,3.3,0.3,3.5,0.3c0-0.1-1.1-0.4-1.3-0.4c0,0.1,1.5,0.1,1.6,0.1c0.1,0.5,1-0.3,1.3-0.5
				c0.5-0.3,1-0.4,1.4-0.8c0.1-0.1,0.6-0.9,0.6-0.7c0.1,0,0.1-0.6,0.2-0.6c0-0.1,0.1-0.2,0.1-0.4c0-0.2-0.1-0.5-0.1-0.6
				c0.2,0,0.4-0.1,0.6-0.1c0.2,0-0.3-2.1-0.3-2.3c-0.2-0.8-0.3-1.4-0.2-2.2c0.2-1.4,0-3.2,0.2-4.7c0-0.3,0.1-0.8,0.4-0.9
				C223.3,68.6,223.5,69.1,223.8,69.1z M221.8,80.7C221.8,80.8,221.8,80.7,221.8,80.7z M221.8,80.9
				C221.8,80.9,221.8,80.9,221.8,80.9z M214.9,82.5C215,82.5,214.9,82.4,214.9,82.5z M227.3,83C227.2,83.1,227.4,83,227.3,83z
				 M227.4,83.2C227.4,83.2,227.3,83.3,227.4,83.2z M227.3,84.2C227.3,84.4,227.4,84.3,227.3,84.2z M222.2,86.7
				C222.2,86.6,222.2,86.8,222.2,86.7z"/>
			<path class="st7" d="M218.6,74.8c-0.1,0.1-0.5-0.1-0.5,0.2c0,0,1.6-0.1,1.5-0.2c0,0,0,0.1,0,0.1c0.4-0.1,1.8-0.2,2.1,0.2
				c0.5,0.6,0.2,1.6-0.2,2.1c-0.5,0.7-1.7,0.6-2.4,0.8c-0.7,0.2-1.6,0.4-2.2,0.7c-1.3,0.8-2.7,1.7-4.3,1.7c-1.6,0-2.4-1.8-2.4-3
				c0-0.7-0.2-1.6,0.7-1.9c0.4-0.1,1,0,1.4,0c0.4,0,0.9-0.1,1.3-0.1c0.2,0,0.2,0.1,0.3,0.1c0.9,0,2.2-0.6,3.2-0.6
				c0,0.1-0.1,0.1-0.1,0.1c0,0,0,0,0,0C217.3,75.3,218.1,74.8,218.6,74.8z M217.9,74.9C217.9,74.9,217.9,74.9,217.9,74.9
				C217.9,74.9,217.9,74.9,217.9,74.9z M217.9,74.9C217.9,74.9,217.9,74.9,217.9,74.9C217.9,74.9,217.9,74.9,217.9,74.9z
				 M216.1,75.3C216.1,75.2,216.1,75.4,216.1,75.3z"/>
			<path class="st7" d="M218.7,82.7C218.7,82.7,218.7,82.7,218.7,82.7C218.8,82.7,218.7,82.7,218.7,82.7z"/>
			<path class="st7" d="M222,86.9C222.1,87,222,87,222,86.9z"/>
			<path class="st7" d="M222,87.4c-0.1,0.2-0.2,1.1-0.2,1.5C221.6,88.7,221.7,87.4,222,87.4z"/>
			<path class="st7" d="M221.8,89.1C221.8,89.1,221.7,89.1,221.8,89.1z"/>
			<path class="st7" d="M221.8,89.3C221.8,89.3,221.8,89.3,221.8,89.3z"/>
			<path class="st7" d="M221.8,90.3C221.7,90.3,221.8,90.3,221.8,90.3C221.8,90.3,221.8,90.3,221.8,90.3z"/>
		</g>
		<g>
			<path class="st7" d="M159.8,94.5c0.8,0.1,1.3,0.6,2,0.9c0.6,0.3,1.2,0.5,1.9,0.7c1.5,0.3,3,0.6,4.4,0.9c1.4,0.3,2.9,0.3,4.3,0.3
				c1.4,0,3,0,4.3-0.1c1.4-0.2,2.8-0.2,4.2-0.2c1.4-0.1,2.9-0.6,4.3-0.8c1.1-0.2,2.5-0.6,3.6-0.3c0.7,0.2,1,0.4,1.3,1.1
				c0.2,0.4,0.2,0.6,0,1c-0.1,0.1-0.3,0.2-0.4,0.3c-0.1,0.3,0.1,0,0.2,0.3c0.1,0.3,0.4,0.3,0.1,0.5c-0.2,0.1-0.8,0.2-1,0.3
				c-0.7,0.2-1.5-0.3-2.1-0.2c-0.6,0.1-1.3,0.6-1.9,0.7c-0.8,0.3-1.5,0.2-2.4,0.1c-0.1,0-1.1,0.1-1.1-0.1c-0.2,0-1.8,0-2,0.2
				c-0.3,0.2-0.2,0.9-0.2,1.1c0.1,1-0.1,2-0.1,3.1c0,1,0.2,2.1,0.2,3.1c0,0.6-0.2,1.2-0.1,1.7c0,0.3,0.2,0.3,0.2,0.6
				c0,0.3-0.2,0.6-0.2,0.8c-0.2,0.8-0.4,1.1-0.9,1.7c-0.5,0.6-1,0.8-1.6,1.2c-0.2,0.1-0.3,0.3-0.5,0.4c-0.2,0.1-0.6,0.2-0.8,0.3
				c-0.5,0.3-0.5,0.8-1.2,0.7c-0.4-0.1-1.5-0.3-1.8-0.6c-0.5-0.4-0.9-1.3-0.8-1.9c0.1-0.2,0.3-0.3,0.4-0.5c0.1-0.2,0-0.4,0-0.6
				c0-0.2,0.2-0.4,0.2-0.5c0.1-0.5,0-1-0.1-1.6c-0.2-1.1-0.5-2.5-0.5-3.5c0-1.2-0.2-2.7-0.4-4c-0.1-0.3-0.3-0.7-0.3-0.9
				c-0.8,0.3-2.1-0.5-3.1-0.5c-1.3,0-2.7,0.3-4,0.3c-1.1,0-2.6-0.2-3.3-0.9c-0.4-0.4-0.6-1-0.9-1.5c-0.3-0.4-0.6-0.8-0.9-1.2
				c-0.2-0.3-0.5-1.2-0.4-1.6c0-0.2,0.5-0.8,0.5-0.9C159.4,94.3,159.5,94.6,159.8,94.5z M178.7,97.1
				C178.6,97.1,178.8,97.1,178.7,97.1z M177,97.3C177.1,97.3,177,97.2,177,97.3z M181,99.5c0,0-0.3,0-0.3,0
				C180.7,99.5,181.1,99.5,181,99.5z M181.2,99.6C181.3,99.6,181.2,99.5,181.2,99.6z M179.8,99.6C179.8,99.7,179.9,99.6,179.8,99.6z
				 M179.8,99.7C179.8,99.7,179.8,99.6,179.8,99.7z M180.9,100C181,100,180.9,99.9,180.9,100z"/>
		</g>
		<g>
			<path class="st7" d="M200.4,98.5c0.6,0.1,1.2,0.1,1.7,0.4c0.2,0.1,0.9,0.5,0.9,0.9c0.4,0,0.5,1.4,0.6,1.9
				c0.1,0.9,0.4,1.3,0.6,2.1c0.2,0.7,0.2,1.2,0.3,2c0,0.8,0,1.3,0.9,1.3c1,0,1.8,0.1,2.6,0.1c0,0.1-0.1,0-0.1,0.1c0,0,0.3,0,0.3,0
				c0,0-0.1,0-0.2,0c0-0.1,0.8,0,0.8,0c0-0.1,0,0-0.1,0c0,0,0,0,0,0c0-0.1,2.1,0.1,2.1-0.1c0-0.1-1.1,0-1.2,0c0-0.3,1.5,0,1.5,0
				c0-0.1-0.2-0.1-0.2-0.1c0.1-0.2,0.6,0,0.8,0c0,0,0,0,0,0.1c0,0.1-0.5-0.1-0.5,0.1c0.3-0.1,0.7,0,1,0c0-0.1,0-0.1-0.1-0.1
				c0.1-0.2,2.7-0.4,2.9-0.4c0,0.1-0.1,0.1-0.1,0.1c0.2,0,2.1-0.2,2.1-0.2c0,0-0.1,0-0.1-0.1c0.2,0,0.6-0.1,0.7-0.1
				c0,0.1-0.1,0.1-0.1,0.1c0.1-0.2,3.2-0.9,3.6-1.1c1-0.4,2.3-0.7,3.1-1.1c1.1-0.6,2.3-0.8,3.5-1c0.9-0.1,2.6-0.8,3.1,0.5
				c0.4,0.9-0.1,1.9-0.3,2.9c-0.3,1.2-0.8,1.9-2,2.5c-0.6,0.3-1.4,0.4-2,0.6c-0.6,0.2-1.2,0.6-1.9,0.7c-1.5,0.3-2.6,0.8-4,1.1
				c-1.3,0.3-2.5,0.4-3.8,0.6c-1.4,0.2-2.9-0.3-4.3-0.3c-0.4,0-0.8,0-1.2,0c0,0,0.1,0,0.1-0.1c-0.1-0.2-0.8,0.1-0.9,0.1
				c0-0.1,0.1-0.1,0.1-0.2c-1-0.2-2.3,0.3-3.2,0.3c-1.2,0-2.3,0.2-3.4,0.1c-0.5-0.1-1.2-0.1-1.8-0.1c0,0-0.9-0.1-1.2-0.2
				c-0.7-0.1-1.1-0.2-1.4-0.7c-0.2-0.3-0.2-0.8-0.4-0.8c0-0.1,0.1-0.1,0.1-0.2c-0.1,0.3-0.4-1-0.2-1c0,0.3,0.1,0.5,0.1,0.7
				c0,0,0,0,0,0c0.1,0,0.1-0.5,0.1-0.5c0.1,0,0.1,0,0.1,0.1c0,0,0.2-0.3,0.2-0.4c0,0-0.1,0-0.1-0.1c0,0-0.1,0.1-0.1,0.1
				c-0.1,0-0.4-2.9-0.4-3.2c0.2,0,0-1.2,0-1.7c-0.2,0,0,0.5-0.2,0.5c0-0.1-0.1-1.2,0-1.2c0,0,0,0,0,0.1c0,0.1,0,0.4,0,0.5
				c0.1,0,0.1-0.4,0.1-0.4c0-0.1,0-0.2-0.1-0.3c-0.1-0.3-0.1,0-0.1-0.1c-0.1-0.1-0.2-0.5-0.2-0.6c-0.1,0,0,0.1-0.1,0.1
				c0-0.3,0.1-1.1,0-1.3c0,0-0.1,0-0.1,0c0-0.3-0.4-2.3-0.3-2.5c0.1-0.1,0.4,0,0.4-0.1c0.1-0.1-0.2-0.2-0.1-0.4
				c0.2-0.3,0.2-0.3,0.5-0.4C199.2,98.1,200,98.6,200.4,98.5z M198.6,103.1c0,0.1,0,0.1,0.1,0.1C198.7,103.2,198.7,103,198.6,103.1z
				 M198.7,103.3C198.8,103.3,198.7,103.2,198.7,103.3z M223.2,105c0,0.1-0.6,0.3-0.7,0.2c0,0,0.1-0.1,0.1-0.1
				c-0.1,0-1.5,0.3-1.5,0.4c0.1,0,0.4,0,0.4-0.1c0,0,0,0,0,0c-0.1,0-3,1-3,1.1c0.1,0.1,1.4-0.3,1.6-0.4c0.3-0.1,0.6-0.3,1-0.3
				c0.1,0,0.7-0.3,0.4,0c-0.1,0.1-0.7,0.1-0.7,0.3c0.2,0.1,2.3-0.6,2.3-0.6c-0.1,0-0.1,0-0.2,0c-0.1-0.2,0.6-0.1,0.5-0.1
				c0-0.1,0-0.2,0.1-0.2c0,0.1-0.1,0-0.1,0.1c0.2-0.1,0.9-0.3,0.9-0.2c-0.1-0.3-0.2,0.1,0.3-0.1c0.1-0.1,0.4-0.2,0.5-0.2
				c0.1-0.1,0.8-0.5,0.9-0.5c0,0.1,1-0.2,1-0.3c0,0-0.6-0.4-0.7-0.4c-0.5,0.3-0.8,0.4-1.4,0.5c-0.2,0.1-0.5,0.2-0.7,0.2
				c-0.3,0.1-0.4,0.3-0.7,0.4c0-0.1,0-0.1-0.1-0.1c0-0.1-0.1,0.3-0.1,0.2c0,0,0,0,0,0c0,0,0.1-0.1,0.1-0.1
				C223.7,104.9,223.1,104.9,223.2,105z M198.7,104.4C198.7,104.3,198.7,104.4,198.7,104.4z M226.6,104.4
				C226.7,104.4,226.6,104.2,226.6,104.4z M226.5,104.4C226.6,104.4,226.5,104.3,226.5,104.4z M226.4,104.4
				C226.5,104.5,226.3,104.3,226.4,104.4z M223.9,104.4C223.8,104.6,223.8,104.4,223.9,104.4z M226.1,104.5
				C226.1,104.5,226.1,104.5,226.1,104.5z M223.7,104.5C223.7,104.5,223.7,104.5,223.7,104.5C223.7,104.5,223.8,104.5,223.7,104.5z
				 M223.5,105.4C223.5,105.4,223.5,105.4,223.5,105.4C223.5,105.4,223.5,105.4,223.5,105.4z M223.2,105.4
				C223.2,105.4,223.2,105.4,223.2,105.4C223.2,105.4,223.2,105.4,223.2,105.4z M219.2,106c-0.1,0-0.2,0.1-0.3,0.1
				C218.9,106.2,219.5,106.1,219.2,106z M217.3,106.3c-0.1,0-0.2,0-0.2,0C217.1,106.4,217.3,106.3,217.3,106.3z M217,106.3
				C216.8,106.3,217,106.4,217,106.3z M218.5,106.5C218.6,106.6,218.6,106.5,218.5,106.5z M218.5,106.5
				C218.3,106.5,218.5,106.5,218.5,106.5z M214.5,106.6C214.6,106.6,214.3,106.6,214.5,106.6z M212.9,106.8
				C212.6,106.8,213,106.8,212.9,106.8z M212.6,106.9C212.5,106.9,212.6,106.9,212.6,106.9z M208.8,107.1
				C208.8,107.1,208.9,107.1,208.8,107.1z M199.4,109.8C199.4,109.8,199.4,109.7,199.4,109.8z M199.4,109.9
				C199.4,109.9,199.5,109.9,199.4,109.9z M199.2,110C199.1,110,199.2,110,199.2,110z M199.3,110.1
				C199.4,110.2,199.4,110.1,199.3,110.1C199.3,110.1,199.3,110.1,199.3,110.1z M199.2,110.2C199.2,110.1,199.1,110.2,199.2,110.2z
				 M199.7,111.2c0,0,0.4,0.3,0.4,0.1C200,111.3,199.7,111.2,199.7,111.2z"/>
			<path class="st7" d="M198.6,103.6C198.6,103.7,198.6,103.6,198.6,103.6z"/>
			<path class="st7" d="M198.5,103.8C198.6,103.8,198.5,103.9,198.5,103.8z"/>
			<path class="st7" d="M226.4,103.8c0,0,0,0.2-0.1,0.1C226.3,103.9,226.3,103.8,226.4,103.8z"/>
			<path class="st7" d="M198.5,103.9c0.1,0,0,0.1,0,0.2C198.4,104.1,198.5,103.9,198.5,103.9z"/>
			<path class="st7" d="M198.5,104.2C198.6,104.2,198.5,104.4,198.5,104.2z"/>
			<path class="st7" d="M225,104.3c0,0.2-0.5,0.3-0.5,0.2C224.7,104.3,224.9,104.3,225,104.3z"/>
			<path class="st7" d="M225.5,104.4c0,0-0.1,0.1-0.2,0.1C225.3,104.8,225.1,104.4,225.5,104.4z"/>
			<path class="st7" d="M223.2,105C223.2,105,223.3,105,223.2,105z"/>
			<path class="st7" d="M198.7,105c0,0,0.1,0.1,0,0.1c0,0,0,0,0,0C198.6,105.2,198.7,105.1,198.7,105z"/>
			<path class="st7" d="M223.2,105.2C223.1,105.4,223,105.2,223.2,105.2z"/>
			<path class="st7" d="M198.7,105.3C198.7,105.3,198.7,105.4,198.7,105.3z"/>
			<path class="st7" d="M222.7,105.4c0.1,0-0.1,0.1-0.1,0.2C222.6,105.5,222.7,105.5,222.7,105.4z"/>
			<path class="st7" d="M223,105.5C223,105.5,223.1,105.4,223,105.5z"/>
			<path class="st7" d="M221.7,105.7C221.7,105.7,221.7,105.7,221.7,105.7C221.7,105.7,221.7,105.7,221.7,105.7z"/>
			<path class="st7" d="M221.7,105.7C221.7,105.7,221.7,105.7,221.7,105.7C221.7,105.7,221.7,105.7,221.7,105.7z"/>
			<path class="st7" d="M198.6,105.7C198.6,105.7,198.6,105.7,198.6,105.7C198.6,105.7,198.6,105.7,198.6,105.7z"/>
			<path class="st7" d="M217.7,106.1C217.7,106.2,217.7,106.1,217.7,106.1z"/>
			<path class="st7" d="M216.7,106.3c0,0.1-0.2,0.1-0.2,0C216.6,106.3,216.7,106.3,216.7,106.3z"/>
			<path class="st7" d="M216.1,106.3c-0.1,0.1-0.9,0.3-0.9,0.1C215.5,106.4,215.8,106.3,216.1,106.3z"/>
			<path class="st7" d="M198.8,106.4c0.2,0,0,0.6,0,0.7c0,0-0.1-0.3-0.1-0.3C198.8,106.8,198.7,106.7,198.8,106.4z"/>
			<path class="st7" d="M213.6,106.5c0.2,0.1-0.2,0.1-0.3,0.1C213.3,106.5,213.5,106.6,213.6,106.5z"/>
			<path class="st7" d="M211.9,106.7C211.9,106.8,212.1,106.8,211.9,106.7C211.9,106.8,211.9,106.8,211.9,106.7z"/>
			<path class="st7" d="M209.6,106.9C209.6,107,209.4,106.9,209.6,106.9z"/>
			<path class="st7" d="M211.6,106.9C211.6,106.9,211.6,106.9,211.6,106.9C211.6,106.9,211.6,106.9,211.6,106.9z"/>
			<path class="st7" d="M209.4,106.9c0,0.1,0.1,0.1,0.1,0.1C209.5,107.2,209.1,106.9,209.4,106.9z"/>
			<path class="st7" d="M198.8,107.1c0,0,0,0.4,0,0.4c0,0,0-0.1,0-0.1c0.1,0,0.1,0.2,0.1,0.4c-0.2,0-0.1,0-0.2,0
				C198.7,107.5,198.8,107.3,198.8,107.1z"/>
			<path class="st7" d="M199.1,108.5c0,0,0.1,0.1,0,0.1C199,108.6,199,108.6,199.1,108.5z"/>
			<path class="st7" d="M198.9,108.6C199,108.6,198.9,108.7,198.9,108.6z"/>
			<path class="st7" d="M199.1,108.7C199.1,108.7,199.1,108.7,199.1,108.7z"/>
			<path class="st7" d="M198.9,108.8C199,108.8,198.9,109.1,198.9,108.8z"/>
			<path class="st7" d="M199.1,108.9C199,108.9,199.1,108.8,199.1,108.9z"/>
		</g>
		<g>
			<path class="st7" d="M206.6,89.1c-0.1,0-0.2,0-0.2,0.1c0,0.1,0.2,0,0.2,0c0,0.2-0.8,0-0.8,0.2c1.1-0.3,2.4-0.6,3.6-0.9
				c0.7-0.2,1.2-0.9,1.9-0.5c0.8,0.4,0.7,1.5,0.1,2.2c-0.3,0.4-0.4,0.4-0.7,0.8c-0.2,0.3-0.4,0.8-0.7,1.1c-0.3,0.3-0.8,0.3-1.1,0.5
				c-0.4,0.2-0.6,0.6-1.1,0.8c-0.2,0.1-0.3,0.1-0.5,0.1c0,0,0.1-0.1,0.1-0.1c0,0.3-3,0.5-3.2,0.5c-0.3,0.1-0.8,0.2-1.1,0.4
				c0-0.1-2,0-2.1,0c-0.4,0-0.8,0.1-1.3,0.1c-0.3,0-0.8-0.2-1.1-0.3c-0.2,0-1.6-0.3-1.5-0.4c-0.3,0.2-0.7-0.1-1.2,0.2
				c-0.5,0.2-0.8,0.5-1.2,0.3c-0.2-0.1-1.7-0.6-1.6-1c0.5-0.2,0-1.5,0-2.1c0.1-0.7,0.2-1.4,0.2-2.2c0-0.9,0-1.6-0.3-2.5
				c-0.3-0.7-0.1-1.1-0.1-1.9c0-0.9-0.2-2-0.3-2.8c-0.1-1.1,0.1-2.1,0.1-3.2c0-1.2,0.4-1.8,1.1-2.5c0.1-0.1,0.3-0.2,0.4-0.2
				c0.1-0.1,0.4-0.4,0.5-0.5c0.4-0.1,1.5,0.6,1.8,0.9c0.8,0.5,1.4,1,2,1.7c0.5,0.6,0.8,1.4,1.2,2.1c0.1,0.2,0.2,0.2,0.2,0.5
				c0.4,0,0.2,0.7,0.2,0.9c0,0.1,0.1,0.5,0.2,0.5c0,0.1-0.3,0.4-0.4,0.6c0,0,0.1,0,0.1,0c0.1,0,0,0.2,0,0.2c0.2,0,0-0.2,0.2-0.2
				c0.1,1,0.1,1.8,0.2,2.9c0.1,0.9,0.3,1.7,0.2,2.8c0,0.3-0.3,1.3-0.2,1.5c0.1,0.2,1.1,0,1.5-0.1c0.8-0.1,1.7-0.2,2.5-0.3
				C204.6,89.4,206.6,89.2,206.6,89.1z M200,82.8C199.9,82.7,200.1,82.9,200,82.8z M204.1,89.5C204.1,89.5,204.1,89.5,204.1,89.5z
				 M204.8,89.4C204.8,89.4,204.8,89.4,204.8,89.4C204.8,89.4,204.8,89.4,204.8,89.4z"/>
			<path class="st7" d="M200.2,81.9C200.2,81.9,200.2,82,200.2,81.9z"/>
			<path class="st7" d="M209.6,88.2c0,0,0.5-0.1,0.5-0.1c0,0.2-0.7,0.3-0.8,0.4c0,0,0.1,0,0.1,0c-0.1,0.2-1.3,0.4-1.4,0.4
				c0-0.1,0,0,0-0.1c-0.1-0.1,0.9-0.2,0.9-0.2C208.9,88.5,209.4,88.2,209.6,88.2z M209.3,88.4C209.3,88.4,209.2,88.6,209.3,88.4z"/>
			<path class="st7" d="M206.6,89.1c0.4,0,1-0.3,1.3-0.3c0,0.1,0,0.1,0,0.1C207.8,88.9,206.6,89.2,206.6,89.1z"/>
			<path class="st7" d="M207.4,89C207.4,89.2,207.2,89.1,207.4,89z"/>
			<path class="st7" d="M193.9,94C193.9,94,193.8,94.1,193.9,94z"/>
			<path class="st7" d="M207.2,93.6c0,0.1-0.6,0.2-0.6,0.3C206.6,93.8,207.1,93.7,207.2,93.6z"/>
		</g>
	</g>
</g>
</svg>
