<?xml version="1.0" encoding="utf-8"?>
<!-- Generator: Adobe Illustrator 22.0.1, SVG Export Plug-In . SVG Version: 6.00 Build 0)  -->
<svg version="1.1" id="레이어_1" xmlns="http://www.w3.org/2000/svg" xmlns:xlink="http://www.w3.org/1999/xlink" x="0px"
	 y="0px" viewBox="0 0 226.8 85" style="enable-background:new 0 0 226.8 85;" xml:space="preserve">
<style type="text/css">
	.st0{fill:#009565;}
	.st1{fill:#51BA95;}
	.st2{fill-rule:evenodd;clip-rule:evenodd;fill:#B60005;}
	.st3{fill:none;}
	.st4{fill:#B60005;}
	.st5{fill-rule:evenodd;clip-rule:evenodd;}
	.st6{fill:none;stroke:#FFE100;stroke-width:1.1934;stroke-linecap:round;stroke-miterlimit:10;}
	.st7{fill:#FFE100;}
</style>
<path class="st0" d="M136.5,72.9c-5.3-4.4-4-11.1-4-11.1s6.3-2.6,11.7,1.7c5.3,4.4,7.6,14.1,7.6,14.1S141.8,77.3,136.5,72.9z"/>
<path class="st1" d="M135.5,64.4c0,0,7.9,4.1,14,11.7c0,0-3.8-6.9-13.1-12.3L135.5,64.4z"/>
<path class="st0" d="M107.2,74.4c3.6-3,2.7-7.6,2.7-7.6s-4.3-1.8-7.9,1.2c-3.6,3-5.2,9.6-5.2,9.6S103.6,77.4,107.2,74.4z"/>
<path class="st1" d="M107.9,68.6c0,0-5.4,2.8-9.5,7.9c0,0,2.6-4.7,8.9-8.4L107.9,68.6z"/>
<path class="st0" d="M147.4,35.9c-4.8,2.5-9.3-0.6-9.3-0.6s0.1-5.4,4.9-7.9c4.8-2.5,12.6-1.1,12.6-1.1S152.2,33.4,147.4,35.9z"/>
<path class="st1" d="M140.9,34c0,0,5.4-4.4,12.9-6.5c0,0-6.2,0.6-13.1,5.6L140.9,34z"/>
<g>
	<path class="st2" d="M83.5,76.6c-0.1-1.6,1.5-3.1,1.9-4.7c-0.7-0.4-0.7,0.5-1,1c-0.5,0-0.6,0.8-1,1c-1.1,2.3-1.7,4.1-2.8,6.4
		c-0.5,0.5-1.3,0.5-1.7,1.2c-0.5-0.3-0.8-0.1-1.2,0c-0.8-0.1-0.5-0.6-1.1-0.8c-0.6,0.1-0.1,0.9-0.5,1.4c-1.6-0.5-3-0.9-4.1-0.5
		c-0.6-0.2-0.9-0.1-1.6-0.5c-0.6-0.3-0.6,0.3-1.2,0c-0.5-0.4-0.7-0.9-1.3-1.4c-0.5-0.4-0.8-0.8-1.1-1.3c-0.7-0.2-0.8-0.6-1.5-0.8
		c-0.3-0.5-0.7-1-1.1-1.5c-0.8-0.3-0.7-0.2-1.4-0.6c-0.4-1.3,0.4-2.2,0.4-3.7c0.5-0.2,0.8,0.6,1.3,0.4c0.7-0.5,1-1.7,1.7-2.1
		c0-0.4,0-0.9-0.2-1.3c0.5-0.4,1-1,1.4-1.7c0.1-0.2,0-0.5,0.1-0.8c0.2-0.5,0.9-0.6,0.5-1.4c0.2-0.5,0.7-0.5,1-1
		c0.5-0.4-0.6-0.4-0.4-0.7c0.9-0.9,0.8-2.2,2-2.8c0.8-3.7,3.1-6,4.6-9.6c0.4-0.8,1.4-1.3,1.3-2.4c0.3-0.2,0.7-0.2,0.9-0.6
		c0.3-0.8,0.5-1.5,0.8-2.3c0.4-0.4,0.6-1,0.9-1.4c0.5-0.7,1.1-1,1.5-2.4c1.3-1,2.2-3,3.1-5c0-0.9-1.1,0.1-1-0.5
		c0.3-1.4,1.2-0.3,1.9-0.2c1.2-2.5,2.8-4.1,4-6.7c0.2-0.8,0-1.6,0.2-2.5c0.9-1.2,1.4-3.1,2.4-4.1c0.5-0.7-0.4-0.9,0.1-1.6
		c0.7-0.3,1.2-1.3,1.7-2.1c0.1-1.3-1.5-1.2-2.3-1.4c-0.9-0.1-2-0.8-2.7-0.4c-1.9-0.6-3.6-0.3-5,0.2c-1.6-0.7-2.5,0.2-3.9-0.2
		c-1.5,0.1-4.1,0.8-5.6,0.7c-0.5,0.4-1.3,0.4-1.9,0.8c-0.3,4-1.6,8.2-0.1,11.3c-0.7,1.4-0.2,2.6-0.9,3.6c0.1,0.9-0.3,1.9,0.1,2.6
		c-1,0.8-0.7,2.1-1.1,3.5c-0.3,0.4-1-0.1-1.4,0.2c-0.4,0.1-0.8,0.2-1.2,0.3c-0.7-0.5-1.5-1-2.4-1.4c-0.2-0.4-0.5-0.9-1.2-1.2
		c-1.7-3-3-6.3-4.9-9.4c-0.2-0.9-0.1-1.9-0.4-2.8c0.5-0.8,0.3-1.8,0.8-3c0-0.8-0.4-1.5-0.5-2.3c0.1-0.7,0.6-0.7,0.6-1.5
		c0.1-1.8,0.7-3.7,0.3-5.3c0.8-0.3,1-1.9,1-2.9c0.2-0.6-0.9-0.8-1.1-1.3c0.5-1.7,0.4-3.2-0.3-4.4c0.2-1.3,1.5-0.1,1.4-1.8
		c1,0,1.8-0.4,2.5-1.1c1,0.7,1.4,0.2,2-0.1c0.7,0.5,1.2,0.5,1.8,0.6c0.6-0.1,1.3,0.1,1.7-0.2C70,2.6,71.5,2.8,73.1,3
		c1.5,0.2,4.4,0.6,5.7,0.2c1.8,1.2,2.7,0.3,4.4,1.5c0.7,0.2,1.4,0.2,2-0.1c1.9,0.9,3.7,1.2,5.4,1.4c4,1.6,7.6,2.5,11.8,4.7
		c0.8,0.7,1.4,1.4,2.7,1.9c3.9,3.2,3.8,7.9,4.7,12.1c-0.3,0.7-0.4,1.3,0,1.7c-0.6,0.6-0.2,1.3-0.3,1.8c-0.3,1.7-0.7,3.1-0.6,4.7
		c-0.8,1.2-0.5,2.7-1.5,3.5c-0.2,2.1-0.8,4.3-1.4,6.5c-1.5,2.3-2.6,5.2-4.2,7.1c-0.4,0.5,0.1,0.7-0.3,1.1c-2.1,2.4-4.3,4.3-5.9,7.3
		c-1.7,2.1-3.3,4.2-4.6,6.9c-1.5,0.7-2.3,3-3.5,4.1C86.2,72.2,84.8,74.5,83.5,76.6z M86.6,70c-0.4-0.2-0.6,0.1-0.8,0.4
		C86.2,70.6,86.5,70.4,86.6,70z M86.7,69.2c-0.1,0.2-0.1,0.4,0.2,0.5c0.5-0.2,1.2-1.4,1-2.1C87.6,68.1,87.1,68.6,86.7,69.2z"/>
	<path class="st2" d="M65,68.6c0.5,0.5,0.6,1.4,0,1.9c-0.2-0.1-0.3-0.2-0.5-0.2C64.3,69.9,64.7,68.8,65,68.6z"/>
	<path class="st2" d="M65.7,67.7c-0.2-0.1-0.1-0.3-0.1-0.4C65.8,67.4,65.7,67.6,65.7,67.7z"/>
	<path class="st2" d="M68,61.4c0.2-0.5,0.4-0.9,1-0.5C68.8,61.4,68.6,61.8,68,61.4z"/>
	<path class="st2" d="M69.5,59.4c0.1-0.2,0.1-0.3,0.2-0.5c0.1,0.1,0.2,0.1,0.4,0.2c-0.1,0.2-0.1,0.3-0.2,0.5
		C69.8,59.5,69.7,59.4,69.5,59.4z"/>
	<path class="st2" d="M70.2,57.4c0-0.1,0.1-0.2,0.1-0.3c0.1,0.1,0.2,0,0.2-0.1c0.1,0.1,0.2,0.1,0.4,0.2c-0.1,0.1,0,0.2,0.1,0.2
		c0,0.1-0.1,0.2-0.1,0.3c-0.1-0.1-0.2,0-0.2,0.1c-0.1-0.1-0.2-0.1-0.4-0.2C70.4,57.5,70.3,57.5,70.2,57.4z"/>
	<path class="st2" d="M79,43.5C78.9,43.4,79,43.2,79,43C79.2,43.1,79,43.3,79,43.5z"/>
	<path class="st2" d="M84.4,34.6c-0.2-0.2-0.1-0.5,0.1-0.4C84.8,34.4,84.4,34.3,84.4,34.6z"/>
	<path class="st2" d="M86.1,32.3c-0.2-0.1,0-0.2,0.1-0.2C86.4,32.2,86.2,32.3,86.1,32.3z"/>
</g>
<path class="st3" d="M130.2,45.6c-0.5-0.3-0.7-0.9-1.1-1.4c-0.6-0.3-1.1-0.7-1.6-1.1c-0.2,0.1-0.3,0.1-0.4,0.3
	c-1.4,0.7-2.3,1.9-3.6,2.8c-1.6,0.8-3.3,1.6-4.8,2.5c-0.6,0.6-1.5,0.9-2.1,1.5c-0.8,0.4-1.4,1.2-2.2,1.5c-1.1,1.3-2.5,2.3-3.2,3.9
	c0.2,0.9,1,1.3,1.5,1.8c0.7,0.4,1,1.2,1.9,1.4c0.6,0.5,1.4,0.8,1.9,1.4c1.1,0,1.5,0.9,2.5,1c1,0.1,2.2-0.7,3.5-0.3
	c1-0.6,2.2-1.1,3.5-1.4c0.6-0.6,1.4-0.9,1.9-1.4c0.2-0.2,0.1-0.7,0.6-0.6c1.2-0.9,2.3-1.9,2.9-3.5c0-1.6,0.3-3.2,0.1-4.6
	C131.2,48,130.5,46.9,130.2,45.6z"/>
<path class="st3" d="M76.4,85.3c0.6,0.3,0.9,0,1-0.6C76.8,84.4,76.6,84.9,76.4,85.3z"/>
<path class="st3" d="M85.8,82.5c0,0.2-0.1,0.5,0.3,0.5c0.6-0.3,1.4-1.7,1.1-2.5C86.7,81.2,86.2,81.8,85.8,82.5z"/>
<path class="st4" d="M149,46.3c0.2-1.8,0-4,0.5-5.5c-0.2-0.5-0.5-1-0.5-1.8c-1-1.1-1.8-2.4-3.1-3.2c-0.2-0.5-0.6-0.8-0.8-1.2
	c-0.3-1-1-1.6-1.3-2.7c-1-0.3-1.4-1.2-1.4-2.5c-0.6-0.6-0.8-1.6-1.3-2.3c-0.1-0.2-0.3-0.2-0.4-0.4c-0.2-0.3-0.5-0.6-0.6-0.9
	c-0.6-0.2-1.1-0.5-1.4-1.1c-0.7-0.2-1.2-0.5-1.6-0.9c-1.1-0.1-1.7-0.7-2.8-0.8c-0.4-0.1-0.3-0.5-0.8-0.5c-2.4-0.2-4.6,0.1-6.7-0.4
	c-0.9-0.1-1.6,0.3-2.4,0c-0.6,0.3-0.8,1-1.5,1.3c-0.3,0-0.6,0-0.9,0c-0.5,0.7-1.1,1.3-1.6,2c-0.4,0.2-0.7,0.7-1.2,0.8
	c-0.1,0.5-0.5,0.7-0.9,0.9c0,0.7-0.6,0.7-0.7,1.3c-0.4,0.1-0.6,0.5-0.9,0.7c-0.1,0.5-0.8,0.4-0.8,0.9c0.4,0.3,0.8-0.3,1.1-0.5
	c0.3-0.4,0.9-0.5,0.9-1.1c0.7,0,1.1-1,1.6-0.7c-0.5,0.8-1.3,1.3-2,2c-0.3,0.4-0.8,0.6-1.1,0.9c-0.4,0.3-0.6,0.8-1.2,0.8
	c-0.2-0.4,0.4-0.9-0.1-0.8c-0.5,0-0.7,0.4-1.1,0.5c-0.1,0.5-0.8,0.4-0.8,0.9c0.7,0.1,1.1-1,1.5-0.1c-0.2,0.6-0.9,0.8-1.4,1.2
	c-0.8,0.6-1.8,1.4-2.5,1.9c-0.3,0.2-0.5,0.4-0.8,0.5c-0.2,1-0.2,2.6-0.9,3.2c-0.1,2.8-1.3,3.7-2,6.6c-1.7,3.1-4,7-5.8,9.6
	c-0.4,0.6,0.2,0.9-0.3,1.5c-1,1.3-2.1,2.6-3.1,3.9c0.1,0.5,1.6,2.4,1.4,2.9c0.5,0.2,0.8,0.5,1.2,0.7c1.1,1.9,2.5,3.4,4.2,4.7
	c0.2,0.8,0.9,1.1,1.2,1.8c2.3,0.9,3.8,2.7,6.2,3.5c0.8,1,2.2,1.2,3,2.2c1.2,0.1,1.8,0.7,2.8,1c1.6-0.3,3.2,0.2,4.6-0.3
	c1.1-1.1,2.7-1.7,4.1-2.4c1.1-1.1,2.3-2.1,3.5-3.1c0.4-0.6,0.8-1.2,1.4-1.6c1.1-0.6,1.9-1.4,2.8-2.2c1.4-0.7,2.3-2,3.6-2.8
	c1.3-0.1,1.9-1.1,3.1-1.4c0.1-0.4,0.3-0.7,0.7-0.7c0.2-0.9,0.9-1.2,1.2-1.9c0.7-0.1,0.8-0.7,1.4-1c0.2-0.9,0.7-1.4,0.9-2.3
	c0.7-0.7,1.4-1.5,1.6-2.7c0.7-1.4,1.8-2.4,1.8-4.4c0.1-0.3,0.3-0.4,0.3-0.7c-0.1-0.9,0.2-1.4,0.2-2.1
	C149.3,47.2,149.2,46.7,149,46.3z M120.2,27.3c0.1,0.1-0.1,0.2-0.1,0.1C120,27.3,120.2,27.2,120.2,27.3z M131.3,54.1
	c-0.5,1.6-1.7,2.6-2.9,3.5c-0.4-0.1-0.4,0.4-0.6,0.6c-0.5,0.5-1.3,0.8-1.9,1.4c-1.3,0.4-2.5,0.8-3.5,1.4c-1.3-0.4-2.4,0.4-3.5,0.3
	c-1-0.1-1.5-1-2.5-1c-0.5-0.6-1.4-0.9-1.9-1.4c-0.9-0.2-1.2-1-1.9-1.4c-0.5-0.6-1.3-0.9-1.5-1.8c0.8-1.6,2.1-2.7,3.2-3.9
	c0.9-0.4,1.4-1.1,2.2-1.5c0.6-0.6,1.5-0.9,2.1-1.5c1.5-0.9,3.2-1.7,4.8-2.5c1.3-0.8,2.1-2.1,3.6-2.8c0.1-0.1,0.2-0.2,0.4-0.3
	c0.5,0.4,1.1,0.8,1.6,1.1c0.4,0.5,0.6,1.1,1.1,1.4c0.4,1.2,1.1,2.4,1.3,3.9C131.6,50.9,131.4,52.5,131.3,54.1z"/>
<g>
	<path class="st5" d="M55.9,46.1c0,0-0.3,0.4-0.3,0.5C56,46.7,55.9,46.2,55.9,46.1c0,0,0.1,0,0.1,0c-0.1,0,0.1,0.5,0.1,0.5
		c-0.3,0-0.6,1.8-0.8,2.1c0,0,0.2,0,0.2,0c0.2,1-1.2,3.4-1.9,4.2c-0.8,1-0.7,0.7,0.2,1.7c0.5,0.6,0.9,1.2,1.2,2c1,2.7,0.5,5.2-0.4,8
		c-0.4,1.2-0.7,2.7-1.3,3.6c-0.3,0.6-0.8,1.5-1.5,1.7c-1,0.4-0.9-0.2-1.6-0.2c-0.7,0-1.3,0.4-2,0.4c-0.8,0-1.4-0.4-2.2-0.2
		c-1.5,0.4-2.9,1-4.5,1.3c-2.5,0.5-7.2,1.2-5.8-2.6c0.1-0.2-0.2-0.4,0.3-0.3c0-0.1-0.2-0.2-0.2-0.2c0-0.1,0.4,0,0.3-0.2
		c-0.2,0,0.1,0.1-0.2,0c0.1-0.2,0.6-0.3,0.6-0.4c0-0.5,1.1-0.6,1.1-0.6c-0.2,0-0.3,0.2-0.5,0.1c0,0-0.1,0.1-0.1,0.1
		c0,0.4,0.8-0.3,0.8-0.3c0,0.3,3.7-0.9,3.6-0.7c0.1,0,0.6-0.2,0.6-0.2c0-0.1-0.4,0.1-0.4,0.1c0-0.3,0.8-0.2,1-0.2c0-0.3,1.5-1,2.1-1
		c0-0.1,2-1.7,2.2-2c0.7-1.1,0.8-1.7,1.1-2.9c0.1-0.6,0.3-0.9,0.3-1.5c-0.1,0-0.1,0-0.2,0.1c0-1.5-0.3-1.8-1.8-1.8
		c-0.9,0-1.9,0.1-2.7,0.3c-1.1,0.4-1.3,1.2-2.4,0.3c-0.6-0.5-1.2-2-1.2-2.8c0-0.3,1.1-2.7,1.3-2.7c0,0.1-0.2,0.5,0,0.5
		c0.3,0,1.5-1.3,1.5-1.3c0.3,0,1.3-0.3,1.3-0.6c0,0-0.1,0-0.1,0c-0.1-0.3,2.5-1.7,2.7-1.9c1.1-0.8,1.5-1.4,1.9-2.7
		c0.1-0.4,0.1-1.1,0.3-1.4c-0.2,0-0.2,0-0.2-0.2c-2.5,0-4,2.2-6.5,2.3c-2.3,0.1-4.5-1.6-5.7-3.3c-0.7-1-1.1-1.8-1.9-2.7
		c-0.9-1.1-1.6-1.7-0.4-2.7c1-0.8,2.1-0.4,3.4-0.7c1.1-0.2,2.2-0.6,3.3-0.8c2.5-0.4,5.4-0.6,7.8-0.3c0.3,0,0.6,0,0.9,0.1
		c0,0.3,0.8,0.2,0.7,0.1c0,0-0.2,0-0.2,0c0-0.6,3.5,1.9,3.8,2.2c0.7,0.8,1.5,2,1.9,3.3c0.3,0.8,0.5,2.1,0.6,2.1
		c0,0.1-0.2,0.4-0.2,0.5c0,0.1,0.2,0,0.2,0c-0.1,0.4-0.4,0.6-0.3,1.1c0.1,0,0.1-0.2,0.2-0.2C56.4,45.6,55.9,45.8,55.9,46.1z
		 M55.2,48.7C55.2,48.9,55.4,48.7,55.2,48.7z M40.5,53.4C40.5,53.7,40.7,53.4,40.5,53.4z M41.3,66.1C41.2,66.2,41.4,66,41.3,66.1z
		 M53.7,66.6C53.9,66.6,53.7,66.5,53.7,66.6z M37.9,67.1C37.6,67,37.9,67.3,37.9,67.1z M37.5,67.2C37.5,67.2,37.4,67.2,37.5,67.2
		C37.4,67.2,37.5,67.2,37.5,67.2z"/>
	<path class="st5" d="M45.8,36C45.6,36.2,45.8,35.8,45.8,36z"/>
	<path class="st5" d="M50.1,36C50.1,36,50.1,36.2,50.1,36z"/>
	<path class="st5" d="M48.2,46.7C48.2,47,47.8,46.7,48.2,46.7z"/>
	<path class="st5" d="M54,53c0,0.2-0.2,0.3-0.4,0.3C53.7,53.2,53.8,53,54,53z"/>
	<path class="st5" d="M42.5,65.8C42.4,65.8,42.5,65.6,42.5,65.8z"/>
	<path class="st5" d="M41,65.9C41.1,65.9,41,66,41,65.9z"/>
	<path class="st5" d="M40.9,65.9C40.9,66,40.7,65.9,40.9,65.9z"/>
	<path class="st5" d="M39.5,66.2c0,0.1-0.1,0.3-0.3,0.3C39.3,66.3,39.4,66.2,39.5,66.2z"/>
	<path class="st5" d="M40,66.3C40.1,66.3,40,66.4,40,66.3z"/>
	<path class="st5" d="M38.8,66.4c0,0.4-0.2,0-0.3,0.1C38.5,66.4,38.7,66.4,38.8,66.4z"/>
	<path class="st5" d="M38.8,66.4C38.9,66.4,38.8,66.5,38.8,66.4z"/>
	<path class="st5" d="M38.4,66.6C38.4,66.6,38.4,66.7,38.4,66.6z"/>
	<path class="st5" d="M39.2,66.6C39.2,66.7,39,66.6,39.2,66.6z"/>
	<path class="st5" d="M38.5,66.7C38.5,66.9,38.2,66.7,38.5,66.7z"/>
	<path class="st5" d="M37.9,66.7C37.9,66.7,37.8,66.8,37.9,66.7z"/>
	<path class="st5" d="M37.4,66.8C37.4,66.8,37.4,67,37.4,66.8z"/>
</g>
<g>
	<path class="st5" d="M11.6,33.5c0.2,0.6,1,0.9,1.3,1.6c0.4,0.7,0.4,1.6,0.3,2.4c-0.2,1.8-0.6,3.1-1.3,4.6c-0.8,2.1-1.3,4.1-1.7,6.2
		c-0.2,0.8-0.5,2-1,2.9c-0.4,0.7-0.9,1.1-1.1,1.8c-0.4,1.5,1.2,0.9,2.5,0.8c1.1-0.1,1.9,0.2,1.9-0.9c0.3,0.1,0.2-0.2,0.2-0.5
		c-0.1,0,0,0.1-0.1,0.1c0-1,1-2.5,0.7-3.9c-0.1,0-0.1,0.4-0.3,0.4c0,0,0-0.1,0-0.1c0.8-1.9,1.3-4.2,1.9-6c0.4-1.3,1.4-5.1,3.3-4.3
		c1.6,0.6,1.9,4.4,2.2,5.9c0.4,2.1-0.5,4.3,0,6.4c0.7,2.7,3.3,0.2,5,0.8c1.7,0.7,3.7,2.2,1.8,4c-0.6,0.6-1.5,1.2-2.4,1.3
		c-1.1,0.1-1.8-0.3-2.2,0.9c-0.7,1.9-0.3,4.6,0.1,6.4c0.2,1,0.7,1.4,0.4,2.5c-0.3,1-1.1,1.8-2.1,2.5c-1.3,0.9-3,1.2-4.1,1.8
		c-0.5,0.3-0.7,0.9-1.5,0.5c0,0.1,0.4,0.1,0.3,0.2c-0.6,0-2.3-1-2.3-1.4c0.1,0,0.3,0.3,0.4,0.4c0,0,0,0,0,0c0-0.3-0.9-1.1-1.1-1.4
		c-0.4-0.7-0.3-1.4-0.4-2.1c-0.2-1.3-0.2-2.6-0.3-4.1c0-0.4-0.2-2.9,0.3-2.9c0-0.1-0.5-1.2,0.2-1.2c0,0.1,0.1,1-0.2,1
		c0,0,0,0.1,0,0.1c0,0,0.1,0,0.1,0.1c0.2-0.1,0.1-0.3,0.2-0.3c0,0.2-0.4,3.9,0,3.9c0.5,0,0-2.8,0.3-2.8c0-0.2,0.2-0.1,0.2-0.2
		c0,0.2,0.3-1.7,0.2-1.7c-0.3,0.1-0.2,0.6-0.1,0.8c0,0-0.2-0.1-0.2,0c-0.2,0,0-0.9,0-1.1c-0.6,0-0.9-0.5-1.9-0.6
		c-0.7,0-1.4,0.1-2.1,0.2c-1.6,0.2-3.2-0.1-4.7-0.4c-1.2-0.3-2.9-1-3.7-2.1c-0.2-0.3-0.6-0.7-0.6-1.4c0-1,0.6-0.9,1-1.4
		c0.6-0.8,1.4-3.3,2-3.3c0-0.8,1-2.2,1.3-3.2c0.2-0.5,1.5-2.5,1.4-2.8c0.3-1.2,1-3.3,1.4-4.8c0.4-1.4,0.5-3.5,1.3-4.7
		C9.7,33.3,10.6,33.4,11.6,33.5z M6.4,43.5C6.5,43.5,6.4,43.4,6.4,43.5z M13.6,48.5C13.5,48.6,13.7,48.4,13.6,48.5z M13.2,50.8
		C13.2,51.1,13.2,50.8,13.2,50.8z M13.6,60.4C13.6,60.5,13.7,60.5,13.6,60.4z M13.6,60.7C13.4,60.6,13.7,60.8,13.6,60.7z M13.5,61.7
		C13.5,61.9,13.3,61.7,13.5,61.7z M13.4,61.9C13.4,61.9,13.4,61.9,13.4,61.9C13.4,61.9,13.4,61.9,13.4,61.9z M20.4,69.7
		C20.5,69.7,20.4,69.6,20.4,69.7z"/>
	<path class="st5" d="M13,48.8C13,48.7,13,48.7,13,48.8C13,48.7,13,48.8,13,48.8z"/>
	<path class="st5" d="M13.1,49.6C13.1,50,12.9,49.6,13.1,49.6z"/>
	<path class="st5" d="M13.2,50.5C13.1,50.5,13.1,50.5,13.2,50.5z"/>
	<path class="st5" d="M12.8,52.8C12.8,52.8,12.8,52.8,12.8,52.8z"/>
	<path class="st5" d="M12.6,53C12.6,53,12.5,53.2,12.6,53z"/>
	<path class="st5" d="M12.5,58.5c0,0,0,0.8-0.2,0.7C12.3,58.9,12.5,58.8,12.5,58.5z"/>
	<path class="st5" d="M12.8,58.9C13,58.9,12.8,59,12.8,58.9z"/>
	<path class="st5" d="M13.1,59.2C13.3,59.2,13.1,59.4,13.1,59.2z"/>
	<path class="st5" d="M12.4,59.4C12.5,59.4,12.4,59.8,12.4,59.4z"/>
	<path class="st5" d="M13.8,59.5C13.8,59.5,13.8,59.5,13.8,59.5C13.8,59.5,13.8,59.5,13.8,59.5z"/>
	<path class="st5" d="M13.4,60.1C13.5,60.1,13.4,60.2,13.4,60.1z"/>
</g>
<path class="st2" d="M34.9,51.9c1.9,0,2.6,3.2,2.2,4.5c-0.1,0.5-1,1.4-1,1.6c0,0.1,0.2,0,0.3,0c0,0.1-0.8,0.4-0.8,0.6
	c0,0.2,0.6,0,0.6,0.1c0,0.2-2.8,0.2-3,0.1c-0.7-0.2-1.6-0.7-2.1-1.2c-1.7-1.6-0.2-2.8,1.1-4.1c1-1,1.5-1.3,2.7-1.4
	C34.8,51.9,34.9,51.7,34.9,51.9z M37,54.1C37.1,54.1,37,54.1,37,54.1z M35.1,55.9c0,0.5-1.1,0.6-0.1,1C35,56.7,35.8,56,35.1,55.9z"
	/>
<path class="st6" d="M114.1,44c0,0,5.5,7.2,7.4,11.6"/>
<path class="st6" d="M123,39.9c0,0,1.1,9,2.9,13.5"/>
<path class="st7" d="M115.9,43.6c0.2,1-0.4,1.9-1.4,2.1c-1,0.2-1.9-0.4-2.1-1.4c-0.2-1,0.4-1.9,1.4-2.1
	C114.7,42.1,115.7,42.7,115.9,43.6z"/>
<path class="st7" d="M124.7,39.5c0.2,1-0.4,1.9-1.4,2.1c-1,0.2-1.9-0.4-2.1-1.4c-0.2-1,0.4-1.9,1.4-2.1
	C123.6,37.9,124.5,38.5,124.7,39.5z"/>
<path class="st7" d="M120.1,40.9c0.2,1-0.4,1.9-1.4,2.1c-1,0.2-1.9-0.4-2.1-1.4c-0.2-1,0.4-1.9,1.4-2.1
	C118.9,39.3,119.9,39.9,120.1,40.9z"/>
<line class="st6" x1="118.3" y1="41.3" x2="123.9" y2="55.2"/>
<g>
	<g>
		<path class="st2" d="M176,37.6c0.5,0,1.7,1.9,1.8,2.3c0.4,1.6-0.7,2.3-2.2,2.7c-0.4,0.1-1.7,0-1.7,1c0,0,4.4,0.7,4.8,0.9
			c0.5,0.2,0.9,0.3,1.4,0.4c0,0-0.1-0.1-0.1-0.1c0,0,0.1,0,0.1,0c0.2,0.8,3.2,1.6,3.7,2.4c0.6,0.9,0.8,2.9-0.6,3.3
			c-0.6,0.2-1.7-0.2-2.2-0.3c-0.8-0.1-1.3-0.2-1.9-0.4c-1.5-0.6-2.7-1.1-4.2-1.8c-0.8-0.4-1.6-0.9-2.4-1.1c-1.3-0.4-1.1,0.1-2,0.6
			c-0.2,0.1-0.2,0.4-0.5,0.4c0.1-0.6,0.6-0.7,0.8-1.3c-0.4,0-0.6,0.9-0.9,0.8c0-0.1,0.4-0.6,0.4-0.6c0.1,0.6-3.7,3.4-4.2,3.8
			c-0.2,0.2-1.8,1.6-1.5,1.7c0.8,0.3,2.4-2.5,3.2-2.4c-0.6,1-2.1,1.7-2.8,2.3c-0.8,0.8-1.2,2.2-1.9,2.7c-1.1,0.8-0.8,0-1.8-0.3
			c-0.2-0.2-0.7,0.2-1.1-0.4c-0.5-0.7-0.6-1.2-0.4-1.9c0.1-0.3,0.6-0.4,0.6-0.7c-0.1,0-0.4,0.2-0.4,0.2c0.3-0.7,2.9-2,3.2-2.2
			c1.2-0.8,1.8-1.6,2.2-2.9c0.3-1.1,0.4-2.1-0.9-2.7c-1.4-0.6-2.6-0.7-4-1.8c-0.9-0.8-1.6-1.7-2.6-2.4c-0.8-0.5-2.4-2.3-1.5-3.2
			c1-1,2.9-0.6,4.1-0.6c1.5,0.1,3.2-0.2,4.7-0.2c1.8-0.1,3.5-0.1,5.2-0.2c1.7-0.1,3.1-0.1,4.5,0.9C175.3,36.8,176.1,37.3,176,37.6z
			 M170.6,46.7C170.6,46.6,170.6,46.8,170.6,46.7z M182.3,50.3C182.3,50.3,182.3,50.3,182.3,50.3C182.3,50.3,182.3,50.3,182.3,50.3z
			 M162.4,50.5C162.3,50.5,162.4,50.5,162.4,50.5z M162.1,50.7C162.1,50.8,162.2,50.7,162.1,50.7z"/>
		<path class="st2" d="M170,47.5C170,47.5,170,47.7,170,47.5z"/>
		<path class="st2" d="M170.1,48C170.1,48.1,170,47.9,170.1,48z"/>
		<path class="st2" d="M170,48.1c0,0.1-0.2,0.2-0.3,0.2C169.7,48.3,170,48.1,170,48.1z"/>
		<path class="st2" d="M169.7,48.4C169.7,48.4,169.7,48.4,169.7,48.4C169.7,48.4,169.7,48.4,169.7,48.4z"/>
		<path class="st2" d="M169,49.1C169,49.1,169,49.1,169,49.1C169,49.1,169,49.1,169,49.1z"/>
		<path class="st2" d="M168.7,49.2C168.7,49.2,168.8,49.2,168.7,49.2C168.8,49.2,168.7,49.2,168.7,49.2z"/>
		<path class="st2" d="M168.8,49.2C168.9,49.2,168.8,49.3,168.8,49.2z"/>
		<path class="st2" d="M168.6,49.4C168.6,49.5,168.6,49.5,168.6,49.4C168.7,49.5,168.6,49.5,168.6,49.4z"/>
		<path class="st2" d="M168.6,49.5C168.6,49.6,168.5,49.5,168.6,49.5z"/>
		<path class="st2" d="M168.2,49.7C168.3,49.8,168,50,168.2,49.7z"/>
		<path class="st2" d="M168.1,49.9C168.1,50,167.8,49.9,168.1,49.9z"/>
		<path class="st2" d="M162,50.5C162,50.5,162,50.4,162,50.5C162,50.5,162,50.5,162,50.5z"/>
		<path class="st2" d="M160.7,51.5C160.6,51.4,160.6,51.6,160.7,51.5z"/>
		<path class="st2" d="M160.5,51.6C160.5,51.6,160.5,51.6,160.5,51.6z"/>
		<path class="st2" d="M160.1,52.1C160.1,52.1,160,52.1,160.1,52.1z"/>
	</g>
	<g>
		<path class="st2" d="M219.2,31.2c0.7,0.2,1.5,1.3,1.7,2c0.1,0.5-0.1,1.2-0.1,1.6c0,0.7,0.2,0.8,0.4,1.4c0.4,0.9,0.5,2,0.7,3
			c0.2,1.2,0.7,1.9,0.8,3.1c0.1,1.3-0.1,2.5,0,3.5c0,0.1-0.1,0.2-0.1,0.4c0.5,0-0.2,1.9-0.2,2.3c0,0.8,0.5,1.5,0.5,2.3
			c0.1,1.5-0.4,3.9-0.9,5.1c-0.1,0.3-0.5,0.9-0.6,1.1c-0.3,0.5-0.1,0.6-0.7,0.9c-0.6,0.3-1.7,0.3-2.4,0.5c-2.2,0.9-1.6-1.2-1.6-2.8
			c0-1.6,0.2-2.6,0.5-4.3c0.1-0.5,0.2-1.6,0.2-2.2c0.1-1.1,0.2-1.3-0.9-0.8c-0.6,0.3-1.2,0.9-2.1,0.9c-0.9,0.1-1.6-0.5-2.6-0.5
			c-1.9-0.1-3.9,0.6-5.3-0.8c-1-1-1.8-2.6-0.8-3.7c0.7-0.7,3.9-0.4,5.2-0.3c0.2,0,1.2,0,1.2,0.1c-0.2,0-2-0.2-2,0
			c0,0.1,3.2,0.3,3.4,0.3c0-0.1-1.1-0.3-1.3-0.3c0.2,1,3.4-0.6,3.9-0.9c0.2-0.1,0.8-1,0.8-0.9c0.3-0.1,0.2-1.3,0.3-1.5
			c1.2-0.3,0.1-2.9,0.1-4.1c-0.1-1.5-0.1-3.3,0.2-4.8C218,30.6,218.2,31.2,219.2,31.2z M217.2,42.4
			C217.2,42.5,217.2,42.5,217.2,42.4z M217.2,42.6C217.2,42.6,217.2,42.6,217.2,42.6z M210.6,44.1C210.6,44.1,210.6,44.1,210.6,44.1
			z M222.5,44.7C222.4,44.7,222.6,44.7,222.5,44.7z M222.7,44.9C222.7,44.8,222.6,44.9,222.7,44.9z M222.5,45.8
			C222.5,46,222.6,45.8,222.5,45.8z M217.6,48.2C217.6,48.1,217.6,48.3,217.6,48.2z"/>
		<path class="st2" d="M214.1,36.7c0,0.1-0.5,0-0.5,0.1c0,0,0,0,0,0c0,0,1.5-0.1,1.5-0.2c0,0.1,1.8,0,2.1,0.3c0.6,0.5,0.1,2-0.5,2.4
			c-0.7,0.5-2,0.4-2.8,0.6c-0.9,0.2-1.5,0.6-2.3,1c-1.3,0.7-3.1,1.7-4.5,0.7c-1-0.7-1.9-3.7-0.4-4.3c0.6-0.3,2.2-0.1,2.8-0.1
			c0.6,0,1.7-0.1,2.6-0.2c0.2,0,0.4-0.1,0.6-0.1c0,0-0.1,0.1-0.1,0.1c0,0,0,0,0,0C212.8,37.1,213.6,36.6,214.1,36.7z M213.4,36.8
			C213.4,36.8,213.4,36.8,213.4,36.8C213.4,36.8,213.4,36.8,213.4,36.8z M213.5,36.8C213.5,36.8,213.5,36.8,213.5,36.8
			C213.5,36.8,213.5,36.8,213.5,36.8z M211.7,37.2C211.7,37.1,211.7,37.2,211.7,37.2z"/>
		<path class="st2" d="M214.2,44.4C214.2,44.4,214.2,44.4,214.2,44.4C214.3,44.4,214.2,44.4,214.2,44.4z"/>
		<path class="st2" d="M217.4,48.4C217.5,48.5,217.4,48.5,217.4,48.4z"/>
		<path class="st2" d="M217.4,48.9c-0.1,0.2-0.2,1.1-0.2,1.4C217,50.2,217.1,48.8,217.4,48.9z"/>
		<path class="st2" d="M217.2,50.5C217.2,50.5,217.1,50.5,217.2,50.5z"/>
		<path class="st2" d="M217.2,50.7C217.2,50.7,217.2,50.7,217.2,50.7z"/>
		<path class="st2" d="M217.2,51.7C217.2,51.7,217.2,51.7,217.2,51.7C217.2,51.7,217.2,51.7,217.2,51.7z"/>
	</g>
	<g>
		<path class="st2" d="M157.2,55.8c1.2,0.2,2.2,1.1,3.3,1.4c1.4,0.4,2.8,0.6,4.3,0.9c2.5,0.5,5.3,0.4,7.8,0.4c2.4,0,4.9-0.1,7.4-0.7
			c1.5-0.3,6.5-1.9,6.8,0.6c0.1,0.5-0.4,1.4-0.4,1.4c-0.2,0.4,0.5,0.6-0.8,0.8c-1.5,0.2-2.3,0-3.7,0.5c-1.3,0.5-3.1,0.2-4.4,0.3
			c-1.7,0.1-1.3,0.8-1.3,1.9c0,2.2,0,4.3,0,6.6c0,2.6-1.3,3.9-3.7,5.2c-0.8,0.5-2,0.9-3-0.2c-1-1.1,0.2-2.2,0.2-3.3
			c0.1-1.3-0.4-2.6-0.6-3.8c-0.2-1.2-0.2-2.5-0.4-4c0-0.2-0.2-1.9-0.4-1.8c-0.4,0.4-2.3-0.4-2.9-0.5c-1.3-0.1-2.6,0.3-3.8,0.3
			c-2.5,0.1-4.1-1.5-5.1-3.7c-0.2-0.4-0.4-1-0.3-1.5C156.2,55.7,156.8,55.9,157.2,55.8z M175.5,58.3
			C175.4,58.3,175.6,58.3,175.5,58.3z M173.9,58.4C174,58.4,173.9,58.3,173.9,58.4z M177.7,60.6c0,0-0.2,0-0.2,0.1
			C177.6,60.7,177.9,60.6,177.7,60.6z M177.9,60.7C178,60.7,177.9,60.6,177.9,60.7z M176.6,60.7C176.6,60.8,176.6,60.7,176.6,60.7z
			 M176.5,60.8C176.6,60.8,176.5,60.7,176.5,60.8z M177.6,61.1C177.8,61.1,177.6,61,177.6,61.1z"/>
	</g>
	<g>
		<path class="st2" d="M196.5,59.6c2,0.3,2.7,1,3,2.9c0.2,1,0.6,1.7,0.8,2.6c0.2,0.7-0.1,2,0.2,2.5c0.4,0.5,2.5,0.3,3.2,0.4
			c0,0.1-0.1,0-0.1,0.1c0,0,0.2,0,0.2,0c0,0,0.1,0,0.1,0c0,0-0.1,0-0.2,0c0-0.1,0.8,0,0.8,0c0,0-0.1,0-0.1,0c0-0.1,2,0.1,2.1-0.1
			c0-0.1-1.1,0-1.2,0c0-0.3,1.4,0,1.4,0c0-0.1-0.2-0.1-0.2-0.1c0.1-0.2,0.8,0,0.7,0.1c-0.1-0.1-0.5-0.1-0.5,0.1c0.3-0.1,0.7,0,1,0
			c0-0.1,0-0.1-0.1-0.1c0.1-0.2,2.6-0.4,2.8-0.4c0,0.2,1.9,0.1,1.9-0.1c0,0-0.1,0-0.1-0.1c0.2,0,0.5-0.1,0.7-0.1
			c0,0.1-0.1,0.1-0.1,0.1c0,0,0,0,0,0c1.1,0,2.6-0.8,3.6-1.1c1.1-0.4,2.2-0.8,3.2-1.2c1.1-0.4,2.2-0.7,3.4-0.9
			c0.9-0.2,2.4-0.5,2.9,0.8c0.2,0.7-0.3,2.4-0.6,3.1c-0.4,1-1.2,1.6-2.3,2.1c-1.4,0.5-2.7,0.8-4.1,1.1c-1.3,0.3-2.6,1-4,1.3
			c-1.2,0.3-2.5,0.5-3.8,0.5c-1.4,0-3.3-0.3-4.3-0.4c-0.4,0-0.4,0.1-0.8,0.1c0,0-0.1,0-0.1,0c0-0.1,0.1-0.1,0.1-0.2
			c-1.4-0.3-3.5,0.3-4.9,0.4c-1.6,0.2-3.1-0.1-4.3-0.4c-0.6-0.1-0.7-0.1-1.1-0.4c-0.2-0.2-0.5-1-0.6-1c0,0.1-0.1-1.1-0.1-1.1
			c0,0.3,0.1,0.5,0.1,0.7c0,0,0,0,0,0c0.2,0,0-0.3,0-0.4c0.1,0,0.1,0,0.1-0.1c0.1,0,0.1,0,0.1,0.1c0,0,0.2-0.3,0.2-0.4
			c-0.1-0.1-0.1,0-0.2,0c-0.3-0.1-0.4-3.6-0.4-3.6c0-0.3-0.1-0.7-0.1-1.1c-0.2,0,0,0.5-0.2,0.5c0-0.1-0.1-1.1,0-1.1
			c0,0.1,0.1,0.6,0.1,0.6c0-0.1,0.1-0.9,0-0.9c-0.1,0-0.1,0.2-0.1,0.1c-0.2-0.2-1-3.9-0.7-4.2c0.1-0.1,0.4-0.1,0.5-0.1
			C194.6,58.6,195.6,59.9,196.5,59.6z M194.8,64.1C194.8,64.4,194.8,63.9,194.8,64.1z M194.8,64.3C194.9,64.3,194.8,64.2,194.8,64.3
			z M218.6,65.9c-0.1,0.3-0.6,0.3-0.6,0.1c-0.1,0-1.4,0.4-1.4,0.4c0.1,0,0.4-0.1,0.5,0c-0.1,0-2.9,1-2.9,1c0.1,0.3,2.7-0.9,2.9-0.9
			c0,0,0,0.1,0,0.1c-0.1-0.1-0.5,0.3-0.7,0.3c0,0,0,0,0,0c0,0,0,0,0,0c0.2,0.1,2.2-0.6,2.2-0.6c0,0-0.1,0-0.1,0
			c-0.1-0.2,0.5-0.1,0.5-0.1c0-0.1,0-0.2,0.1-0.2c0,0.1-0.1,0-0.1,0.1c0-0.2,0.8-0.1,0.9-0.1c0-0.1-0.2,0-0.2-0.1c0,0,0,0,0,0
			c0.6-0.5,2.5-0.4,2.7-1c-0.3,0.1-0.7-0.2-1.1-0.1c-0.5,0.1-1,0.2-1.5,0.4c-0.3,0.1-0.7,0.4-0.8,0.3c0-0.1-0.1,0.3-0.1,0.1
			c0.1,0,0.1,0,0.1,0c0,0.1,0,0.1-0.1,0.1C218.9,65.8,218.5,65.8,218.6,65.9z M194.9,65.3C194.9,65.2,194.9,65.3,194.9,65.3z
			 M221.8,65.3C221.9,65.3,221.8,65.2,221.8,65.3z M221.7,65.3C221.8,65.3,221.7,65.3,221.7,65.3z M221.6,65.4
			C221.8,65.4,221.6,65.3,221.6,65.4z M219.2,65.4C219.2,65.5,219.1,65.4,219.2,65.4z M221.4,65.4C221.4,65.4,221.3,65.4,221.4,65.4
			z M219.1,65.4C219.1,65.4,219.1,65.4,219.1,65.4C219,65.4,219.1,65.4,219.1,65.4z M218.9,66.3C218.9,66.3,218.8,66.3,218.9,66.3
			C218.9,66.3,218.9,66.3,218.9,66.3z M218.5,66.3C218.5,66.3,218.5,66.3,218.5,66.3C218.5,66.3,218.5,66.3,218.5,66.3z M214.6,66.9
			c-0.1,0-0.3,0.1-0.3,0.1C214.3,67,215,66.9,214.6,66.9z M212.8,67.2C212.5,67.2,212.6,67.2,212.8,67.2z M212.6,67.2
			C212.4,67.2,212.5,67.3,212.6,67.2z M214,67.3C214.1,67.4,214.1,67.4,214,67.3z M214,67.4C213.8,67.4,214,67.4,214,67.4z
			 M210.1,67.4C210.2,67.4,210,67.4,210.1,67.4z M208.6,67.7C208.3,67.7,208.7,67.7,208.6,67.7z M208.3,67.7
			C208.3,67.7,208.3,67.7,208.3,67.7z M204.7,67.9C204.6,68,204.7,67.9,204.7,67.9z M195.5,70.5C195.6,70.5,195.5,70.5,195.5,70.5z
			 M195.5,70.6C195.5,70.7,195.6,70.6,195.5,70.6z M195.3,70.8C195.4,70.8,195.3,70.7,195.3,70.8z M195.5,70.9
			C195.5,70.9,195.5,70.8,195.5,70.9C195.5,70.8,195.5,70.9,195.5,70.9z M195.3,70.9C195.3,70.8,195.3,70.9,195.3,70.9z M195.8,71.9
			c0,0,0.4,0.3,0.4,0.1C196.1,72,195.8,71.9,195.8,71.9z"/>
		<path class="st2" d="M194.8,64.6C194.8,64.6,194.8,64.6,194.8,64.6z"/>
		<path class="st2" d="M194.7,64.8C194.7,64.7,194.7,64.8,194.7,64.8z"/>
		<path class="st2" d="M221.7,64.8C221.7,65,221.5,64.8,221.7,64.8z"/>
		<path class="st2" d="M194.7,64.8C194.8,64.8,194.7,65.2,194.7,64.8z"/>
		<path class="st2" d="M194.7,65.1C194.7,65.1,194.7,65.3,194.7,65.1z"/>
		<path class="st2" d="M220.3,65.2c0,0.2-0.3,0.3-0.5,0.2c0,0,0,0,0,0c0,0,0,0,0,0C220,65.3,220.2,65.2,220.3,65.2z"/>
		<path class="st2" d="M220.8,65.3c0,0.1-0.3,0.3-0.2,0.3c0,0-0.1-0.1-0.1-0.1C220.5,65.4,220.6,65.3,220.8,65.3z"/>
		<path class="st2" d="M218.6,65.9C218.6,65.9,218.6,65.9,218.6,65.9z"/>
		<path class="st2" d="M194.8,65.9C194.9,66,194.8,66.2,194.8,65.9z"/>
		<path class="st2" d="M218.5,66.1C218.5,66.3,218.3,66.1,218.5,66.1z"/>
		<path class="st2" d="M194.9,66.2C194.9,66.2,194.8,66.3,194.9,66.2z"/>
		<path class="st2" d="M218.1,66.3C218,66.3,218.1,66.6,218.1,66.3z"/>
		<path class="st2" d="M218.4,66.4C218.4,66.4,218.4,66.3,218.4,66.4z"/>
		<path class="st2" d="M217.1,66.6C217.1,66.5,217.1,66.5,217.1,66.6C217.1,66.5,217.1,66.6,217.1,66.6z"/>
		<path class="st2" d="M217.1,66.6C217.1,66.6,217.1,66.6,217.1,66.6C217.1,66.6,217.1,66.6,217.1,66.6z"/>
		<path class="st2" d="M194.8,66.6C194.8,66.6,194.8,66.6,194.8,66.6C194.8,66.6,194.8,66.6,194.8,66.6z"/>
		<path class="st2" d="M213.3,67C213.2,67.1,213.2,67,213.3,67z"/>
		<path class="st2" d="M212.3,67.2C212.2,67.3,211.9,67,212.3,67.2z"/>
		<path class="st2" d="M211.7,67.2c-0.1,0.1-0.9,0.3-0.9,0.1C211.1,67.2,211.4,67.2,211.7,67.2z"/>
		<path class="st2" d="M194.9,67.3c0.1,0,0.1,0.5,0.1,0.6c-0.1,0-0.1,0-0.1,0.1C194.8,67.9,194.9,67.5,194.9,67.3z"/>
		<path class="st2" d="M209.2,67.4c0.2,0-0.2,0.1-0.2,0.1C208.9,67.5,209.2,67.4,209.2,67.4z"/>
		<path class="st2" d="M207.7,67.6C207.6,67.6,207.7,67.8,207.7,67.6z"/>
		<path class="st2" d="M205.4,67.7C205.4,67.8,205.2,67.7,205.4,67.7z"/>
		<path class="st2" d="M207.3,67.8C207.3,67.8,207.3,67.7,207.3,67.8C207.3,67.8,207.3,67.8,207.3,67.8z"/>
		<path class="st2" d="M205.2,67.8C205.1,67.9,205.3,67.8,205.2,67.8z"/>
		<path class="st2" d="M195,67.9c0,0,0,0.4,0,0.4c0,0,0,0,0,0c0,0,0-0.1,0.1-0.1c0,0.1,0.1,0.2,0.1,0.4c-0.1,0-0.1-0.1-0.1,0
			C194.8,68.6,195,68,195,67.9z"/>
		<path class="st2" d="M195.2,69.3C195.3,69.3,195.2,69.6,195.2,69.3z"/>
		<path class="st2" d="M195,69.4C195.1,69.4,195,69.5,195,69.4z"/>
		<path class="st2" d="M195.2,69.5C195.2,69.4,195.3,69.5,195.2,69.5z"/>
		<path class="st2" d="M195,69.6C195.1,69.6,195,69.9,195,69.6z"/>
		<path class="st2" d="M195.3,69.7C195.1,69.6,195.3,69.6,195.3,69.7z"/>
	</g>
	<g>
		<path class="st2" d="M202.5,50.5c-0.1,0.1-0.2,0-0.2,0.2c0,0,0.1,0,0.2,0c0,0.1-0.7,0.2-0.7,0.2c0,0,0,0,0,0.1
			c1.2-0.3,2.7-0.5,3.7-1c0.3-0.1,0.3-0.2,0.5-0.4c0.3-0.1,1.2,0,1.4,0.3c0.3,0.5,0.1,1.2-0.2,1.7c-0.3,0.5-0.6,0.9-1,1.3
			c-0.4,0.5-0.7,0.7-1.2,1.1c-0.5,0.4-1.1,0.7-1.7,1c-0.1,0.1-0.2,0-0.3,0.1c0,0,0.1-0.1,0.1-0.1c0,0.2-4.2,0.8-4.3,0.8
			c-1,0.1-1.6,0.1-2.5,0.1c-1,0-2.1-0.6-3.2-0.7c-0.3,0-4.3,1-3.9-0.5c0.2-0.1,0.3-3.5,0.3-4.2c0-1.6-0.4-2.8-0.5-4.2
			c0-2-0.3-3.8-0.1-5.9c0.1-1.1,0.4-1.6,1.2-2.3c0.9-0.8,1.5-0.5,2.6,0.3c1.4,0.9,2.2,1.9,3,3.5c0.1,0.2,0.3,0.3,0.2,0.5
			c0.7,0,0,1.8,0,2c0,0,0.1-0.1,0.2,0.2c0.1,0,0-0.2,0.2-0.2c0.1,1.8,0.6,3.6,0.4,5.5c-0.2,1.4-0.3,1.5,1.2,1.3
			c0.7-0.1,1.6-0.2,2.4-0.3C200.6,50.8,202.5,50.6,202.5,50.5z M196.1,44.5C196,44.4,196.2,44.5,196.1,44.5z M200.1,51
			C200.1,50.9,200.1,50.9,200.1,51z M200.8,50.8C200.8,50.8,200.7,50.9,200.8,50.8C200.8,50.9,200.8,50.8,200.8,50.8z"/>
		<path class="st2" d="M196.3,43.6C196.3,43.6,196.3,43.7,196.3,43.6z"/>
		<path class="st2" d="M205.4,49.6c0,0,0.5-0.1,0.5-0.1c0,0.1-0.9,0.4-0.7,0.4c-0.1,0.2-1.3,0.4-1.4,0.4c0-0.1,0,0,0-0.1
			C203.8,50.3,205.2,49.7,205.4,49.6z M205.1,49.9C205.1,49.8,205.1,50,205.1,49.9z"/>
		<path class="st2" d="M202.5,50.5c0.4,0,0.9-0.2,1.3-0.3c0,0,0,0.1,0,0.1c0,0,0,0,0,0.1C203.7,50.3,202.5,50.7,202.5,50.5z"/>
		<path class="st2" d="M203.3,50.5C203.3,50.6,203.1,50.5,203.3,50.5z"/>
		<path class="st2" d="M190.3,55.3C190.3,55.3,190.2,55.4,190.3,55.3z"/>
		<path class="st2" d="M203.1,54.9c0,0.1-0.5,0.3-0.6,0.2c0,0,0,0,0,0C202.5,55.1,203,54.9,203.1,54.9z"/>
	</g>
</g>
</svg>
