<?xml version="1.0" encoding="utf-8"?>
<!-- Generator: Adobe Illustrator 22.0.1, SVG Export Plug-In . SVG Version: 6.00 Build 0)  -->
<svg version="1.1" id="레이어_1" xmlns="http://www.w3.org/2000/svg" xmlns:xlink="http://www.w3.org/1999/xlink" x="0px"
	 y="0px" viewBox="0 0 566.9 96.4" style="enable-background:new 0 0 566.9 96.4;" xml:space="preserve">
<style type="text/css">
	.st0{fill:#009565;}
	.st1{fill:#51BA95;}
	.st2{fill-rule:evenodd;clip-rule:evenodd;fill:#B60005;}
	.st3{fill:none;}
	.st4{fill:#B60005;}
	.st5{fill-rule:evenodd;clip-rule:evenodd;}
	.st6{fill:none;stroke:#FFE100;stroke-width:1.1934;stroke-linecap:round;stroke-miterlimit:10;}
	.st7{fill:#FFE100;}
</style>
<path class="st0" d="M139.2,71.8c-5.3-4.4-4-11.1-4-11.1s6.3-2.6,11.7,1.7c5.3,4.4,7.6,14.1,7.6,14.1S144.5,76.2,139.2,71.8z"/>
<path class="st1" d="M138.2,63.3c0,0,7.9,4.1,14,11.7c0,0-3.8-6.9-13.1-12.3L138.2,63.3z"/>
<path class="st0" d="M110,73.4c3.6-3,2.7-7.6,2.7-7.6s-4.3-1.8-7.9,1.2c-3.6,3-5.2,9.6-5.2,9.6S106.3,76.3,110,73.4z"/>
<path class="st1" d="M110.6,67.6c0,0-5.4,2.8-9.5,7.9c0,0,2.6-4.7,8.9-8.4L110.6,67.6z"/>
<path class="st0" d="M150.1,34.8c-4.8,2.5-9.3-0.6-9.3-0.6s0.1-5.4,4.9-7.9c4.8-2.5,12.6-1.1,12.6-1.1S155,32.3,150.1,34.8z"/>
<path class="st1" d="M143.6,32.9c0,0,5.4-4.4,12.9-6.5c0,0-6.2,0.6-13.1,5.6L143.6,32.9z"/>
<g>
	<path class="st2" d="M86.2,75.6c-0.1-1.6,1.5-3.1,1.9-4.7c-0.7-0.4-0.7,0.5-1,1c-0.5,0-0.6,0.8-1,1c-1.1,2.3-1.7,4.1-2.8,6.4
		c-0.5,0.5-1.3,0.5-1.7,1.2c-0.5-0.3-0.8-0.1-1.2,0c-0.8-0.1-0.5-0.6-1.1-0.8c-0.6,0.1-0.1,0.9-0.5,1.4c-1.6-0.5-3-0.9-4.1-0.5
		c-0.6-0.2-0.9-0.1-1.6-0.5c-0.6-0.3-0.6,0.3-1.2,0c-0.5-0.4-0.7-0.9-1.3-1.4c-0.5-0.4-0.8-0.8-1.1-1.3c-0.7-0.2-0.8-0.6-1.5-0.8
		c-0.3-0.5-0.7-1-1.1-1.5c-0.8-0.3-0.7-0.2-1.4-0.6c-0.4-1.3,0.4-2.2,0.4-3.7c0.5-0.2,0.8,0.6,1.3,0.4c0.7-0.5,1-1.7,1.7-2.1
		c0-0.4,0-0.9-0.2-1.3c0.5-0.4,1-1,1.4-1.7c0.1-0.2,0-0.5,0.1-0.8c0.2-0.5,0.9-0.6,0.5-1.4c0.2-0.5,0.7-0.5,1-1
		c0.5-0.4-0.6-0.4-0.4-0.7c0.9-0.9,0.8-2.2,2-2.8c0.8-3.7,3.1-6,4.6-9.6c0.4-0.8,1.4-1.3,1.3-2.4c0.3-0.2,0.7-0.2,0.9-0.6
		c0.3-0.8,0.5-1.5,0.8-2.3c0.4-0.4,0.6-1,0.9-1.4c0.5-0.7,1.1-1,1.5-2.4c1.3-1,2.2-3,3.1-5c0-0.9-1.1,0.1-1-0.5
		c0.3-1.4,1.2-0.3,1.9-0.2c1.2-2.5,2.8-4.1,4-6.7c0.2-0.8,0-1.6,0.2-2.5c0.9-1.2,1.4-3.1,2.4-4.1c0.5-0.7-0.4-0.9,0.1-1.6
		c0.7-0.3,1.2-1.3,1.7-2.1c0.1-1.3-1.5-1.2-2.3-1.4c-0.9-0.1-2-0.8-2.7-0.4c-1.9-0.6-3.6-0.3-5,0.2c-1.6-0.7-2.5,0.2-3.9-0.2
		c-1.5,0.1-4.1,0.8-5.6,0.7c-0.5,0.4-1.3,0.4-1.9,0.8c-0.3,4-1.6,8.2-0.1,11.3c-0.7,1.4-0.2,2.6-0.9,3.6c0.1,0.9-0.3,1.9,0.1,2.6
		c-1,0.8-0.7,2.1-1.1,3.5c-0.3,0.4-1-0.1-1.4,0.2c-0.4,0.1-0.8,0.2-1.2,0.3c-0.7-0.5-1.5-1-2.4-1.4c-0.2-0.4-0.5-0.9-1.2-1.2
		c-1.7-3-3-6.3-4.9-9.4c-0.2-0.9-0.1-1.9-0.4-2.8c0.5-0.8,0.3-1.8,0.8-3c0-0.8-0.4-1.5-0.5-2.3c0.1-0.7,0.6-0.7,0.6-1.5
		c0.1-1.8,0.7-3.7,0.3-5.3c0.8-0.3,1-1.9,1-2.9c0.2-0.6-0.9-0.8-1.1-1.3c0.5-1.7,0.4-3.2-0.3-4.4c0.2-1.3,1.5-0.1,1.4-1.8
		c1,0,1.8-0.4,2.5-1.1c1,0.7,1.4,0.2,2-0.1c0.7,0.5,1.2,0.5,1.8,0.6c0.6-0.1,1.3,0.1,1.7-0.2c1.5,0.4,3.1,0.6,4.6,0.8
		c1.5,0.2,4.4,0.6,5.7,0.2c1.8,1.2,2.7,0.3,4.4,1.5c0.7,0.2,1.4,0.2,2-0.1c1.9,0.9,3.7,1.2,5.4,1.4c4,1.6,7.6,2.5,11.8,4.7
		c0.8,0.7,1.4,1.4,2.7,1.9c3.9,3.2,3.8,7.9,4.7,12.1c-0.3,0.7-0.4,1.3,0,1.7c-0.6,0.6-0.2,1.3-0.3,1.8c-0.3,1.7-0.7,3.1-0.6,4.7
		c-0.8,1.2-0.5,2.7-1.5,3.5c-0.2,2.1-0.8,4.3-1.4,6.5c-1.5,2.3-2.6,5.2-4.2,7.1c-0.4,0.5,0.1,0.7-0.3,1.1c-2.1,2.4-4.3,4.3-5.9,7.3
		c-1.7,2.1-3.3,4.2-4.6,6.9c-1.5,0.7-2.3,3-3.5,4.1C89,71.1,87.6,73.4,86.2,75.6z M89.3,68.9c-0.4-0.2-0.6,0.1-0.8,0.4
		C89,69.5,89.2,69.3,89.3,68.9z M89.5,68.1c-0.1,0.2-0.1,0.4,0.2,0.5c0.5-0.2,1.2-1.4,1-2.1C90.3,67,89.9,67.5,89.5,68.1z"/>
	<path class="st2" d="M67.8,67.6c0.5,0.5,0.6,1.4,0,1.9c-0.2-0.1-0.3-0.2-0.5-0.2C67.1,68.8,67.4,67.7,67.8,67.6z"/>
	<path class="st2" d="M68.5,66.7c-0.2-0.1-0.1-0.3-0.1-0.4C68.6,66.3,68.5,66.5,68.5,66.7z"/>
	<path class="st2" d="M70.8,60.4c0.2-0.5,0.4-0.9,1-0.5C71.6,60.3,71.4,60.7,70.8,60.4z"/>
	<path class="st2" d="M72.3,58.3c0.1-0.2,0.1-0.3,0.2-0.5c0.1,0.1,0.2,0.1,0.4,0.2c-0.1,0.2-0.1,0.3-0.2,0.5
		C72.5,58.4,72.4,58.3,72.3,58.3z"/>
	<path class="st2" d="M72.9,56.3c0-0.1,0.1-0.2,0.1-0.3c0.1,0.1,0.2,0,0.2-0.1c0.1,0.1,0.2,0.1,0.4,0.2c-0.1,0.1,0,0.2,0.1,0.2
		c0,0.1-0.1,0.2-0.1,0.3c-0.1-0.1-0.2,0-0.2,0.1c-0.1-0.1-0.2-0.1-0.4-0.2C73.2,56.4,73.1,56.4,72.9,56.3z"/>
	<path class="st2" d="M81.8,42.4c-0.2-0.1-0.1-0.3-0.1-0.4C81.9,42,81.8,42.2,81.8,42.4z"/>
	<path class="st2" d="M87.1,33.5c-0.2-0.2-0.1-0.5,0.1-0.4C87.5,33.3,87.2,33.3,87.1,33.5z"/>
	<path class="st2" d="M88.9,31.2c-0.2-0.1,0-0.2,0.1-0.2C89.1,31.1,89,31.2,88.9,31.2z"/>
</g>
<g>
	<path d="M341.6,58.8l-12.1-9.5c-1.2,1.7-2.6,3.2-4.9,5.3c-2,1.8-5.9,4.4-8.7,5.8l-0.5-0.7c2.6-1.8,6.1-4.8,8.2-7.8
		c2.6-3.6,3.2-5.2,3.6-6.8c0.8-2,0.4-2.7-0.9-3.5h-0.4c-3.9,0.1-3.2,0.2-5.1,0.8c-1.3-0.7-3.5-1.8-4.8-2.7l0.5-0.9
		c1.5,0.6,3.4,1,6.6,0.9c3.3-0.1,2.2,0.1,4.7,0c2.3-0.1,4.6-0.2,5.4-0.3c1.4-0.1,3.7-0.5,4.7-1.3l4.8,1.1l-0.4,2.4
		c-2.7-0.2-5.3-0.4-9-0.3c0,0-0.7-0.1-2.5,0.1l2.7,1.5c-0.5,1.2-1.8,3.5-2.6,4.7c1.4,1.2,2.9,2.2,4.8,3.2c1,0.4,2.4,0.8,3.4,0.7
		l4.4,5.5L341.6,58.8z M352.4,63.6c-0.7,7-2.8,8.7-2.8,8.7h-1.3V49.2c-1.7,0.1-2.8,0.3-2.8,0.3c-2,0.2-2.1,0.4-2.5,0.8
		c-1.3-0.4-1.7-0.4-2.9-1c-1.2-0.6-1.6-0.9-2.5-1.5l0.3-0.7c1.2,0.4,1,0.4,4.8,0.4c1.8,0,3.7-0.3,5.6-0.6v-7c0-2.8-2.3-4.5-4.1-4.7
		l0.4-1.3l7.9,1.7L352.4,63.6z M363.1,33.3c0,0.2-0.1,0.6-0.1,1c-0.1,2.7-0.1,10.5-0.1,23.1v6.6c-0.1,0.2-0.1,0.4-0.1,0.6
		c-0.7,7.2-2.7,9-2.7,9h-1.3l0-35.8c0-1.3-0.5-2.4-1.2-3.2c-0.1-0.1-0.2-0.3-0.3-0.4c-0.4-0.4-0.9-0.8-1.2-1
		c-0.2-0.1-0.4-0.1-0.5-0.2l-0.3-0.1h-0.1c-0.1,0-0.1,0-0.1-0.1c-0.1,0-0.2-0.1-0.4-0.1l0.4-1.3L363.1,33.3z"/>
	<path d="M398.2,67.6c-2.6-0.2-6.4-0.6-10-0.4c-0.9,0-1.6,0-2.5,0.1c-0.1,7.6-1.7,10-2,10.5h-2l-0.4-10.3c-0.9,0-1.4,0-1.9,0.1
		c-3.2,0.3-5.1,0.4-6.6,1.1c-1.5-0.9-4.2-2.2-5.5-3.4l0.4-0.9c1.5,0.5,3.4,0.9,6.7,0.7c3.3-0.1,4.4,0,7.3-0.1c3-0.1,6.8-0.3,7.6-0.3
		c2.1-0.1,2.7-0.4,3.7-1.1l5.6,1.3L398.2,67.6z M395.1,58.8L383,49.3c-1.2,1.7-2.6,3.2-4.9,5.3c-2,1.8-5.9,4.4-8.7,5.8l-0.5-0.7
		c2.6-1.8,6.1-4.8,8.2-7.8c2.6-3.6,3.2-5.2,3.6-6.8c0.8-2,0.4-2.7-0.9-3.5c-0.1,0-0.4,0-0.4,0c-3.9,0.1-3.2,0.2-5.1,0.8
		c-1.3-0.7-3.5-1.8-4.8-2.7l0.5-0.9c1.5,0.6,3.4,1,6.6,0.9c3.3-0.1,2.2,0.1,4.7,0c2.3-0.1,4.6-0.2,5.4-0.3c1.4-0.1,3.7-0.5,4.7-1.3
		l4.8,1.1l-0.4,2.4c-2.7-0.2-5.3-0.4-9-0.3c0,0-0.7-0.1-2.5,0.1l2.7,1.5c-0.5,1.2-1.8,3.5-2.6,4.7c1.4,1.2,2.9,2.2,4.8,3.2
		c1,0.4,2.4,0.8,3.4,0.7l4.4,5.5L395.1,58.8z"/>
	<path d="M424,38.1c-0.2,3-0.4,12-0.4,12c-0.2,7.8-2.4,7.8-2.4,7.8h-1.6v-1.9l-12.1,0.3c-0.5,1.6-1.3,2.7-1.8,2.7h-1.8l-0.4-14.4
		c-0.1-3.1-1.6-4.5-3.2-4.6l0.4-1.2l7.3,1.2c-0.1,0.6-0.2,2.9-0.2,5.8l11.9-0.2v-3.2c0-3.2-1.5-4.4-3.2-4.5l0.4-1.3L424,38.1z
		 M419.6,47.9l-11.7,0.2l-0.2,5.9l11.9-0.1L419.6,47.9z M424.8,96.2c-5.6,0-10.6-3.1-10.6-9.5c0-5,4.8-8.9,9-9.1
		c0.7-1.3-0.4-2.4-1.4-3l0.7-0.8l5.1,1.4c-0.1,0.4-0.6,1.3-1.2,2.4c5.8,1,8.9,4.6,8.9,9.1C435.2,92.6,430.2,96.2,424.8,96.2z
		 M424.8,80.2c-4,0-6.7,2.7-6.7,6.5c0,4.2,2.9,6.9,6.7,6.9c3.8,0,6.6-2.9,6.6-6.9C431.4,82.9,428.7,80.2,424.8,80.2z M445.4,51.9
		l-9.2,0v11.6c-0.3,8.1-2.9,10.2-2.9,10.2H432V37.8c0-2.9-2.4-4.6-4.3-4.8l0.4-1.3l8.1,1.8c-0.2,3.1-0.1,16.6-0.1,16.6
		c0.7,0,1.8-0.1,2.3-0.3c1.1-0.4,1.6-1,1.8-1.4l5.6,0.8L445.4,51.9z"/>
	<path d="M475.8,67.6c-2.6-0.2-6.4-0.6-10-0.4c-0.9,0-1.6,0-2.5,0.1c-0.1,7.6-1.7,10-2,10.5h-2L459,67.3c-0.9,0-1.4,0-1.9,0.1
		c-3.2,0.3-5.1,0.4-6.6,1.1c-1.5-0.9-4.3-2.2-5.5-3.4l0.4-0.9c1.5,0.5,3.4,0.9,6.7,0.7c3.3-0.1,4.4,0,7.3-0.1c3-0.1,6.8-0.3,7.6-0.3
		c2.1-0.1,2.7-0.4,3.7-1.1l5.6,1.3L475.8,67.6z M472.4,94.8l-14.7,0c-4-0.2-6.1-2.1-6.1-5.6l-0.1-6.6c-0.1-3.3-2.5-4.4-4.3-4.5
		l0.6-1.4l8.5,0.7c-0.2,2.7-0.1,13-0.1,13c0.1,2,1.5,2.4,2.9,2.4c0,0,4.1,0.2,5.4-0.2c0.8-0.3,1.5-0.9,1.8-1.4l6.5,0.8L472.4,94.8z
		 M472.4,41.1c-0.8,0.5-1.6,2.7-1.8,3.4c-1.3,7-1.2,8.1-1.5,9.4l2.6,1l-0.4,1.8l-16.6,0.4c-0.4,1.3-1.2,2-1.6,2h-1.2l-1.1-14.7
		c-0.1-3.3-1.6-4.4-3.4-4.5l0.5-1.5l6.6,0.6l0.4,0.7c1.9,0.1,4.5,0.1,7-0.2c3-0.3,4.3-0.4,5.3-1.4l5.6,1L472.4,41.1z M454.9,41.9
		l0.3,13.1c0,0,2.9,0.2,7.3-0.1c3.4-0.3,3.9-1.3,3.9-2.1l0.5-11.4L454.9,41.9z"/>
	<path d="M497,83.6c-1.8-0.2-4.4-0.5-6.9-0.4c-2.6,0.1-4.1,0.1-6,0.3c-2.2,0.2-3.5,0.3-4.5,0.8c-1.1-0.7-2.9-1.7-3.8-2.5l0.3-0.7
		c1,0.4,2.4,0.7,4.6,0.6c2.3-0.1,3,0,5-0.1c2.1-0.1,4.7-0.3,5.3-0.3c1.4-0.1,1.9-0.3,2.6-0.8l3.9,1L497,83.6z M486.6,76.3
		c-3.8,0-7.3-2.3-7.3-6.6c0-3.5,3.2-6,6.2-6.3c0.5-0.9-0.3-1.7-0.9-2.1l0.5-0.6l3.6,1c-0.1,0.3-0.5,0.9-0.9,1.6
		c3.8,0.7,6.1,3.1,6.1,6.3C493.8,73.9,490.4,76.3,486.6,76.3z M486.6,65.1c-2.9,0-4.8,2-4.8,4.7c0,2.9,2.2,4.8,4.8,4.8
		c2.6,0,4.7-2,4.7-4.8C491.3,66.8,489.1,65.1,486.6,65.1z M502.9,59.5c-0.1,1.6-0.1,4.4-0.1,4.4l-0.1,15c-0.1,7.2-2.1,8.4-2.1,8.4
		h-0.9V62.7c0-2-1.7-3.4-3.1-3.5l0.4-0.9L502.9,59.5z"/>
	<path d="M539.2,46.9c-3.3-0.3-6.3-0.5-10.7-0.4c-1.1,0-2.2,0-3.5,0.1l1.3,1.3l-1.8,2.1c4.3,0.6,8.9,3.2,8.9,8.1
		c0,5.1-4.6,8.1-10.2,8.1c-5.7,0-10-3.7-10-8.1c0-4.8,4.1-7.6,8.4-8.1c0.6-1,0-2.9-1.1-3.3c-0.4,0.1-0.8,0.1-1.3,0.1
		c-4.7,0.2-4.8,1.2-7,1.9c-1.8-0.9-4.3-3-5.8-4.2l0.6-1.1c1.8,0.7,4,1.2,7.8,1.1c4-0.1,4,0.1,7,0c2.7-0.1,5.5-0.2,6.5-0.4
		c1.6-0.1,4.4-0.6,5.6-1.5l5.7,1.3L539.2,46.9z M529.7,39.9c-1.9-0.4-2.4-0.4-5.3-0.5c-2.2-0.2-4.5,0.2-5.6,0.8
		c-1.5-0.9-3.7-2.4-5-3.5l0.6-0.7c2.2,0.7,2.5,0.9,7.4,0.9c2.4,0,6.7,0,8.9-0.5l1,1.1L529.7,39.9z M523.2,52.6c-3.3,0-6,2-6,5.7
		c0,2.5,2.5,5,6,5c3.7,0,6.2-2.1,6.2-5C529.4,54.4,526.6,52.6,523.2,52.6z M563.4,33.7c-0.3,4.3-0.3,36.9-0.3,36.9
		c-0.5,9-3.3,11.5-3.3,11.5h-1.7V56.2l-8,0.4l-0.2,12.8c-0.6,8.5-3.3,11.1-3.3,11.1h-1.7l0-38.9c0-3.4-2.6-5.3-4.6-5.6l0.5-1.6
		l9.2,2L550,54.2l8.1-0.4l0-14.6c0-3.5-3-5.8-5.1-6l0.6-1.6L563.4,33.7z"/>
</g>
<g>
	<path d="M257.1,60.7l-1.8,6.4l-15.1,0v-1.5c8-8.7,12.7-16,12.7-21c0-4.2-2.1-6.6-5-6.6c-2.1,0-4.1,2.1-5.8,5.2l-1.2-0.9
		c2.3-4.4,4.6-6.6,8.4-6.6c2.6,0,6.4,2.3,6.4,7.4c0,5.2-2,9-10,18.7c-0.6,0.8-1.5,1.8-2.1,2.6c5.6,0,4.8,0,8.2,0
		c1.3,0,1.9-0.5,2.6-1.3c0.7-0.9,1.1-1.8,1.5-2.8L257.1,60.7z"/>
	<path d="M265.9,67.5c-6.7,0-8.1-9.7-8.1-15.8c0-5.9,1.6-15.7,8.1-15.7c6.5,0,8.1,9.8,8.1,15.7C274,57.7,272.7,67.5,265.9,67.5z
		 M265.9,37.5c-4.2,0-5.5,7.8-5.5,14.3c0,7.6,1.5,14.3,5.5,14.3c4.1,0,5.6-6.7,5.5-14.3C271.3,45.2,270.1,37.5,265.9,37.5z"/>
	<path d="M288.6,67.2c0,0-3-0.1-5.2-0.1c-1.8,0-2.3,0.1-4.8,0.1v-1.5c0.5,0,0.8,0,1.1,0c1.8-0.2,2.7-1,2.7-2.8V42.6
		c0-1-0.2-1.8-1.3-1.1l-3.2,1.9l-0.5-1.2c0.4-0.3,0.7-0.6,1-0.8c3.3-2.5,3.8-3.4,5.3-5h1.3v25.6c0,1.4,0,3.3,2.9,3.5
		c0.1,0,0.3,0,0.7,0V67.2z"/>
	<path d="M300.4,67.9c-4.1,0-8.1-3-8.1-7.2c0-3.2,2.2-6.6,6.6-9.4c-4.5-3.5-5.4-5.7-5.5-7.8c-0.2-2.8,1.8-7.9,7.8-7.9
		c4.1,0,7.1,3.3,7.1,7.1c0,3.3-2.8,6.1-5.7,8.1c4.4,3,6.8,5.9,6.8,8.9C309.3,63,306.6,67.9,300.4,67.9z M299.9,52.3
		c-2.8,1.8-5.1,4.5-5.1,7.6c0,5,3.6,6.6,6.1,6.5c2.9-0.1,5.8-1.9,5.8-5.2C306.7,58.4,305.1,55.4,299.9,52.3z M300.7,37
		c-2.4,0-5.1,1.5-5.1,5.1c0,2.8,1.4,5.2,5.7,7.8c2.1-1.5,4.4-3.1,4.4-7C305.7,40.1,303.9,37,300.7,37z"/>
</g>
<path class="st3" d="M132.9,44.5c-0.5-0.3-0.7-0.9-1.1-1.4c-0.6-0.3-1.1-0.7-1.6-1.1c-0.2,0.1-0.3,0.1-0.4,0.3
	c-1.4,0.7-2.3,1.9-3.6,2.8c-1.6,0.8-3.3,1.6-4.8,2.5c-0.6,0.6-1.5,0.9-2.1,1.5c-0.8,0.4-1.4,1.2-2.2,1.5c-1.1,1.3-2.5,2.3-3.2,3.9
	c0.2,0.9,1,1.3,1.5,1.8c0.7,0.4,1,1.2,1.9,1.4c0.6,0.5,1.4,0.8,1.9,1.4c1.1,0,1.5,0.9,2.5,1c1,0.1,2.2-0.7,3.5-0.3
	c1-0.6,2.2-1.1,3.5-1.4c0.6-0.6,1.4-0.9,1.9-1.4c0.2-0.2,0.1-0.7,0.6-0.6c1.2-0.9,2.3-1.9,2.9-3.5c0-1.6,0.3-3.2,0.1-4.6
	C134,46.9,133.3,45.8,132.9,44.5z"/>
<path class="st3" d="M79.1,84.2c0.6,0.3,0.9,0,1-0.6C79.5,83.3,79.4,83.8,79.1,84.2z"/>
<path class="st3" d="M88.5,81.4c0,0.2-0.1,0.5,0.3,0.5c0.6-0.3,1.4-1.7,1.1-2.5C89.4,80.1,89,80.7,88.5,81.4z"/>
<path class="st4" d="M151.7,45.2c0.2-1.8,0-4,0.5-5.5c-0.2-0.5-0.5-1-0.5-1.8c-1-1.1-1.8-2.4-3.1-3.2c-0.2-0.5-0.6-0.8-0.8-1.2
	c-0.3-1-1-1.6-1.3-2.7c-1-0.3-1.4-1.2-1.4-2.5c-0.6-0.6-0.8-1.6-1.3-2.3c-0.1-0.2-0.3-0.2-0.4-0.4c-0.2-0.3-0.5-0.6-0.6-0.9
	c-0.6-0.2-1.1-0.5-1.4-1.1c-0.7-0.2-1.2-0.5-1.6-0.9c-1.1-0.1-1.7-0.7-2.8-0.8c-0.4-0.1-0.3-0.5-0.8-0.5c-2.4-0.2-4.6,0.1-6.7-0.4
	c-0.9-0.1-1.6,0.3-2.4,0c-0.6,0.3-0.8,1-1.5,1.3c-0.3,0-0.6,0-0.9,0c-0.5,0.7-1.1,1.3-1.6,2c-0.4,0.2-0.7,0.7-1.2,0.8
	c-0.1,0.5-0.5,0.7-0.9,0.9c0,0.7-0.6,0.7-0.7,1.3c-0.4,0.1-0.6,0.5-0.9,0.7c-0.1,0.5-0.8,0.4-0.8,0.9c0.4,0.3,0.8-0.3,1.1-0.5
	c0.3-0.4,0.9-0.5,0.9-1.1c0.7,0,1.1-1,1.6-0.7c-0.5,0.8-1.3,1.3-2,2c-0.3,0.4-0.8,0.6-1.1,0.9c-0.4,0.3-0.6,0.8-1.2,0.8
	c-0.2-0.4,0.4-0.9-0.1-0.8c-0.5,0-0.7,0.4-1.1,0.5c-0.1,0.5-0.8,0.4-0.8,0.9c0.7,0.1,1.1-1,1.5-0.1c-0.2,0.6-0.9,0.8-1.4,1.2
	c-0.8,0.6-1.8,1.4-2.5,1.9c-0.3,0.2-0.5,0.4-0.8,0.5c-0.2,1-0.2,2.6-0.9,3.2c-0.1,2.8-1.3,3.7-2,6.6c-1.7,3.1-4,7-5.8,9.6
	c-0.4,0.6,0.2,0.9-0.3,1.5c-1,1.3-2.1,2.6-3.1,3.9c0.1,0.5,1.6,2.4,1.4,2.9c0.5,0.2,0.8,0.5,1.2,0.7c1.1,1.9,2.5,3.4,4.2,4.7
	c0.2,0.8,0.9,1.1,1.2,1.8c2.3,0.9,3.8,2.7,6.2,3.5c0.8,1,2.2,1.2,3,2.2c1.2,0.1,1.8,0.7,2.8,1c1.6-0.3,3.2,0.2,4.6-0.3
	c1.1-1.1,2.7-1.7,4.1-2.4c1.1-1.1,2.3-2.1,3.5-3.1c0.4-0.6,0.8-1.2,1.4-1.6c1.1-0.6,1.9-1.4,2.8-2.2c1.4-0.7,2.3-2,3.6-2.8
	c1.3-0.1,1.9-1.1,3.1-1.4c0.1-0.4,0.3-0.7,0.7-0.7c0.2-0.9,0.9-1.2,1.2-1.9c0.7-0.1,0.8-0.7,1.4-1c0.2-0.9,0.7-1.4,0.9-2.3
	c0.7-0.7,1.4-1.5,1.6-2.7c0.7-1.4,1.8-2.4,1.8-4.4c0.1-0.3,0.3-0.4,0.3-0.7c-0.1-0.9,0.2-1.4,0.2-2.1
	C152.1,46.1,151.9,45.6,151.7,45.2z M123,26.2c0.1,0.1-0.1,0.2-0.1,0.1C122.8,26.2,122.9,26.1,123,26.2z M134.1,53.1
	c-0.5,1.6-1.7,2.6-2.9,3.5c-0.4-0.1-0.4,0.4-0.6,0.6c-0.5,0.5-1.3,0.8-1.9,1.4c-1.3,0.4-2.5,0.8-3.5,1.4c-1.3-0.4-2.4,0.4-3.5,0.3
	c-1-0.1-1.5-1-2.5-1c-0.5-0.6-1.4-0.9-1.9-1.4c-0.9-0.2-1.2-1-1.9-1.4c-0.5-0.6-1.3-0.9-1.5-1.8c0.8-1.6,2.1-2.7,3.2-3.9
	c0.9-0.4,1.4-1.1,2.2-1.5c0.6-0.6,1.5-0.9,2.1-1.5c1.5-0.9,3.2-1.7,4.8-2.5c1.3-0.8,2.1-2.1,3.6-2.8c0.1-0.1,0.2-0.2,0.4-0.3
	c0.5,0.4,1.1,0.8,1.6,1.1c0.4,0.5,0.6,1.1,1.1,1.4c0.4,1.2,1.1,2.4,1.3,3.9C134.4,49.8,134.1,51.4,134.1,53.1z"/>
<g>
	<path class="st5" d="M58.7,45c0,0-0.3,0.4-0.3,0.5C58.7,45.6,58.6,45.1,58.7,45c0,0,0.1,0,0.1,0c-0.1,0,0.1,0.5,0.1,0.5
		c-0.3,0-0.6,1.8-0.8,2.1c0,0,0.2,0,0.2,0c0.2,1-1.2,3.4-1.9,4.2c-0.8,1-0.7,0.7,0.2,1.7c0.5,0.6,0.9,1.2,1.2,2c1,2.7,0.5,5.2-0.4,8
		c-0.4,1.2-0.7,2.7-1.3,3.6c-0.3,0.6-0.8,1.5-1.5,1.7c-1,0.4-0.9-0.2-1.6-0.2c-0.7,0-1.3,0.4-2,0.4c-0.8,0-1.4-0.4-2.2-0.2
		c-1.5,0.4-2.9,1-4.5,1.3c-2.5,0.5-7.2,1.2-5.8-2.6c0.1-0.2-0.2-0.4,0.3-0.3c0-0.1-0.2-0.2-0.2-0.2c0-0.1,0.4,0,0.3-0.2
		c-0.2,0,0.1,0.1-0.2,0c0.1-0.2,0.6-0.3,0.6-0.4c0-0.5,1.1-0.6,1.1-0.6c-0.2,0-0.3,0.2-0.5,0.1c0,0-0.1,0.1-0.1,0.1
		c0,0.4,0.8-0.3,0.8-0.3c0,0.3,3.7-0.9,3.6-0.7c0.1,0,0.6-0.2,0.6-0.2c0-0.1-0.4,0.1-0.4,0.1c0-0.3,0.8-0.2,1-0.2c0-0.3,1.5-1,2.1-1
		c0-0.1,2-1.7,2.2-2c0.7-1.1,0.8-1.7,1.1-2.9c0.1-0.6,0.3-0.9,0.3-1.5c-0.1,0-0.1,0-0.2,0.1c0-1.5-0.3-1.8-1.8-1.8
		c-0.9,0-1.9,0.1-2.7,0.3c-1.1,0.4-1.3,1.2-2.4,0.3c-0.6-0.5-1.2-2-1.2-2.8c0-0.3,1.1-2.7,1.3-2.7c0,0.1-0.2,0.5,0,0.5
		c0.3,0,1.5-1.3,1.5-1.3c0.3,0,1.3-0.3,1.3-0.6c0,0-0.1,0-0.1,0c-0.1-0.3,2.5-1.7,2.7-1.9c1.1-0.8,1.5-1.4,1.9-2.7
		c0.1-0.4,0.1-1.1,0.3-1.4c-0.2,0-0.2,0-0.2-0.2c-2.5,0-4,2.2-6.5,2.3c-2.3,0.1-4.5-1.6-5.7-3.3c-0.7-1-1.1-1.8-1.9-2.7
		c-0.9-1.1-1.6-1.7-0.4-2.7c1-0.8,2.1-0.4,3.4-0.7c1.1-0.2,2.2-0.6,3.3-0.8c2.5-0.4,5.4-0.6,7.8-0.3c0.3,0,0.6,0,0.9,0.1
		c0,0.3,0.8,0.2,0.7,0.1c0,0-0.2,0-0.2,0c0-0.6,3.5,1.9,3.8,2.2c0.7,0.8,1.5,2,1.9,3.3c0.3,0.8,0.5,2.1,0.6,2.1
		c0,0.1-0.2,0.4-0.2,0.5c0,0.1,0.2,0,0.2,0c-0.1,0.4-0.4,0.6-0.3,1.1c0.1,0,0.1-0.2,0.2-0.2C59.2,44.5,58.7,44.7,58.7,45z M58,47.6
		C58,47.8,58.1,47.7,58,47.6z M43.3,52.3C43.2,52.6,43.4,52.3,43.3,52.3z M44.1,65C44,65.1,44.2,64.9,44.1,65z M56.5,65.5
		C56.7,65.5,56.5,65.4,56.5,65.5z M40.7,66C40.3,66,40.7,66.2,40.7,66z M40.2,66.1C40.2,66.1,40.2,66.1,40.2,66.1
		C40.2,66.2,40.2,66.2,40.2,66.1z"/>
	<path class="st5" d="M48.6,34.9C48.4,35.1,48.6,34.8,48.6,34.9z"/>
	<path class="st5" d="M52.8,34.9C52.8,34.9,52.8,35.1,52.8,34.9z"/>
	<path class="st5" d="M51,45.6C51,45.9,50.6,45.6,51,45.6z"/>
	<path class="st5" d="M56.7,51.9c0,0.2-0.2,0.3-0.4,0.3C56.4,52.1,56.6,51.9,56.7,51.9z"/>
	<path class="st5" d="M45.3,64.7C45.1,64.7,45.3,64.5,45.3,64.7z"/>
	<path class="st5" d="M43.7,64.8C43.8,64.8,43.7,64.9,43.7,64.8z"/>
	<path class="st5" d="M43.6,64.8C43.6,64.9,43.4,64.8,43.6,64.8z"/>
	<path class="st5" d="M42.3,65.1c0,0.1-0.1,0.3-0.3,0.3C42,65.2,42.1,65.1,42.3,65.1z"/>
	<path class="st5" d="M42.7,65.2C42.8,65.2,42.7,65.3,42.7,65.2z"/>
	<path class="st5" d="M41.5,65.3c0,0.4-0.2,0-0.3,0.1C41.2,65.3,41.4,65.3,41.5,65.3z"/>
	<path class="st5" d="M41.6,65.3C41.6,65.3,41.6,65.4,41.6,65.3z"/>
	<path class="st5" d="M41.1,65.5C41.2,65.5,41.1,65.6,41.1,65.5z"/>
	<path class="st5" d="M41.9,65.5C41.9,65.6,41.8,65.5,41.9,65.5z"/>
	<path class="st5" d="M41.3,65.6C41.3,65.8,41,65.6,41.3,65.6z"/>
	<path class="st5" d="M40.7,65.7C40.7,65.7,40.6,65.7,40.7,65.7z"/>
	<path class="st5" d="M40.1,65.7C40.2,65.7,40.1,65.9,40.1,65.7z"/>
</g>
<g>
	<path class="st5" d="M14.4,32.4c0.2,0.6,1,0.9,1.3,1.6c0.4,0.7,0.4,1.6,0.3,2.4c-0.2,1.8-0.6,3.1-1.3,4.6c-0.8,2.1-1.3,4.1-1.7,6.2
		c-0.2,0.8-0.5,2-1,2.9c-0.4,0.7-0.9,1.1-1.1,1.8c-0.4,1.5,1.2,0.9,2.5,0.8c1.1-0.1,1.9,0.2,1.9-0.9c0.3,0.1,0.2-0.2,0.2-0.5
		c-0.1,0,0,0.1-0.1,0.1c0-1,1-2.5,0.7-3.9c-0.1,0-0.1,0.4-0.3,0.4c0,0,0-0.1,0-0.1c0.8-1.9,1.3-4.2,1.9-6c0.4-1.3,1.4-5.1,3.3-4.3
		c1.6,0.6,1.9,4.4,2.2,5.9c0.4,2.1-0.5,4.3,0,6.4c0.7,2.7,3.3,0.2,5,0.8c1.7,0.7,3.7,2.2,1.8,4c-0.6,0.6-1.5,1.2-2.4,1.3
		c-1.1,0.1-1.8-0.3-2.2,0.9c-0.7,1.9-0.3,4.6,0.1,6.4c0.2,1,0.7,1.4,0.4,2.5c-0.3,1-1.1,1.8-2.1,2.5c-1.3,0.9-3,1.2-4.1,1.8
		c-0.5,0.3-0.7,0.9-1.5,0.5c0,0.1,0.4,0.1,0.3,0.2c-0.6,0-2.3-1-2.3-1.4c0.1,0,0.3,0.3,0.4,0.4c0,0,0,0,0,0c0-0.3-0.9-1.1-1.1-1.4
		c-0.4-0.7-0.3-1.4-0.4-2.1c-0.2-1.3-0.2-2.6-0.3-4.1c0-0.4-0.2-2.9,0.3-2.9c0-0.1-0.5-1.2,0.2-1.2c0,0.1,0.1,1-0.2,1
		c0,0,0,0.1,0,0.1c0,0,0.1,0,0.1,0.1c0.2-0.1,0.1-0.3,0.2-0.3c0,0.2-0.4,3.9,0,3.9c0.5,0,0-2.8,0.3-2.8c0-0.2,0.2-0.1,0.2-0.2
		c0,0.2,0.3-1.7,0.2-1.7c-0.3,0.1-0.2,0.6-0.1,0.8c0,0-0.2-0.1-0.2,0c-0.2,0,0-0.9,0-1.1c-0.6,0-0.9-0.5-1.9-0.6
		c-0.7,0-1.4,0.1-2.1,0.2c-1.6,0.2-3.2-0.1-4.7-0.4c-1.2-0.3-2.9-1-3.7-2.1c-0.2-0.3-0.6-0.7-0.5-1.4c0-1,0.6-0.9,1-1.4
		c0.6-0.8,1.4-3.3,2-3.3c0-0.8,1-2.2,1.3-3.2c0.2-0.5,1.5-2.5,1.4-2.8c0.3-1.2,1-3.3,1.4-4.8c0.4-1.4,0.5-3.5,1.3-4.7
		C12.4,32.2,13.3,32.3,14.4,32.4z M9.2,42.4C9.3,42.4,9.2,42.3,9.2,42.4z M16.3,47.4C16.3,47.5,16.4,47.3,16.3,47.4z M15.9,49.7
		C15.9,50,16,49.7,15.9,49.7z M16.3,59.3C16.3,59.4,16.5,59.4,16.3,59.3z M16.4,59.6C16.2,59.5,16.4,59.7,16.4,59.6z M16.3,60.6
		C16.3,60.8,16,60.6,16.3,60.6z M16.2,60.8C16.2,60.8,16.1,60.8,16.2,60.8C16.2,60.9,16.2,60.8,16.2,60.8z M23.1,68.6
		C23.2,68.6,23.1,68.5,23.1,68.6z"/>
	<path class="st5" d="M15.7,47.7C15.7,47.7,15.7,47.6,15.7,47.7C15.8,47.7,15.7,47.7,15.7,47.7z"/>
	<path class="st5" d="M15.8,48.5C15.8,49,15.6,48.5,15.8,48.5z"/>
	<path class="st5" d="M15.9,49.5C15.8,49.4,15.8,49.4,15.9,49.5z"/>
	<path class="st5" d="M15.5,51.7C15.5,51.8,15.5,51.7,15.5,51.7z"/>
	<path class="st5" d="M15.3,51.9C15.4,51.9,15.3,52.1,15.3,51.9z"/>
	<path class="st5" d="M15.3,57.5c0,0,0,0.8-0.2,0.7C15,57.8,15.3,57.7,15.3,57.5z"/>
	<path class="st5" d="M15.6,57.8C15.7,57.8,15.6,58,15.6,57.8z"/>
	<path class="st5" d="M15.8,58.1C16,58.1,15.8,58.3,15.8,58.1z"/>
	<path class="st5" d="M15.2,58.3C15.2,58.3,15.2,58.7,15.2,58.3z"/>
	<path class="st5" d="M16.5,58.4C16.5,58.4,16.5,58.4,16.5,58.4C16.5,58.4,16.5,58.4,16.5,58.4z"/>
	<path class="st5" d="M16.2,59C16.3,59,16.2,59.1,16.2,59z"/>
</g>
<path class="st2" d="M37.7,50.8C37.7,50.8,37.7,50.8,37.7,50.8C37.8,50.8,37.8,50.8,37.7,50.8c0.1,0,0.1,0,0.1,0c0,0,0,0,0,0
	c0,0,0,0,0,0c0,0,0,0,0,0c0,0,0,0,0,0c0,0,0,0,0,0c0,0,0,0,0,0c0,0,0,0,0,0c0,0,0,0,0,0c0,0,0,0,0,0c0,0,0,0,0,0c0,0,0,0,0,0
	c0,0,0,0.1,0,0.1c0,0,0,0,0.1,0c0,0,0,0,0,0c0,0,0,0,0,0c0,0,0,0,0,0c0,0,0,0,0,0c0,0,0,0,0,0c0,0,0,0,0.1,0c0,0,0,0,0,0
	c0,0,0,0,0.1,0c0,0,0,0,0,0c0,0,0,0,0,0c0,0,0,0,0,0c0,0,0,0,0,0c0,0,0,0,0,0c0,0,0,0,0,0c0,0,0,0,0,0c0,0,0,0,0,0c0,0,0,0,0,0
	c0,0,0,0,0,0c0,0,0,0,0,0c0,0,0,0,0,0c0,0,0,0,0,0c0,0,0,0,0,0c0,0,0,0,0,0c0,0,0,0,0,0c0,0,0,0,0,0c0,0,0,0,0,0c0,0,0,0,0,0
	c0,0,0,0,0,0.1c0,0,0.1,0,0.1,0c0,0,0,0,0,0.1c0,0,0,0,0,0c0,0,0,0,0,0c0,0,0,0,0,0c0,0,0,0,0,0c0,0,0,0,0,0c0,0,0,0,0,0
	c0,0,0,0,0,0c0,0,0,0,0,0c0,0,0,0,0,0.1c0,0,0.1,0,0.1,0.1c0,0,0,0,0,0c0,0,0,0,0,0c0,0,0,0,0,0c0,0,0,0,0,0c0,0,0,0,0,0
	c0,0,0,0,0,0c0,0,0,0,0,0c0,0,0,0,0,0c0,0,0,0,0,0c0,0,0.1,0,0.1,0c0,0,0,0,0,0c0,0,0,0,0,0c0,0,0,0,0,0c0,0,0,0,0,0c0,0,0,0,0,0
	c0,0,0,0,0,0c0,0,0,0,0.1,0c0,0,0,0,0,0c0,0,0,0,0,0c0,0,0,0,0,0c0,0,0,0,0.1,0c0,0,0,0,0,0.1c0,0,0.1,0,0.1,0c0,0,0,0,0.1,0
	c0,0,0,0,0,0c0,0,0,0,0,0c0,0,0,0,0,0c0,0,0,0,0,0c0,0,0,0,0,0.1c0,0,0,0,0,0c0,0,0,0,0,0c0,0,0,0,0,0c0,0,0,0,0,0c0,0,0,0,0,0
	c0,0,0,0,0,0c0,0,0,0,0,0c0,0,0,0,0,0c0,0,0,0,0,0c0,0,0,0,0,0c0,0,0,0,0,0c0,0,0,0,0,0.1c0,0,0.1,0,0,0.1c0,0,0,0,0,0c0,0,0,0,0,0
	c0,0,0,0,0,0c0,0,0,0,0,0c0,0,0,0,0,0c0,0,0,0,0,0.1c0,0,0,0,0,0c0,0,0,0,0,0c0,0,0,0,0,0c0,0,0,0.1,0,0.1c0,0,0,0,0,0c0,0,0,0,0,0
	c0,0,0,0,0,0c0,0,0,0,0,0c0,0,0,0,0,0.1c0,0,0,0,0,0c0,0,0,0,0,0c0,0,0,0,0,0.1c0,0,0,0,0,0c0,0,0,0,0,0c0,0,0,0,0,0c0,0,0,0,0,0
	c0,0,0,0,0,0c0,0,0,0,0,0c0,0,0,0,0,0c0,0,0,0,0,0c0,0,0,0,0,0c0,0,0,0,0,0c0,0,0,0,0,0c0,0,0,0,0,0c0,0,0,0,0,0c0,0,0,0,0,0.1
	c0,0,0,0,0,0.1c0,0,0,0,0,0c0,0,0,0,0,0c0,0,0,0,0,0c0,0,0,0.1,0,0.1c0,0,0,0,0,0c0,0,0,0,0,0c0,0,0,0,0,0c0,0,0,0,0,0
	c0,0,0,0-0.1,0c0,0,0,0,0,0c0,0,0,0,0,0c0,0,0,0,0,0c0,0,0,0,0,0c0,0,0,0,0,0c0,0,0,0,0,0c0,0,0,0,0,0c0,0,0,0,0,0c0,0,0,0,0,0
	c0,0,0,0,0,0c0,0,0,0,0,0.1c0,0,0,0,0,0.1c0,0,0,0,0,0c0,0,0,0,0,0c0,0,0,0,0,0c0,0,0,0,0,0.1c0,0,0,0,0,0c0,0,0,0,0,0c0,0,0,0,0,0
	c0,0,0,0,0,0c0,0,0,0,0,0c0,0,0,0,0,0c0,0,0,0,0,0c0,0,0,0,0,0c0,0,0,0,0,0c0,0,0,0,0,0c0,0,0,0,0,0c0,0,0,0,0,0c0,0,0,0,0,0
	c0,0,0,0,0,0c0,0,0,0,0,0c0,0,0,0,0,0c0,0,0,0,0,0c0,0,0,0,0,0c0,0,0,0.1,0,0.1c0,0,0,0,0,0c0,0,0,0,0,0c0,0,0,0,0,0c0,0,0,0,0,0
	c0,0,0,0,0,0.1c0,0,0,0,0,0c0,0,0,0-0.1,0c0,0,0,0,0,0c0,0,0,0,0,0c0,0,0,0,0,0c0,0,0,0,0,0c0,0,0,0,0,0c0,0,0,0,0,0c0,0,0,0,0,0
	c0,0,0,0,0,0c0,0,0,0,0,0c0,0,0,0,0,0c0,0,0,0,0,0c0,0,0,0,0,0c0,0,0,0,0,0c0,0,0,0,0,0c0,0,0,0.1,0,0.1c0,0,0,0,0,0c0,0,0,0,0,0.1
	c0,0,0,0,0,0c0,0,0,0,0,0c0,0,0,0,0,0c0,0,0,0.1,0,0.1c0,0,0,0,0,0c0,0,0,0,0,0.1c0,0,0,0,0,0.1c0,0,0,0-0.1,0c0,0,0,0,0,0.1
	c0,0,0,0,0,0c0,0,0,0.1,0,0.1c0,0-0.1,0,0,0.1c-0.1,0-0.1,0.1-0.1,0c0,0,0,0,0,0.1c0,0,0,0,0,0.1c0,0,0,0-0.1,0c0,0,0,0,0,0
	c0,0,0,0,0,0c0,0,0,0,0,0.1c0,0,0,0,0,0c0,0,0,0,0,0c0,0,0,0,0,0c0,0,0,0,0,0c0,0,0,0,0,0c0,0,0,0,0,0c0,0,0,0,0,0c0,0,0,0,0,0
	c0,0,0,0,0,0c0,0,0,0,0,0c0,0,0,0,0,0c0,0,0,0,0,0c0,0,0,0-0.1,0c0,0,0,0-0.1,0c0,0,0,0.1,0,0.1c0,0,0,0,0,0c0,0,0,0,0,0
	c0,0,0,0,0,0c0,0,0,0,0,0c0,0,0,0,0,0c0,0,0,0,0,0c0,0,0,0,0,0c0,0,0,0,0,0c0,0,0,0,0,0c0,0,0,0,0,0c0,0,0,0,0,0c0,0,0,0,0,0
	c0,0,0,0,0,0c0,0,0,0,0,0c0,0,0,0,0,0c0,0,0,0,0,0c0,0,0,0,0,0c0,0,0,0-0.1,0c0,0,0,0,0,0c0,0,0,0,0,0c0,0,0,0,0,0c0,0,0,0-0.1,0
	c0,0,0,0,0,0c0,0,0,0,0,0c0,0,0,0,0,0c0,0,0,0,0,0c0,0,0,0,0,0c0,0,0,0,0,0c0,0,0,0,0,0c0,0,0,0,0,0c0,0,0,0-0.1,0.1
	c0,0.1,0.1,0,0,0.1c0,0-0.1,0-0.1,0c0,0,0,0,0,0c0,0,0,0,0,0c0,0,0,0,0,0c0,0,0,0,0,0c0,0,0,0-0.1,0c0,0,0,0.1-0.1,0.1c0,0,0,0,0,0
	c0,0,0,0,0,0c0,0,0,0,0,0c0,0,0,0,0,0c0,0,0,0,0,0c0,0,0,0,0,0c0,0,0,0.1,0,0.1c0,0,0,0,0,0c0,0,0,0,0,0c0,0,0,0,0,0c0,0,0,0,0.1,0
	c0,0,0,0,0,0c0,0,0,0,0,0c0.1,0,0.1,0,0.2,0c0,0,0,0,0,0c0,0,0,0,0,0c0,0,0,0,0.1,0c0,0,0,0,0,0c0,0,0,0,0,0c0,0,0,0,0,0
	c0,0,0,0,0,0c0,0,0,0-0.1,0c0,0,0,0,0,0c0,0,0,0,0,0c0,0,0,0,0,0c0,0,0,0,0,0c0,0,0,0,0,0c0,0-0.1,0-0.1,0c0,0,0,0,0,0c0,0,0,0,0,0
	c0,0,0,0,0,0c0,0-0.2,0-0.2,0c0,0,0,0,0,0c0,0,0,0-0.1,0c0,0,0,0,0,0c0,0,0,0,0,0c0,0,0,0,0,0c0,0,0,0,0,0c0,0,0,0,0,0c0,0,0,0,0,0
	c0,0-0.1,0-0.1,0c0,0,0,0,0,0c0,0,0,0,0,0c0,0,0,0,0,0c0,0-0.1,0-0.1,0c0,0,0,0,0,0c0,0,0,0,0,0c0,0,0,0,0,0c0,0,0,0-0.1,0
	c0,0,0,0,0,0c0,0,0,0,0,0c0,0,0,0,0,0c0,0,0,0,0,0c0,0,0,0-0.1,0c0,0,0,0,0,0c0,0,0,0,0,0c0,0-0.1,0-0.1,0c0,0,0,0,0,0c0,0,0,0,0,0
	c-0.1,0-0.1,0-0.1,0.1c0,0,0,0,0,0c0,0,0,0,0,0c0,0,0,0,0,0c0,0,0,0-0.1,0c0,0,0,0,0,0c0,0,0,0,0,0c0,0,0,0,0,0c0,0,0,0,0,0
	c0,0,0,0,0,0c0,0,0,0,0,0c0,0-0.1,0-0.1,0c0,0,0,0,0,0c0,0,0,0,0,0c0,0,0,0-0.1,0c0,0,0,0,0,0c0,0-0.1,0-0.1,0c0,0,0,0-0.1,0
	c0,0,0,0,0,0c0,0,0,0,0,0c0,0-0.1,0-0.1,0c0,0,0,0,0,0c0,0-0.1,0-0.1,0c0,0,0,0,0,0c0,0,0,0,0,0c0,0,0,0,0,0c0,0,0,0,0,0
	c0,0,0,0,0,0c0,0,0,0,0,0c0,0,0,0,0,0c0,0,0,0,0,0c0,0,0,0-0.1,0c0,0,0,0,0,0c0,0,0,0,0,0c0,0,0,0,0,0c0,0,0,0,0,0c0,0-0.1,0-0.1,0
	c0,0,0,0,0,0c0,0,0,0,0,0c0,0,0,0,0,0c0,0,0,0,0,0c0,0,0,0,0,0c0,0,0,0,0,0c0,0-0.1,0-0.1,0c0,0,0,0,0,0c0,0,0,0,0,0c0,0,0,0-0.1,0
	c0,0-0.1,0-0.1-0.1c0,0-0.1,0-0.1,0c0,0,0,0,0,0c0,0,0,0,0,0c0,0,0,0,0,0c0,0,0,0,0,0c0,0,0,0,0,0c0,0,0,0,0,0c0,0,0,0,0,0
	c0,0,0,0-0.1,0c0,0-0.1,0-0.1,0c0,0,0,0,0,0c0,0,0,0,0,0c0,0,0,0,0,0c0,0,0,0,0,0c0,0,0,0,0,0c0,0,0,0,0,0c0,0,0,0,0,0c0,0,0,0,0,0
	c0,0,0,0,0,0c0,0,0,0,0,0c0,0,0,0,0,0c0,0,0,0,0,0c0,0,0,0,0,0c0,0,0,0,0,0c0,0-0.1,0-0.1,0c0,0,0,0,0,0c0,0,0,0,0,0c0,0,0,0,0,0
	c0,0,0,0-0.1,0c0,0,0,0,0-0.1c0,0,0,0,0,0c0,0-0.1,0-0.1,0c0,0,0,0,0,0c0,0,0,0,0,0c0,0,0,0,0,0c0,0,0,0,0,0c0,0,0,0,0,0
	c0,0,0,0,0,0c0,0,0,0,0,0c0,0,0,0,0,0c0,0,0,0-0.1,0c0,0,0,0,0-0.1c0,0,0,0,0,0c0,0,0,0,0,0c0,0,0,0,0,0c0,0,0,0,0,0c0,0,0,0,0,0
	c0,0,0,0,0,0c0,0,0,0,0,0c0,0,0,0,0,0c0,0,0,0,0,0c0,0,0,0,0,0c0,0,0,0-0.1,0c0,0,0,0,0-0.1c0,0,0,0,0,0c0,0,0,0,0,0c0,0,0,0,0,0
	c0,0,0,0,0-0.1c0,0,0,0,0,0c0,0,0,0,0,0c0,0,0,0,0,0c0,0,0,0,0,0c0,0-0.1,0-0.1,0c0,0,0,0,0,0c0,0,0,0,0,0c0,0,0,0,0,0c0,0,0,0,0,0
	c0,0,0,0,0,0c0,0,0,0,0,0c0,0,0,0,0-0.1c0,0,0,0,0,0c0,0,0,0,0,0c0,0,0,0,0,0c0,0,0,0,0,0c0,0,0,0,0,0c0,0,0,0,0,0
	c0-0.1-0.1,0-0.1-0.1c0,0,0,0-0.1-0.1c0,0,0,0,0,0c0,0,0,0,0,0c0,0,0,0,0,0c0,0-0.1,0-0.1,0c0,0,0,0,0,0c0,0,0,0,0,0c0,0,0,0,0-0.1
	c0,0,0,0,0,0c0,0,0,0,0,0c0,0,0,0,0,0c0,0,0,0,0,0c0,0,0,0,0,0c0,0,0,0,0,0c0,0,0,0,0,0c0,0,0,0,0,0c0,0,0,0,0-0.1c0,0,0,0,0-0.1
	c0,0,0,0,0,0c0,0,0,0,0,0c0,0,0-0.1,0-0.1c0,0,0,0,0,0c0,0,0,0,0,0c0,0,0,0,0,0c0,0,0,0,0,0c0,0,0,0,0,0c0,0,0-0.1,0-0.1
	c0,0,0,0,0,0c0,0,0,0,0,0c0,0,0,0,0,0c0,0,0,0,0,0c0,0,0,0,0,0c0,0,0,0,0,0c0,0,0,0,0,0c0,0,0,0,0-0.1c0,0,0,0,0,0c0,0,0,0,0,0
	c0,0,0,0,0-0.1c0,0,0,0,0,0c0,0,0,0,0,0c0,0,0,0,0,0c0,0,0,0,0-0.1c0,0,0,0,0,0c0,0,0,0,0,0c0,0,0,0,0,0c0,0,0,0,0,0c0,0,0,0,0,0
	c0,0,0,0,0,0c0,0,0,0,0,0c0,0,0,0,0,0c0,0,0,0,0,0c0,0,0,0,0,0c0,0,0,0,0-0.1c0,0,0,0,0,0c0,0,0-0.1,0-0.1c0,0,0,0,0,0c0,0,0,0,0,0
	c0,0,0-0.1,0.1-0.1c0,0,0-0.1,0-0.1c0,0,0,0,0.1,0c0,0,0,0,0,0c0,0,0,0,0,0c0,0,0,0,0,0c0,0,0-0.1,0-0.1c0,0,0,0,0,0c0,0,0,0,0,0
	c0,0,0,0,0,0c0,0,0,0,0,0c0,0,0,0,0,0c0,0,0,0,0,0c0,0,0,0,0,0c0,0,0,0,0,0c0,0,0,0,0,0c0,0,0,0,0,0c0,0,0,0,0,0c0,0,0,0,0,0
	c0,0,0,0,0,0c0,0,0,0,0,0c0,0,0,0,0,0c0,0,0,0,0,0c0,0,0,0,0,0c0,0,0,0,0,0c0,0,0,0,0,0c0,0,0,0,0,0c0,0,0,0,0,0c0,0,0,0,0,0
	c0,0,0,0,0-0.1c0,0,0,0,0,0c0,0,0,0,0,0c0,0,0,0,0,0c0,0,0,0,0,0c0,0,0.1,0,0-0.1c0.1,0,0-0.1,0.1-0.1c0,0,0,0,0-0.1c0,0,0,0,0,0
	c0,0,0,0,0,0c0,0,0,0,0,0c0,0,0,0,0-0.1c0,0,0,0,0,0c0,0,0,0,0,0c0,0,0,0,0.1,0c0,0,0,0,0,0c0,0,0,0,0,0c0,0,0,0,0,0c0,0,0,0,0-0.1
	c0,0,0,0,0.1,0c0,0,0,0,0,0c0,0,0,0,0,0c0,0,0,0,0,0c0,0,0,0,0,0c0,0,0,0,0,0c0,0,0,0,0,0c0,0,0,0,0,0c0,0,0,0,0,0c0,0,0,0,0,0
	c0,0,0,0,0,0c0,0,0-0.1,0-0.1c0,0,0,0,0,0c0,0,0,0,0,0c0,0,0,0,0.1,0c0,0,0,0,0,0c0,0,0,0,0-0.1c0,0,0,0,0,0c0,0,0,0,0,0
	c0,0,0,0,0,0c0,0,0,0,0,0c0,0,0,0,0,0c0,0,0,0,0,0c0,0,0,0,0,0c0,0,0,0,0,0c0,0,0,0,0,0c0,0,0,0,0,0c0,0,0,0,0,0c0,0,0,0,0,0
	c0,0,0,0,0,0c0,0,0,0,0,0c0,0,0,0,0,0c0,0,0,0,0,0c0,0,0,0,0,0c0,0,0,0,0-0.1c0,0,0,0,0,0c0,0,0,0,0.1,0c0,0,0,0,0,0c0,0,0,0,0,0
	c0,0,0,0,0,0c0,0,0,0,0,0c0,0,0,0,0,0c0,0,0,0,0.1,0c0,0,0,0,0,0c0,0,0,0,0.1,0c0,0,0,0,0,0c0,0,0,0,0-0.1c0,0,0,0,0,0c0,0,0,0,0,0
	c0,0,0,0,0,0c0,0,0,0,0,0c0,0,0,0,0,0c0,0,0,0,0,0c0,0,0,0,0,0c0,0,0,0,0,0c0,0,0,0,0,0c0,0,0,0,0,0c0,0,0,0,0,0c0,0,0,0,0.1,0
	c0,0,0,0,0,0c0,0,0,0,0,0c0,0,0,0,0,0c0,0,0,0,0,0c0,0,0,0,0,0c0,0,0.1,0,0-0.1c0,0,0,0,0,0c0,0,0,0,0,0c0,0,0,0,0,0c0,0,0,0,0,0
	c0,0,0,0,0-0.1c0,0,0,0,0,0c0,0,0,0,0,0c0,0,0,0,0.1,0c0,0,0,0,0-0.1c0,0,0,0,0,0c0,0,0,0,0,0c0,0,0,0,0,0c0,0,0,0,0,0
	c0,0,0,0,0-0.1c0,0,0,0,0,0c0,0,0-0.1,0-0.2c0,0,0,0,0,0c0,0,0,0,0,0c0,0,0,0,0.1,0c0,0,0.1,0,0.1,0c0,0,0,0,0,0c0,0,0,0,0,0
	c0,0,0,0,0,0c0,0,0,0,0,0c0,0,0,0,0-0.1c0,0,0,0,0-0.1c0,0,0,0,0,0c0,0,0,0,0,0c0,0,0,0,0,0c0,0,0,0,0,0c0,0,0,0,0.1,0
	c0,0,0,0,0.1,0c0,0,0,0,0,0c0,0,0,0,0,0c0,0,0,0,0,0c0,0,0,0,0,0c0,0,0,0,0,0c0,0,0,0,0.1,0c0,0,0,0,0,0c0,0,0,0,0,0c0,0,0,0,0,0
	c0,0,0,0,0,0c0,0,0,0,0,0c0,0,0,0,0.1,0c0,0,0,0,0,0c0,0,0,0,0-0.1c0,0,0,0,0,0c0,0,0,0,0,0c0,0,0,0,0,0c0,0,0,0,0,0c0,0,0,0,0,0
	c0,0,0,0,0-0.1c0,0,0,0,0,0c0,0,0,0,0,0c0,0,0.1,0,0.1,0c0,0,0.1,0,0.1,0c0,0,0,0,0,0c0,0,0,0,0,0c0,0,0,0,0,0c0,0,0,0,0.1,0
	c0,0,0,0,0,0c0,0,0,0,0,0c0,0,0,0,0,0c0,0,0,0,0,0c0,0,0,0,0,0c0,0,0,0,0,0c0,0,0.1,0,0.1,0c0,0,0,0,0,0c0,0,0,0,0,0c0,0,0,0,0,0
	c0,0,0,0,0,0s0,0,0,0c0,0,0,0,0,0c0,0,0,0,0,0c0,0,0,0,0,0c0,0,0,0,0,0c0,0,0,0,0,0C37.6,50.8,37.6,50.8,37.7,50.8
	C37.6,50.8,37.6,50.7,37.7,50.8C37.6,50.7,37.6,50.7,37.7,50.8C37.6,50.7,37.7,50.7,37.7,50.8C37.7,50.7,37.7,50.8,37.7,50.8
	C37.7,50.8,37.7,50.8,37.7,50.8z M39.7,53C39.7,53,39.7,53,39.7,53C39.8,53.1,39.8,53.1,39.7,53C39.8,53,39.8,53,39.7,53
	C39.8,53,39.7,53,39.7,53C39.7,53,39.7,53,39.7,53z M37.9,54.9C37.9,54.9,37.9,54.9,37.9,54.9C37.9,54.9,37.9,54.9,37.9,54.9
	c0,0.1,0,0.1,0,0.1c0,0,0,0,0,0c0,0,0,0,0,0c0,0,0,0,0,0c0,0,0,0,0,0c0,0,0,0-0.1,0c0,0,0,0,0,0c0,0,0,0,0,0c0,0,0,0,0,0.1
	c0,0,0,0,0,0c0,0,0,0-0.1,0c0,0,0,0,0,0c0,0,0,0,0,0c0,0,0,0,0,0.1c0,0,0,0,0,0c0,0,0,0,0,0c0,0,0,0,0,0c0,0,0,0,0,0c0,0,0,0,0,0
	c0,0,0,0,0,0c0,0,0,0,0,0c0,0,0,0,0,0c0,0-0.1,0,0,0.1c0,0,0,0,0,0c0,0,0,0,0,0.1c0,0,0,0,0,0c0,0,0,0,0,0c0,0,0,0,0,0c0,0,0,0,0,0
	c0,0,0,0,0,0c0,0,0,0,0,0c0,0,0,0,0,0c0,0,0,0,0,0c0,0,0,0,0,0c0,0,0,0,0,0c0,0,0,0,0,0c0,0,0,0,0,0c0,0,0,0,0,0c0,0,0,0,0,0
	c0,0,0,0,0,0c0,0,0,0,0,0c0,0,0,0,0,0.1c0,0,0,0,0,0c0,0,0,0,0,0c0,0,0,0,0,0c0,0,0,0,0,0c0,0,0,0,0,0c0,0,0,0,0,0c0,0,0,0,0,0
	c0,0,0,0,0,0c0,0,0,0,0.1,0c0,0,0,0,0.1,0c0-0.1,0-0.1,0-0.1c0,0,0,0,0,0c0,0,0,0,0,0c0,0,0,0,0,0c0,0,0,0,0,0c0,0,0,0,0,0
	c0,0,0,0,0,0c0,0,0,0,0-0.1c0,0,0,0,0.1-0.1c0,0,0,0,0,0c0,0,0,0,0.1-0.1c0,0,0,0,0,0c0,0,0,0,0,0c0,0,0,0,0-0.1c0,0,0,0,0,0
	c0,0,0,0,0,0c0,0,0,0,0,0c0,0,0,0,0-0.1c0,0,0,0,0,0c0,0,0,0,0,0c0,0,0,0,0,0c0,0,0,0,0,0c0,0,0,0,0,0c0,0,0,0,0,0
	C38,54.9,37.9,54.9,37.9,54.9C37.9,54.9,37.9,54.9,37.9,54.9C37.9,54.9,37.9,54.9,37.9,54.9C37.9,54.9,37.9,54.9,37.9,54.9
	C37.9,54.9,37.9,54.9,37.9,54.9z"/>
<path class="st6" d="M116.9,43c0,0,5.5,7.2,7.4,11.6"/>
<path class="st6" d="M125.7,38.8c0,0,1.1,9,2.9,13.5"/>
<path class="st7" d="M118.6,42.6c0.2,1-0.4,1.9-1.4,2.1c-1,0.2-1.9-0.4-2.1-1.4c-0.2-1,0.4-1.9,1.4-2.1
	C117.5,41,118.4,41.6,118.6,42.6z"/>
<path class="st7" d="M127.5,38.4c0.2,1-0.4,1.9-1.4,2.1c-1,0.2-1.9-0.4-2.1-1.4c-0.2-1,0.4-1.9,1.4-2.1
	C126.3,36.8,127.3,37.4,127.5,38.4z"/>
<path class="st7" d="M122.8,39.8c0.2,1-0.4,1.9-1.4,2.1c-1,0.2-1.9-0.4-2.1-1.4c-0.2-1,0.4-1.9,1.4-2.1
	C121.6,38.2,122.6,38.8,122.8,39.8z"/>
<line class="st6" x1="121.1" y1="40.2" x2="126.6" y2="54.1"/>
<g>
	<g>
		<path class="st2" d="M178.8,36.5c0.5,0,1.7,1.9,1.8,2.3c0.4,1.6-0.7,2.3-2.2,2.7c-0.4,0.1-1.7,0-1.7,1c0,0,4.4,0.7,4.8,0.9
			c0.5,0.2,0.9,0.3,1.4,0.4c0,0-0.1-0.1-0.1-0.1c0,0,0.1,0,0.1,0c0.2,0.8,3.2,1.6,3.7,2.4c0.6,0.9,0.8,2.9-0.6,3.3
			c-0.6,0.2-1.7-0.2-2.2-0.3c-0.8-0.1-1.3-0.2-1.9-0.4c-1.5-0.6-2.7-1.1-4.2-1.8c-0.8-0.4-1.6-0.9-2.4-1.1c-1.3-0.4-1.1,0.1-2,0.6
			c-0.2,0.1-0.2,0.4-0.5,0.4c0.1-0.6,0.6-0.7,0.8-1.3c-0.4,0-0.6,0.9-0.9,0.8c0-0.1,0.4-0.6,0.4-0.6c0.1,0.6-3.7,3.4-4.2,3.8
			c-0.2,0.2-1.8,1.6-1.5,1.7c0.8,0.3,2.4-2.5,3.2-2.4c-0.6,1-2.1,1.7-2.8,2.3c-0.8,0.8-1.2,2.2-1.9,2.7c-1.1,0.8-0.8,0-1.8-0.3
			c-0.2-0.2-0.7,0.2-1.1-0.4c-0.5-0.7-0.6-1.2-0.4-1.9c0.1-0.3,0.6-0.4,0.6-0.7c-0.1,0-0.4,0.2-0.4,0.2c0.3-0.7,2.9-2,3.2-2.2
			c1.2-0.8,1.8-1.6,2.2-2.9c0.3-1.1,0.4-2.1-0.9-2.7c-1.4-0.6-2.6-0.7-4-1.8c-0.9-0.8-1.6-1.7-2.6-2.4c-0.8-0.5-2.4-2.3-1.5-3.2
			c1-1,2.9-0.6,4.1-0.6c1.5,0.1,3.2-0.2,4.7-0.2c1.8-0.1,3.5-0.1,5.2-0.2c1.7-0.1,3.1-0.1,4.5,0.9C178,35.7,178.8,36.3,178.8,36.5z
			 M173.4,45.6C173.4,45.5,173.4,45.7,173.4,45.6z M185.1,49.2C185.1,49.2,185.1,49.3,185.1,49.2C185.1,49.3,185.1,49.3,185.1,49.2z
			 M165.1,49.4C165.1,49.4,165.1,49.4,165.1,49.4z M164.9,49.6C164.9,49.7,165,49.7,164.9,49.6z"/>
		<path class="st2" d="M172.8,46.5C172.8,46.5,172.7,46.7,172.8,46.5z"/>
		<path class="st2" d="M172.9,46.9C172.8,47,172.7,46.9,172.9,46.9z"/>
		<path class="st2" d="M172.8,47c0,0.1-0.2,0.2-0.3,0.2C172.5,47.2,172.8,47,172.8,47z"/>
		<path class="st2" d="M172.4,47.3C172.4,47.3,172.4,47.3,172.4,47.3C172.5,47.3,172.4,47.3,172.4,47.3z"/>
		<path class="st2" d="M171.8,48C171.7,48,171.8,48,171.8,48C171.8,48,171.8,48,171.8,48z"/>
		<path class="st2" d="M171.5,48.1C171.5,48.1,171.5,48.1,171.5,48.1C171.5,48.1,171.5,48.1,171.5,48.1z"/>
		<path class="st2" d="M171.6,48.1C171.7,48.1,171.5,48.2,171.6,48.1z"/>
		<path class="st2" d="M171.3,48.4C171.4,48.4,171.4,48.4,171.3,48.4C171.4,48.4,171.3,48.4,171.3,48.4z"/>
		<path class="st2" d="M171.3,48.4C171.3,48.5,171.3,48.5,171.3,48.4z"/>
		<path class="st2" d="M170.9,48.7C171.1,48.7,170.7,49,170.9,48.7z"/>
		<path class="st2" d="M170.8,48.8C170.8,48.9,170.6,48.8,170.8,48.8z"/>
		<path class="st2" d="M164.7,49.4C164.7,49.4,164.7,49.4,164.7,49.4C164.7,49.4,164.7,49.4,164.7,49.4z"/>
		<path class="st2" d="M163.4,50.4C163.4,50.4,163.3,50.5,163.4,50.4z"/>
		<path class="st2" d="M163.2,50.5C163.3,50.5,163.2,50.5,163.2,50.5z"/>
		<path class="st2" d="M162.9,51C162.9,51,162.8,51,162.9,51z"/>
	</g>
	<g>
		<path class="st2" d="M221.9,30.1c0.7,0.2,1.5,1.3,1.7,2c0.1,0.5-0.1,1.2-0.1,1.6c0,0.7,0.2,0.8,0.4,1.4c0.4,0.9,0.5,2,0.7,3
			c0.2,1.2,0.7,1.9,0.8,3.1c0.1,1.3-0.1,2.5,0,3.5c0,0.1-0.1,0.2-0.1,0.4c0.5,0-0.2,1.9-0.2,2.3c0,0.8,0.5,1.5,0.5,2.3
			c0.1,1.5-0.4,3.9-0.9,5.1c-0.1,0.3-0.5,0.9-0.6,1.1c-0.3,0.5-0.1,0.6-0.7,0.9c-0.6,0.3-1.7,0.3-2.4,0.5c-2.2,0.9-1.6-1.2-1.6-2.8
			c0-1.6,0.2-2.6,0.5-4.3c0.1-0.5,0.2-1.6,0.2-2.2c0.1-1.1,0.2-1.3-0.9-0.8c-0.6,0.3-1.2,0.9-2.1,0.9c-0.9,0.1-1.6-0.5-2.6-0.5
			c-1.9-0.1-3.9,0.6-5.3-0.8c-1-1-1.8-2.6-0.8-3.7c0.7-0.7,3.9-0.4,5.2-0.3c0.2,0,1.2,0,1.2,0.1c-0.2,0-2-0.2-2,0
			c0,0.1,3.2,0.3,3.4,0.3c0-0.1-1.1-0.3-1.3-0.3c0.2,1,3.4-0.6,3.9-0.9c0.2-0.1,0.8-1,0.8-0.9c0.3-0.1,0.2-1.3,0.3-1.5
			c1.2-0.3,0.1-2.9,0.1-4.1c-0.1-1.5-0.1-3.3,0.2-4.8C220.7,29.5,221,30.1,221.9,30.1z M220,41.4C220,41.4,220,41.4,220,41.4z
			 M219.9,41.5C219.9,41.5,220,41.5,219.9,41.5z M213.3,43C213.4,43,213.3,43,213.3,43z M225.3,43.6
			C225.2,43.7,225.4,43.6,225.3,43.6z M225.4,43.8C225.4,43.7,225.3,43.8,225.4,43.8z M225.2,44.8C225.2,44.9,225.3,44.8,225.2,44.8
			z M220.4,47.1C220.3,47,220.3,47.2,220.4,47.1z"/>
		<path class="st2" d="M216.8,35.6c0,0.1-0.5,0-0.5,0.1c0,0,0,0,0,0c0,0,1.5-0.1,1.5-0.2c0,0.1,1.8,0,2.1,0.3c0.6,0.5,0.1,2-0.5,2.4
			c-0.7,0.5-2,0.4-2.8,0.6c-0.9,0.2-1.5,0.6-2.3,1c-1.3,0.7-3.1,1.7-4.5,0.7c-1-0.7-1.9-3.7-0.4-4.3c0.6-0.3,2.2-0.1,2.8-0.1
			c0.6,0,1.7-0.1,2.6-0.2c0.2,0,0.4-0.1,0.6-0.1c0,0-0.1,0.1-0.1,0.1c0,0,0,0,0,0C215.6,36.1,216.4,35.6,216.8,35.6z M216.2,35.7
			C216.2,35.7,216.1,35.7,216.2,35.7C216.1,35.7,216.2,35.7,216.2,35.7z M216.2,35.7C216.2,35.7,216.2,35.7,216.2,35.7
			C216.2,35.7,216.2,35.7,216.2,35.7z M214.5,36.1C214.5,36,214.4,36.2,214.5,36.1z"/>
		<path class="st2" d="M217,43.3C217,43.3,217,43.3,217,43.3C217,43.3,217,43.3,217,43.3z"/>
		<path class="st2" d="M220.2,47.3C220.2,47.4,220.2,47.4,220.2,47.3z"/>
		<path class="st2" d="M220.2,47.8c-0.1,0.2-0.2,1.1-0.2,1.4C219.7,49.1,219.8,47.8,220.2,47.8z"/>
		<path class="st2" d="M219.9,49.4C219.9,49.4,219.9,49.5,219.9,49.4z"/>
		<path class="st2" d="M220,49.6C219.9,49.6,220,49.7,220,49.6z"/>
		<path class="st2" d="M219.9,50.6C219.9,50.6,219.9,50.6,219.9,50.6C219.9,50.6,219.9,50.6,219.9,50.6z"/>
	</g>
	<g>
		<path class="st2" d="M160,54.7c1.2,0.2,2.2,1.1,3.3,1.4c1.4,0.4,2.8,0.6,4.3,0.9c2.5,0.5,5.3,0.4,7.8,0.4c2.4,0,4.9-0.1,7.4-0.7
			c1.5-0.3,6.5-1.9,6.8,0.6c0.1,0.5-0.4,1.4-0.4,1.4c-0.2,0.4,0.5,0.6-0.8,0.8c-1.5,0.2-2.3,0-3.7,0.5c-1.3,0.5-3.1,0.2-4.4,0.3
			c-1.7,0.1-1.3,0.8-1.3,1.9c0,2.2,0,4.3,0,6.6c0,2.6-1.3,3.9-3.7,5.2c-0.8,0.5-2,0.9-3-0.2c-1-1.1,0.2-2.2,0.2-3.3
			c0.1-1.3-0.4-2.6-0.6-3.8c-0.2-1.2-0.2-2.5-0.4-4c0-0.2-0.2-1.9-0.4-1.8c-0.4,0.4-2.3-0.4-2.9-0.5c-1.3-0.1-2.6,0.3-3.8,0.3
			c-2.5,0.1-4.1-1.5-5.1-3.7c-0.2-0.4-0.4-1-0.3-1.5C158.9,54.6,159.5,54.8,160,54.7z M178.2,57.2C178.2,57.2,178.4,57.2,178.2,57.2
			z M176.7,57.3C176.7,57.3,176.7,57.3,176.7,57.3z M180.5,59.5c0,0-0.2,0-0.2,0.1C180.3,59.6,180.6,59.5,180.5,59.5z M180.7,59.6
			C180.8,59.6,180.7,59.5,180.7,59.6z M179.4,59.6C179.4,59.7,179.4,59.6,179.4,59.6z M179.3,59.7C179.4,59.7,179.3,59.6,179.3,59.7
			z M180.3,60C180.5,60,180.4,59.9,180.3,60z"/>
	</g>
	<g>
		<path class="st2" d="M199.2,58.5c2,0.3,2.7,1,3,2.9c0.2,1,0.6,1.7,0.8,2.6c0.2,0.7-0.1,2,0.2,2.5c0.4,0.5,2.5,0.3,3.2,0.4
			c0,0.1-0.1,0-0.1,0.1c0,0,0.2,0,0.2,0c0,0,0.1,0,0.1,0c0,0-0.1,0-0.2,0c0-0.1,0.8,0,0.8,0c0,0-0.1,0-0.1,0c0-0.1,2,0.1,2.1-0.1
			c0-0.1-1.1,0-1.2,0c0-0.3,1.4,0,1.4,0c0-0.1-0.2-0.1-0.2-0.1c0.1-0.2,0.8,0,0.7,0.1c-0.1-0.1-0.5-0.1-0.5,0.1c0.3-0.1,0.7,0,1,0
			c0-0.1,0-0.1-0.1-0.1c0.1-0.2,2.6-0.4,2.8-0.4c0,0.2,1.9,0.1,1.9-0.1c0,0-0.1,0-0.1-0.1c0.2,0,0.5-0.1,0.7-0.1
			c0,0.1-0.1,0.1-0.1,0.1c0,0,0,0,0,0c1.1,0,2.6-0.8,3.6-1.1c1.1-0.4,2.2-0.8,3.2-1.2c1.1-0.4,2.2-0.7,3.4-0.9
			c0.9-0.2,2.4-0.5,2.9,0.8c0.2,0.7-0.3,2.4-0.6,3.1c-0.4,1-1.2,1.6-2.3,2.1c-1.4,0.5-2.7,0.8-4.1,1.1c-1.3,0.3-2.6,1-4,1.3
			c-1.2,0.3-2.5,0.5-3.8,0.5c-1.4,0-3.3-0.3-4.3-0.4c-0.4,0-0.4,0.1-0.8,0.1c0,0-0.1,0-0.1,0c0-0.1,0.1-0.1,0.1-0.2
			c-1.4-0.3-3.5,0.3-4.9,0.4c-1.6,0.2-3.1-0.1-4.3-0.4c-0.6-0.1-0.7-0.1-1.1-0.4c-0.2-0.2-0.5-1-0.6-1c0,0.1-0.1-1.1-0.1-1.1
			c0,0.3,0.1,0.5,0.1,0.7c0,0,0,0,0,0c0.2,0,0-0.3,0-0.4c0.1,0,0.1,0,0.1-0.1c0.1,0,0.1,0,0.1,0.1c0,0,0.2-0.3,0.2-0.4
			c-0.1-0.1-0.1,0-0.2,0c-0.3-0.1-0.4-3.6-0.4-3.6c0-0.3-0.1-0.7-0.1-1.1c-0.2,0,0,0.5-0.2,0.5c0-0.1-0.1-1.1,0-1.1
			c0,0.1,0.1,0.6,0.1,0.6c0-0.1,0.1-0.9,0-0.9c-0.1,0-0.1,0.2-0.1,0.1c-0.2-0.2-1-3.9-0.7-4.2c0.1-0.1,0.4-0.1,0.5-0.1
			C197.3,57.5,198.3,58.8,199.2,58.5z M197.5,63C197.6,63.3,197.6,62.9,197.5,63z M197.6,63.2C197.7,63.2,197.6,63.1,197.6,63.2z
			 M221.3,64.8c-0.1,0.3-0.6,0.3-0.6,0.1c-0.1,0-1.4,0.4-1.4,0.4c0.1,0,0.4-0.1,0.5,0c-0.1,0-2.9,1-2.9,1c0.1,0.3,2.7-0.9,2.9-0.9
			c0,0,0,0.1,0,0.1c-0.1-0.1-0.5,0.3-0.7,0.3c0,0,0,0,0,0c0,0,0,0,0,0c0.2,0.1,2.2-0.6,2.2-0.6c0,0-0.1,0-0.1,0
			c-0.1-0.2,0.5-0.1,0.5-0.1c0-0.1,0-0.2,0.1-0.2c0,0.1-0.1,0-0.1,0.1c0-0.2,0.8-0.1,0.9-0.1c0-0.1-0.2,0-0.2-0.1c0,0,0,0,0,0
			c0.6-0.5,2.5-0.4,2.7-1c-0.3,0.1-0.7-0.2-1.1-0.1c-0.5,0.1-1,0.2-1.5,0.4c-0.3,0.1-0.7,0.4-0.8,0.3c0-0.1-0.1,0.3-0.1,0.1
			c0.1,0,0.1,0,0.1,0c0,0.1,0,0.1-0.1,0.1C221.6,64.7,221.2,64.8,221.3,64.8z M197.6,64.2C197.6,64.1,197.6,64.2,197.6,64.2z
			 M224.6,64.2C224.7,64.2,224.6,64.1,224.6,64.2z M224.5,64.3C224.5,64.3,224.5,64.2,224.5,64.3z M224.4,64.3
			C224.5,64.3,224.3,64.2,224.4,64.3z M221.9,64.3C221.9,64.5,221.9,64.3,221.9,64.3z M224.1,64.3C224.1,64.3,224.1,64.3,224.1,64.3
			z M221.8,64.3C221.8,64.3,221.8,64.3,221.8,64.3C221.8,64.3,221.9,64.4,221.8,64.3z M221.6,65.2C221.6,65.2,221.6,65.2,221.6,65.2
			C221.6,65.2,221.6,65.2,221.6,65.2z M221.3,65.2C221.3,65.2,221.3,65.2,221.3,65.2C221.3,65.2,221.3,65.2,221.3,65.2z M217.4,65.8
			c-0.1,0-0.3,0.1-0.3,0.1C217.1,65.9,217.8,65.9,217.4,65.8z M215.6,66.1C215.3,66.1,215.4,66.1,215.6,66.1z M215.3,66.1
			C215.1,66.1,215.3,66.2,215.3,66.1z M216.8,66.3C216.8,66.3,216.9,66.3,216.8,66.3z M216.7,66.3C216.6,66.3,216.8,66.3,216.7,66.3
			z M212.9,66.4C213,66.4,212.7,66.4,212.9,66.4z M211.3,66.6C211,66.6,211.5,66.6,211.3,66.6z M211,66.6
			C211,66.7,211.1,66.6,211,66.6z M207.4,66.9C207.4,66.9,207.4,66.8,207.4,66.9z M198.2,69.4C198.3,69.4,198.2,69.4,198.2,69.4z
			 M198.3,69.5C198.3,69.6,198.3,69.6,198.3,69.5z M198.1,69.7C198.1,69.7,198,69.7,198.1,69.7z M198.2,69.8
			C198.3,69.8,198.3,69.7,198.2,69.8C198.2,69.8,198.2,69.8,198.2,69.8z M198.1,69.8C198.1,69.7,198,69.9,198.1,69.8z M198.5,70.8
			c0,0,0.4,0.3,0.4,0.1C198.9,70.9,198.5,70.8,198.5,70.8z"/>
		<path class="st2" d="M197.5,63.5C197.5,63.5,197.5,63.5,197.5,63.5z"/>
		<path class="st2" d="M197.4,63.7C197.5,63.6,197.4,63.7,197.4,63.7z"/>
		<path class="st2" d="M224.4,63.7C224.4,63.9,224.3,63.7,224.4,63.7z"/>
		<path class="st2" d="M197.4,63.8C197.5,63.8,197.4,64.1,197.4,63.8z"/>
		<path class="st2" d="M197.4,64C197.5,64.1,197.4,64.2,197.4,64z"/>
		<path class="st2" d="M223.1,64.1c0,0.2-0.3,0.3-0.5,0.2c0,0,0,0,0,0c0,0,0,0,0,0C222.7,64.2,222.9,64.1,223.1,64.1z"/>
		<path class="st2" d="M223.5,64.2c0,0.1-0.3,0.3-0.2,0.3c0,0-0.1-0.1-0.1-0.1C223.3,64.3,223.3,64.2,223.5,64.2z"/>
		<path class="st2" d="M221.3,64.8C221.3,64.8,221.4,64.8,221.3,64.8z"/>
		<path class="st2" d="M197.6,64.9C197.6,64.9,197.6,65.2,197.6,64.9z"/>
		<path class="st2" d="M221.3,65.1C221.2,65.2,221.1,65.1,221.3,65.1z"/>
		<path class="st2" d="M197.6,65.1C197.6,65.1,197.6,65.2,197.6,65.1z"/>
		<path class="st2" d="M220.9,65.2C220.8,65.2,220.8,65.6,220.9,65.2z"/>
		<path class="st2" d="M221.1,65.3C221.1,65.3,221.2,65.2,221.1,65.3z"/>
		<path class="st2" d="M219.9,65.5C219.9,65.5,219.9,65.5,219.9,65.5C219.9,65.5,219.9,65.5,219.9,65.5z"/>
		<path class="st2" d="M219.9,65.5C219.9,65.5,219.8,65.5,219.9,65.5C219.8,65.5,219.8,65.5,219.9,65.5z"/>
		<path class="st2" d="M197.5,65.5C197.5,65.5,197.5,65.5,197.5,65.5C197.5,65.5,197.5,65.5,197.5,65.5z"/>
		<path class="st2" d="M216,65.9C216,66,215.9,65.9,216,65.9z"/>
		<path class="st2" d="M215.1,66.1C215,66.3,214.7,66,215.1,66.1z"/>
		<path class="st2" d="M214.4,66.1c-0.1,0.1-0.9,0.3-0.9,0.1C213.8,66.1,214.2,66.1,214.4,66.1z"/>
		<path class="st2" d="M197.7,66.2c0.1,0,0.1,0.5,0.1,0.6c-0.1,0-0.1,0-0.1,0.1C197.6,66.8,197.6,66.4,197.7,66.2z"/>
		<path class="st2" d="M212,66.3c0.2,0-0.2,0.1-0.2,0.1C211.6,66.4,212,66.3,212,66.3z"/>
		<path class="st2" d="M210.4,66.5C210.4,66.5,210.4,66.7,210.4,66.5z"/>
		<path class="st2" d="M208.1,66.7C208.1,66.8,207.9,66.7,208.1,66.7z"/>
		<path class="st2" d="M210.1,66.7C210.1,66.7,210.1,66.7,210.1,66.7C210.1,66.7,210.1,66.7,210.1,66.7z"/>
		<path class="st2" d="M207.9,66.7C207.9,66.9,208,66.7,207.9,66.7z"/>
		<path class="st2" d="M197.7,66.9c0,0,0,0.4,0,0.4c0,0,0,0,0,0c0,0,0-0.1,0.1-0.1c0,0.1,0.1,0.2,0.1,0.4c-0.1,0-0.1-0.1-0.1,0
			C197.5,67.5,197.7,67,197.7,66.9z"/>
		<path class="st2" d="M198,68.2C198,68.2,198,68.5,198,68.2z"/>
		<path class="st2" d="M197.8,68.3C197.9,68.3,197.8,68.5,197.8,68.3z"/>
		<path class="st2" d="M198,68.4C198,68.4,198,68.4,198,68.4z"/>
		<path class="st2" d="M197.8,68.5C197.9,68.5,197.8,68.8,197.8,68.5z"/>
		<path class="st2" d="M198,68.6C197.9,68.6,198,68.5,198,68.6z"/>
	</g>
	<g>
		<path class="st2" d="M205.2,49.4c-0.1,0.1-0.2,0-0.2,0.2c0,0,0.1,0,0.2,0c0,0.1-0.7,0.2-0.7,0.2c0,0,0,0,0,0.1
			c1.2-0.3,2.7-0.5,3.7-1c0.3-0.1,0.3-0.2,0.5-0.4c0.3-0.1,1.2,0,1.4,0.3c0.3,0.5,0.1,1.2-0.2,1.7c-0.3,0.5-0.6,0.9-1,1.3
			c-0.4,0.5-0.7,0.7-1.2,1.1c-0.5,0.4-1.1,0.7-1.7,1c-0.1,0.1-0.2,0-0.3,0.1c0,0,0.1-0.1,0.1-0.1c0,0.2-4.2,0.8-4.3,0.8
			c-1,0.1-1.6,0.1-2.5,0.1c-1,0-2.1-0.6-3.2-0.7c-0.3,0-4.3,1-3.9-0.5c0.2-0.1,0.3-3.5,0.3-4.2c0-1.6-0.4-2.8-0.5-4.2
			c0-2-0.3-3.8-0.1-5.9c0.1-1.1,0.4-1.6,1.2-2.3c0.9-0.8,1.5-0.5,2.6,0.3c1.4,0.9,2.2,1.9,3,3.5c0.1,0.2,0.3,0.3,0.2,0.5
			c0.7,0,0,1.8,0,2c0,0,0.1-0.1,0.2,0.2c0.1,0,0-0.2,0.2-0.2c0.1,1.8,0.6,3.6,0.4,5.5c-0.2,1.4-0.3,1.5,1.2,1.3
			c0.7-0.1,1.6-0.2,2.4-0.3C203.4,49.7,205.2,49.5,205.2,49.4z M198.9,43.4C198.7,43.3,198.9,43.5,198.9,43.4z M202.8,49.9
			C202.9,49.9,202.8,49.8,202.8,49.9z M203.5,49.8C203.5,49.8,203.5,49.8,203.5,49.8C203.5,49.8,203.5,49.8,203.5,49.8z"/>
		<path class="st2" d="M199.1,42.5C199.1,42.5,199.1,42.6,199.1,42.5z"/>
		<path class="st2" d="M208.1,48.6c0,0,0.5-0.1,0.5-0.1c0,0.1-0.9,0.4-0.7,0.4c-0.1,0.2-1.3,0.4-1.4,0.4c0-0.1,0,0,0-0.1
			C206.5,49.2,207.9,48.6,208.1,48.6z M207.8,48.8C207.8,48.7,207.8,49,207.8,48.8z"/>
		<path class="st2" d="M205.2,49.4c0.4,0,0.9-0.2,1.3-0.3c0,0,0,0.1,0,0.1c0,0,0,0,0,0.1C206.4,49.2,205.2,49.6,205.2,49.4z"/>
		<path class="st2" d="M206,49.4C206,49.5,205.8,49.4,206,49.4z"/>
		<path class="st2" d="M193,54.2C193,54.2,192.9,54.3,193,54.2z"/>
		<path class="st2" d="M205.8,53.8c0,0.1-0.5,0.3-0.6,0.2c0,0,0,0,0,0C205.2,54,205.7,53.9,205.8,53.8z"/>
	</g>
</g>
</svg>
