<?xml version="1.0" encoding="utf-8"?>
<!-- Generator: Adobe Illustrator 22.0.1, SVG Export Plug-In . SVG Version: 6.00 Build 0)  -->
<svg version="1.1" id="레이어_1" xmlns="http://www.w3.org/2000/svg" xmlns:xlink="http://www.w3.org/1999/xlink" x="0px"
	 y="0px" viewBox="0 0 500 500" style="enable-background:new 0 0 500 500;" xml:space="preserve">
<style type="text/css">
	.st0{fill:#2A632A;}
	.st1{fill:#CF111B;}
	.st2{fill:#FFFFFF;}
	.st3{fill:#FFD800;}
</style>
<g>
	<path class="st0" d="M345.2,293.3l4.7,35.3c0,0-102.5,31.1-191.9,161.4c0,0-5.5-6.2-8.7-7c-2.9-0.8,44.3-91.3,128.7-144.2
		c0,0-23.7,6.8-87.2,35.6l-23.4-35.1C186.2,328.7,278.9,297.7,345.2,293.3"/>
	<path class="st1" d="M380.9,164.3c0,0-5.7,2.2-15.5,5.4c5.1-24.4,0.6-61.8,0.6-61.8c-20.4-11.8-45.2-18.7-71.4-22.4
		c1.8-0.6,2.8-0.9,2.8-0.9l12.5-10.1c5.5-22.5-19.5-63.6-19.5-63.6c-66.3,53.5-159.2,79.4-178.8,84.4c-2.8,0.6-4.4,1-4.4,1l1.6,69.6
		L98,170.1l14,81.5c3.1,2.3,24.5,6.6,24.5,6.6h0c0.2,0,39.2,6,54.3,2.5l-32.9,11l-18.7,63.6c0,0,173.8-12.8,261.1-108.4L380.9,164.3
		z"/>
	<path class="st2" d="M219.6,172.4c0,0,18.9-10.9,21.4-10.9h2.6l6-17.1l48,8.6l11.6,48.1c0,0-32.2,27.1-89.6,33.4
		C219.6,234.5,232.4,213.5,219.6,172.4"/>
	<path class="st3" d="M205.5,164.6c0,0,18.9-10.9,21.4-10.9h2.6l6-17.1l48,8.5l11.6,48.1c0,0-32.2,27.2-89.6,33.4
		C205.5,226.7,218.4,205.8,205.5,164.6"/>
</g>
</svg>
