<?xml version="1.0" encoding="utf-8"?>
<!-- Generator: Adobe Illustrator 22.0.1, SVG Export Plug-In . SVG Version: 6.00 Build 0)  -->
<svg version="1.1" id="레이어_1" xmlns="http://www.w3.org/2000/svg" xmlns:xlink="http://www.w3.org/1999/xlink" x="0px"
	 y="0px" viewBox="0 0 1000 1000" style="enable-background:new 0 0 1000 1000;" xml:space="preserve">
<style type="text/css">
	.st0{fill:#CF111B;}
	.st1{fill:#FFFFFF;}
	.st2{fill:#FFD800;}
</style>
<g>
	<path class="st0" d="M869.6,475.8c0,0-16,6.2-43.4,15.3c14.2-68.5,1.7-173.2,1.7-173.2c-57.2-33-126.8-52.3-200.1-62.8
		c5-1.6,7.8-2.5,7.8-2.5l34.9-28.2C685.9,161.3,616,46,616,46C430.2,196.1,169.7,268.5,114.8,282.6c-8,1.6-12.3,2.7-12.3,2.7
		l4.4,195.2L76.3,492l39.3,228.4c8.7,6.5,68.8,18.5,68.8,18.5h0.1c0.6,0.1,109.9,16.9,152.3,7.1l-92.3,31l-52.4,178.4
		c0,0,487.3-35.9,732-304L869.6,475.8z"/>
	<path class="st1" d="M417.2,498.5c0,0,52.9-30.4,60.1-30.4h7.2l16.9-47.9l134.6,24L668.4,579c0,0-90.2,76.1-251.2,93.5
		C417.2,672.5,453.2,613.8,417.2,498.5"/>
	<path class="st2" d="M377.8,476.8c0,0,52.9-30.5,60.1-30.5h7.2l16.8-47.8l134.6,23.9l32.5,134.9c0,0-90.2,76.2-251.3,93.6
		C377.8,650.8,413.8,592,377.8,476.8"/>
</g>
</svg>
