<?xml version="1.0" encoding="utf-8"?>
<!-- Generator: Adobe Illustrator 22.0.1, SVG Export Plug-In . SVG Version: 6.00 Build 0)  -->
<svg version="1.1" id="레이어_1" xmlns="http://www.w3.org/2000/svg" xmlns:xlink="http://www.w3.org/1999/xlink" x="0px"
	 y="0px" viewBox="0 0 274 55" style="enable-background:new 0 0 274 55;" xml:space="preserve">
<style type="text/css">
	.st0{fill:#FFFFFF;}
</style>
<g>
	<g>
		<path class="st0" d="M27.6,32c-0.1-0.5-0.4-0.8-0.8-0.9c-0.5-0.2-0.9-0.3-1.2-0.4l-0.1-0.1c-0.1,0-0.2,0-0.3,0
			c-0.1,0-0.2-0.1-0.4-0.1c-0.3,0-0.5,0-0.7,0c-0.2,0-0.4,0-0.8,0c0,0-0.2,0-0.4,0c-0.2,0-0.4,0-0.5,0c-0.3,0-0.5,0-0.8,0.1
			c-0.3,0-0.5,0.1-0.7,0.2c-0.3,0.1-0.6,0.1-0.9,0.1c-0.2,0-0.5,0-0.9,0.1c-0.4,0.1-0.7,0.1-0.9,0.2c-0.2,0-0.4,0.1-0.7,0.2
			c-0.1,0-0.3,0.1-0.6,0.1c-0.2,0-0.4,0.1-0.6,0.1c-0.2,0-0.4,0.1-0.6,0.1c-0.2,0-0.4,0.1-0.5,0.1c-0.3,0.1-0.5,0.1-0.8,0.1
			c0-0.2,0.1-0.3,0.2-0.5c0.2-0.3,0.3-0.6,0.3-0.7c0.2-0.5,0.3-1,0.4-1.5c0.1-0.5,0.2-1,0.3-1.6c0.1-0.7,0.2-1.3,0.2-2v-2.8
			c0-0.5,0-1-0.1-1.3c0-0.2-0.1-0.3-0.1-0.5c0-0.2-0.1-0.3-0.2-0.5c-0.1-0.3-0.2-0.5-0.2-0.7c0-0.2-0.1-0.4-0.3-0.7
			c-0.1-0.1-0.2-0.2-0.2-0.4s-0.1-0.4-0.2-0.5c-0.1-0.1-0.2-0.3-0.2-0.4c0-0.1-0.1-0.3-0.3-0.5c-0.2-0.3-0.6-0.4-1.1-0.3
			c-0.5,0.2-0.8,0.3-1,0.6c0,0.1-0.2,0.2-0.4,0.5c-0.1,0.2-0.2,0.3-0.3,0.4c-0.1,0.1-0.2,0.2-0.2,0.3c-0.2,0.3-0.3,0.5-0.4,0.6
			s-0.2,0.4-0.3,0.7c-0.1,0.3-0.2,0.7-0.4,1c-0.1,0.3-0.2,0.6-0.3,1c-0.2,0.6-0.4,1.2-0.6,1.8c-0.2,0.6-0.3,1.1-0.6,1.8
			c-0.1,0.4-0.2,0.8-0.3,1.2c-0.1,0.4-0.1,0.8-0.2,1.1c-0.2,0.6-0.4,1.3-0.7,1.9c-0.2,0.6-0.4,1.1-0.7,1.5c-0.2,0.3-0.4,0.6-0.6,0.9
			c-0.2,0.3-0.4,0.5-0.5,0.7c-0.2,0.1-0.3,0.2-0.5,0.3c-0.1,0.1-0.2,0.2-0.3,0.3c-0.1,0.1-0.2,0.2-0.2,0.2c-0.3,0.2-0.5,0.4-0.8,0.6
			c-0.3,0.2-0.6,0.4-0.8,0.7c-0.3,0.3-0.6,0.7-1,1.2c-0.4,0.4-0.7,0.9-0.8,1.3c-0.1,0.4-0.1,0.7-0.1,1c0,0.3,0.1,0.6,0.2,0.9
			c0,0.1,0.1,0.3,0.1,0.5c0,0.2,0.1,0.3,0.2,0.5c0.1,0.1,0.2,0.2,0.2,0.3s0.1,0.1,0.2,0.2C2,40.9,2.3,41,2.8,41.1
			c0.5,0,0.8,0.1,1,0.1c0.4,0,0.7-0.1,0.9-0.1c0.2,0,0.4,0,0.5,0c0.3,0,0.7-0.1,1.1-0.1c0.4,0,0.8-0.1,1.1-0.1
			c0.2-0.1,0.6-0.2,1.2-0.2c0.6,0,1.1-0.2,1.5-0.3c0.1,0,0.3-0.1,0.4-0.1c0.2,0,0.3-0.1,0.5-0.1c0.4-0.1,0.9-0.3,1.3-0.4
			c0.4-0.1,0.8-0.2,1.2-0.3c0.5-0.2,1-0.3,1.4-0.5c0.5-0.2,1-0.3,1.4-0.4c0.4-0.1,0.7-0.2,0.9-0.3c0.2-0.1,0.5-0.2,0.9-0.3
			c0.7-0.2,1.2-0.3,1.4-0.4c0.2-0.1,0.5-0.2,0.9-0.3c0.6-0.2,1.1-0.3,1.6-0.4c0.5-0.1,1-0.1,1.6-0.2c0.3,0,0.6-0.1,0.9-0.2
			c0.3-0.1,0.6-0.2,0.9-0.2c0.3-0.1,0.7-0.2,1.1-0.2c0.4,0,0.7-0.2,1-0.4c0.4-0.3,0.6-0.7,0.6-1.3c0-0.4-0.1-0.8-0.2-1.2
			C27.8,32.7,27.7,32.4,27.6,32z M27.9,49.2c-0.1-0.3-0.2-0.4-0.5-0.4s-0.5,0-0.8,0.1c-0.1,0-0.2,0.1-0.4,0.1c-0.2,0-0.3,0-0.5,0.1
			c-0.3,0.1-0.6,0.2-0.9,0.2c-0.3,0.1-0.6,0.1-1,0.2l-1.8,0.3c-0.5,0.2-1.1,0.3-1.6,0.3c-0.5,0-1,0.1-1.3,0.2
			c-0.2,0-0.5,0.1-0.9,0.2c-0.4,0.1-0.7,0.1-0.9,0.1c-0.4,0.1-0.7,0.1-1,0.2c-0.3,0-0.5,0.1-0.7,0.1c-0.3,0.1-0.7,0.1-0.9,0.1
			c-0.3,0-0.6,0-1.1,0.1c-0.1,0-0.3,0-0.5,0c-0.3,0-0.4,0-0.5,0l-1.7,0.1H9.5c-0.5,0-0.9,0-1.3-0.1c-0.4-0.1-0.6-0.4-0.8-0.9
			c-0.1-0.2,0-0.7,0.2-1.3c0.1-0.3,0.2-0.5,0.4-0.7c0.2-0.2,0.3-0.3,0.4-0.5c0.2-0.3,0.3-0.6,0.4-0.8c0-0.2,0-0.4,0-0.8
			c0-0.1,0-0.3-0.1-0.5c-0.1-0.2-0.2-0.3-0.3-0.4C8.3,45.1,8,45,7.6,45c-0.3,0-0.5,0-0.6,0c0,0-0.1,0-0.2,0c-0.1,0-0.1,0-0.2,0
			c-0.1,0-0.2,0-0.3,0.1c-0.1,0.1-0.2,0.1-0.2,0.1c-0.2,0-0.3,0-0.5,0.1l-0.3,0.3c-0.2,0.3-0.4,0.6-0.6,0.9
			c-0.2,0.3-0.3,0.6-0.5,0.9c-0.1,0.3-0.2,0.6-0.3,0.9C4,48.8,4,49,4,49l-0.1,0.8c-0.1,0.3-0.1,0.5-0.1,0.8c0,0.3,0,0.6,0.1,0.9
			c0.1,0.5,0.3,0.9,0.5,1.2c0.1,0.1,0.2,0.3,0.4,0.5c0.1,0.2,0.3,0.3,0.5,0.4c0.2,0.1,0.4,0.2,0.6,0.3c0.2,0.1,0.4,0.2,0.6,0.3
			c0.3,0.1,0.6,0.2,0.8,0.2c0.2,0.1,0.4,0.1,0.7,0.1h0.5c0.4,0,0.7,0,1,0c0.3,0,0.6,0,0.9,0c0.3,0,0.7,0,1,0c0.3,0,0.7,0,1,0
			c0.5,0,1,0,1.5-0.1c0.5,0,1-0.1,1.4-0.1c0.5-0.1,0.9-0.2,1.2-0.2c0.3,0,0.5-0.1,0.7-0.1c0.2,0,0.4,0,0.6-0.1
			c0.2,0,0.4-0.1,0.6-0.1c0.1,0,0.3-0.1,0.7-0.1c0.3,0,0.6-0.1,1-0.1c0.3,0,0.7-0.1,1.1-0.2c0.4-0.1,0.7-0.1,0.9-0.2
			c0.3-0.1,0.6-0.1,0.8-0.1c0.2,0,0.3,0,0.5-0.1c0.3,0,0.5-0.1,0.7-0.1c0.2,0,0.4-0.1,0.7-0.1c0.1,0,0.3-0.1,0.5-0.1
			c0.2,0,0.4-0.1,0.5-0.1c0,0,0.1-0.1,0.2-0.1c0.1,0,0.2,0,0.2,0c0.2-0.1,0.4-0.2,0.6-0.3c0.2-0.1,0.4-0.2,0.6-0.3
			c0.1-0.1,0.2-0.2,0.3-0.2c0.1-0.1,0.2-0.2,0.3-0.3c0.1-0.1,0.2-0.2,0.2-0.3s0.1-0.2,0.2-0.4l0.2-0.3v-0.3c0-0.1,0-0.2-0.1-0.3
			C28,49.7,27.9,49.5,27.9,49.2z M8.8,14c0,0.3,0.2,0.6,0.4,0.9c0.2,0.2,0.5,0.4,0.8,0.5c0.3,0.1,0.6,0.1,0.7,0.1
			c0.5,0,0.9-0.1,1.3-0.2c0.4-0.1,0.7-0.2,1-0.3c0.4-0.2,0.7-0.3,0.8-0.3c0.2,0,0.4-0.1,0.6-0.2c0.2-0.1,0.4-0.2,0.6-0.3
			c0.5-0.2,1-0.4,1.3-0.6c0.3-0.2,0.7-0.4,1-0.6c0,0,0.1-0.1,0.2-0.2c0.1-0.1,0.2-0.2,0.2-0.2c0.3-0.3,0.7-0.7,1.1-1
			c0.4-0.3,0.7-0.7,1-1c0.2-0.2,0.4-0.5,0.6-0.7c0.2-0.3,0.3-0.5,0.5-0.7c0.3-0.4,0.4-0.8,0.4-1.3c0-0.5,0-0.9,0-1.2
			c0-0.7-0.2-1.4-0.6-2.1c-0.3-0.5-0.8-0.9-1.3-1.2c-0.2-0.1-0.4-0.2-0.6-0.3c-0.2-0.1-0.3-0.2-0.4-0.2c-0.2-0.1-0.4-0.2-0.7-0.3
			c-0.2-0.1-0.5-0.2-0.7-0.3L17,2.2C16.9,2.1,16.8,2,16.8,2c-0.2-0.3-0.3-0.7-0.5-1.1c-0.2-0.4-0.5-0.6-1-0.6c-0.2,0-0.4,0-0.7,0
			c-0.2,0-0.4,0.1-0.6,0.3c-0.1,0.1-0.2,0.4-0.2,0.7c-0.1,0.3-0.1,0.6-0.2,0.7c-0.2,0.3-0.4,0.7-0.6,1c-0.2,0.3-0.4,0.6-0.7,1
			c-0.3,0.4-0.6,0.8-0.8,1.1c-0.3,0.4-0.5,0.7-0.8,1.1c-0.3,0.4-0.5,0.9-0.7,1.3C9.8,8,9.6,8.4,9.4,8.8C9.3,9.1,9.2,9.3,9.1,9.6
			C9,9.9,8.9,10.1,8.8,10.4c-0.1,0.2-0.2,0.4-0.2,0.7c0,0.2-0.1,0.5-0.1,0.8v0.6c0,0.2,0,0.3,0.1,0.6C8.7,13.4,8.8,13.7,8.8,14z
			 M12.2,10.7c0-0.2,0.1-0.4,0.1-0.6c0-0.2,0.1-0.4,0.3-0.7c0-0.1,0.1-0.2,0.2-0.5c0.1-0.2,0.2-0.5,0.4-0.7c0.1-0.3,0.3-0.6,0.4-0.8
			c0.1-0.2,0.3-0.5,0.4-0.7c0.1-0.2,0.2-0.4,0.4-0.6c0.2-0.2,0.3-0.3,0.4-0.6c0.1-0.2,0.2-0.4,0.4-0.6c0.2-0.2,0.3-0.4,0.4-0.5
			c0.1,0.2,0.2,0.4,0.5,0.7c0.2,0.2,0.4,0.4,0.6,0.6c0.3,0.3,0.4,0.7,0.4,1c0,0.1,0,0.3-0.1,0.6c-0.1,0.2-0.2,0.4-0.3,0.6
			c-0.3,0.4-0.6,0.8-1,1.2L14.6,10c-0.2,0.2-0.5,0.4-0.8,0.6c-0.3,0.2-0.7,0.4-1,0.5c-0.2,0.1-0.4,0.1-0.5-0.1
			C12.2,11,12.2,10.9,12.2,10.7z M84.1,24.2c0-0.1-0.1-0.2-0.1-0.3c0-0.1,0-0.2-0.1-0.3v-0.1c-0.1-0.1-0.2-0.2-0.4-0.4
			c-0.2-0.1-0.3-0.2-0.5-0.3c-0.3-0.1-0.6-0.2-0.9-0.3c-0.3,0-0.7-0.1-1-0.1l-1,0.2l-1-0.1c-0.2,0-0.4,0-0.5,0.1
			c-0.1,0-0.2,0.1-0.4,0.1c-0.2,0-0.3,0-0.6,0.1c-0.2,0-0.4,0.1-0.6,0.1c-0.2,0-0.3,0.1-0.5,0.1c-0.1,0-0.2,0.1-0.4,0.1
			c-0.2,0-0.3,0.1-0.4,0.1c-0.2,0-0.5,0.1-0.7,0.1c-0.3,0-0.6,0.1-0.9,0.2L72.7,24l-1.2,0.4c-0.5,0.2-0.9,0.4-1.2,0.6
			c-0.3,0.1-0.4,0.5-0.4,1.2c0,0.2,0,0.3,0.1,0.3c0.1,0,0.1,0.1,0.2,0.2c0.1,0.1,0.2,0.2,0.4,0.3c0.1,0,0.2,0.1,0.2,0.2
			c0.1,0.1,0.1,0.2,0.2,0.2c0.1,0.1,0.3,0.2,0.5,0.2c0.2,0,0.4,0.1,0.6,0.1l0.4,0.1h1.2l1.1-0.2c0.3,0,0.5,0,0.6,0.1
			c0.2,0.1,0.4,0.1,0.6,0c0.2,0,0.3,0,0.5,0c0.2,0,0.3,0,0.5,0h0.4c0.2,0,0.4,0,0.6,0.1c0.3,0.1,0.7,0.1,1,0.1h1c0.3,0,0.6,0,0.8,0
			c0.2,0,0.4,0,0.6,0l0.6-0.1c0.2,0,0.4-0.1,0.5-0.2c0.1-0.1,0.2-0.1,0.5-0.2c0.1,0,0.2-0.1,0.3-0.2c0.1-0.1,0.2-0.1,0.3-0.2
			c0.1-0.1,0.2-0.1,0.2-0.1c0,0,0.1-0.1,0.2-0.2c0.1-0.1,0.2-0.2,0.2-0.4c0.1-0.2,0.1-0.3,0.1-0.5c0-0.2,0-0.4,0-0.5
			c0-0.1,0-0.3,0-0.5C84.3,24.7,84.2,24.5,84.1,24.2z M68.7,21.6c0-0.3-0.1-0.6-0.1-0.8v-0.6c0-0.6,0-1-0.1-1.3
			c0-0.3-0.1-0.6-0.1-0.9c0-0.5-0.1-1-0.3-1.4c-0.2-0.5-0.3-1-0.5-1.4c-0.1-0.3-0.2-0.6-0.3-0.9c-0.1-0.3-0.3-0.6-0.4-0.9
			c-0.2-0.3-0.3-0.7-0.5-1c-0.2-0.3-0.4-0.7-0.6-1c-0.1-0.2-0.3-0.3-0.4-0.5c-0.1-0.2-0.3-0.3-0.5-0.5C64.6,9.8,64,9.4,63.4,9
			C62.7,8.7,62,8.5,61,8.5h-0.6c-0.3,0-0.7,0.1-1.2,0.2c-0.5,0.1-0.8,0.3-0.9,0.5c-0.1,0.2-0.2,0.3-0.2,0.5c0,0.2,0,0.4,0,0.6
			c0,0.3,0.1,0.6,0.3,0.7c0.2,0.2,0.4,0.3,0.6,0.4c0.3,0.2,0.6,0.5,0.8,0.7c0.1,0.1,0.2,0.4,0.4,0.8c0.1,0.4,0.3,0.9,0.4,1.4
			c0,0.2,0.1,0.4,0.1,0.6c0,0.2,0.1,0.3,0.1,0.4c0.1,0.3,0.2,0.6,0.2,0.9c0.1,0.2,0.2,0.6,0.3,0.9c0,0.1,0.1,0.4,0.2,0.8
			c0.1,0.5,0.1,0.8,0.1,0.9c0,0.3,0.1,0.7,0.1,1c0,0.3,0,0.6,0,1c0,0.4,0,0.8,0,1.1c0,0.4-0.1,0.7-0.1,1.1c-0.1,0.3-0.1,0.7-0.2,1
			c0,0.3-0.1,0.7-0.2,1.1c-0.1,0.7-0.3,1.7-0.4,2.8c-0.2,0.6-0.3,1.2-0.3,1.8c0,0.5-0.1,1.1-0.1,1.7V32c0,0.1,0,0.2,0,0.4
			c0,0.2,0,0.3,0,0.4c0,0.2,0.1,0.4,0.2,0.6s0.1,0.3,0.2,0.3l0.3,0.2c0.1,0,0.2,0,0.3,0c0.1,0,0.2,0,0.3,0h0.3l0.1,0.1
			c0,0,0.2,0.1,0.4,0.1c0.2,0,0.3,0.1,0.4,0.1l0.4-0.1l0.6-0.2h0.1c0.1,0,0.2,0,0.3,0c0.1,0,0.2,0,0.3,0l0.3-0.1l0.3-0.1
			c0,0,0.1,0,0.2-0.1c0,0,0-0.1,0-0.1c0,0,0,0,0-0.1c0-0.1,0.1-0.2,0.1-0.4c0-0.2,0.1-0.3,0.1-0.4c0.1-0.1,0.2-0.3,0.3-0.4
			c0.1-0.2,0.2-0.3,0.3-0.5c0.1-0.1,0.2-0.2,0.2-0.4c0-0.1,0.1-0.2,0.2-0.4c0.3-0.5,0.5-1.1,0.6-1.8c0-0.1,0.1-0.3,0.2-0.6
			c0.1-0.2,0.2-0.5,0.3-0.8c0.2-0.4,0.3-0.7,0.3-1c0-0.1,0.1-0.3,0.2-0.6c0.1-0.3,0.1-0.5,0.2-0.7c0.1-0.5,0.2-0.9,0.2-1.4
			c0.1-0.4,0.1-0.8,0.1-1.2c0-0.3,0-0.5,0-0.8C68.7,22.1,68.7,21.8,68.7,21.6z M54.3,32.3c0-0.2,0-0.4-0.1-0.5
			c-0.1-0.2-0.3-0.2-0.5-0.2c-0.2,0-0.4,0.1-0.7,0.2L52.6,32c-0.2,0-0.4,0.1-0.6,0.1c-0.2,0-0.3,0.1-0.5,0.1
			c-0.3,0.1-0.5,0.2-0.8,0.2c-0.3,0-0.5,0.1-0.7,0.2c-0.3,0.1-0.5,0.1-0.7,0.1c-0.2,0.1-0.4,0.2-0.5,0.2c-0.1,0-0.3,0.1-0.5,0.2
			c-0.2,0.1-0.4,0.1-0.7,0.1c-0.2,0-0.4,0-0.6,0.1c-0.1,0-0.3,0.1-0.6,0.2c-0.3,0.1-0.4,0.1-0.5,0.1c-0.2,0.1-0.4,0.1-0.6,0.1
			c-0.2,0-0.3,0-0.5,0c-0.2,0-0.4,0.1-0.6,0c-0.2,0-0.3,0-0.5,0c-0.3,0-0.7-0.2-1-0.5c-0.3-0.3-0.4-0.6-0.3-1.2
			c0-0.1,0.1-0.2,0.1-0.4c0-0.2,0-0.3,0-0.5V31c0-0.2,0-0.3,0.1-0.4c0-0.1,0.1-0.2,0.2-0.4c0.1-0.2,0.1-0.3,0.2-0.5
			c0.1-0.2,0.2-0.3,0.4-0.4c0.2-0.1,0.3-0.2,0.4-0.4c0.1-0.1,0.2-0.2,0.4-0.4c0.2-0.2,0.3-0.3,0.4-0.4c0.2-0.2,0.5-0.3,0.9-0.5
			c0.2-0.1,0.3-0.1,0.4-0.2c0.1,0,0.3-0.1,0.5-0.2c0.1,0,0.2-0.1,0.4-0.2c0.2-0.1,0.3-0.1,0.4-0.2c0.2-0.1,0.4-0.3,0.6-0.5
			c0.1-0.1,0.2-0.2,0.4-0.4c0.2-0.2,0.3-0.3,0.4-0.4c0.2-0.2,0.3-0.4,0.5-0.6c0.2-0.2,0.3-0.3,0.4-0.6c0-0.1,0.1-0.2,0.2-0.2
			c0.1-0.1,0.2-0.1,0.2-0.2c0.1-0.2,0.2-0.4,0.3-0.5c0.1-0.1,0.2-0.2,0.3-0.4c0.1-0.2,0.1-0.3,0.1-0.5c0-0.2,0-0.3,0.1-0.6
			c0-0.2,0.1-0.4,0.1-0.6v-0.4l-0.1-1.2c0-0.1,0-0.2-0.1-0.3c0-0.1,0-0.2,0-0.4c0-0.2,0-0.3,0-0.5c0-0.2-0.1-0.3-0.1-0.5v-0.3
			c0-0.2-0.1-0.4-0.1-0.7c0-0.2-0.1-0.5-0.2-0.7c-0.1-0.3-0.2-0.7-0.2-1c0-0.3-0.2-0.6-0.3-0.8c0-0.1-0.1-0.2-0.1-0.4
			c0-0.2-0.1-0.3-0.1-0.4c0-0.2-0.1-0.5-0.3-0.7C49,13.2,49,13.1,49,13c0,0-0.1-0.2-0.3-0.6c-0.1-0.2-0.2-0.3-0.3-0.5
			c-0.2-0.2-0.3-0.4-0.5-0.6c-0.2-0.2-0.4-0.4-0.6-0.5c-0.3-0.2-0.6-0.3-0.8-0.4c-0.3-0.1-0.5-0.2-0.6-0.3c-0.2-0.1-0.3-0.1-0.5-0.2
			c-0.2,0-0.4,0-0.6,0l-0.7-0.1c-0.3,0-0.5,0-0.7,0.1c-0.2,0-0.4,0.1-0.7,0.2c-0.2,0.1-0.3,0.1-0.5,0.2c-0.1,0-0.3,0.1-0.5,0.2
			c-0.2,0.1-0.4,0.2-0.6,0.3c-0.2,0.1-0.3,0.2-0.5,0.3c-0.2,0.1-0.4,0.2-0.6,0.2c-0.2,0-0.3,0.1-0.5,0.2c-0.2,0.1-0.4,0.2-0.6,0.3
			c-0.2,0.1-0.4,0.2-0.7,0.4c-0.1,0.1-0.2,0.2-0.4,0.3c-0.2,0.1-0.4,0.2-0.5,0.3c-0.1,0.1-0.2,0.2-0.3,0.3c-0.1,0.1-0.2,0.2-0.3,0.3
			c-0.1,0.1-0.2,0.2-0.3,0.2s-0.3,0.2-0.4,0.3c-0.2,0.2-0.4,0.5-0.5,0.7c-0.1,0.2-0.2,0.3-0.3,0.5c-0.1,0.2-0.1,0.3-0.1,0.5
			c0.1,0.3,0.3,0.5,0.5,0.7c0.1,0.1,0.2,0.1,0.2,0.2c0.1,0,0.1,0.1,0.2,0.1c0.1,0.1,0.3,0.2,0.5,0.2c0.3,0,0.5,0,0.7-0.1
			c0.1,0,0.3-0.2,0.5-0.4c0.2-0.2,0.3-0.4,0.4-0.6s0.2-0.4,0.4-0.6c0.1-0.1,0.3-0.2,0.5-0.3c0.2-0.1,0.3-0.2,0.5-0.3
			c0.1,0,0.2-0.1,0.5-0.2c0.2-0.1,0.4-0.2,0.5-0.2c0.1,0,0.2-0.1,0.3-0.2c0.1-0.1,0.3-0.2,0.5-0.2c0.1,0,0.3-0.1,0.4-0.1
			c0.2,0,0.3-0.1,0.4-0.1c0.3-0.1,0.5-0.2,0.6-0.2c0.1-0.1,0.3-0.1,0.5,0c0.1,0,0.2,0.1,0.4,0.2c0.2,0.1,0.3,0.2,0.4,0.3
			c0.1,0.1,0.2,0.2,0.2,0.3c0.1,0.1,0.1,0.2,0.2,0.3l0.1,0.1c0,0.1,0.1,0.2,0.1,0.3c0,0.1,0.1,0.2,0.1,0.3c0.1,0.2,0.2,0.3,0.2,0.4
			c0,0.1,0.1,0.3,0.2,0.5c0,0.2,0.1,0.4,0.1,0.6c0,0.2,0.1,0.4,0.1,0.6c0,0.2,0.1,0.3,0.1,0.5c0,0.1,0.1,0.2,0.1,0.3v0.8l0.1,0.4
			v0.3l0.1,0.8l0.1,0.5c0,0.1,0,0.3-0.1,0.5c0,0.2-0.1,0.3-0.1,0.4c-0.1,0.2-0.2,0.4-0.5,0.7c-0.2,0.3-0.4,0.5-0.6,0.7
			c-0.5-0.1-0.9-0.1-1.3,0h-0.3c-0.1,0-0.2,0-0.4,0.1c-0.3,0.1-0.6,0.2-0.9,0.3c-0.3,0.1-0.6,0.2-0.7,0.2c-0.2,0.1-0.5,0.2-0.8,0.3
			c-0.3,0.1-0.6,0.2-0.9,0.3c-0.3,0.1-0.5,0.2-0.8,0.4c-0.3,0.2-0.5,0.3-0.7,0.4c-0.2,0.1-0.4,0.2-0.6,0.4c-0.2,0.2-0.4,0.3-0.5,0.4
			c-0.2,0.2-0.3,0.3-0.3,0.4c0,0.1-0.2,0.3-0.5,0.6c-0.1,0.1-0.3,0.4-0.5,0.7c-0.4,0.8-0.6,1.6-0.6,2.2c0,0.2,0.1,0.4,0,0.6
			c0,0.2,0,0.4,0.1,0.6c0,0.2,0.1,0.3,0.2,0.5c0.1,0.2,0.1,0.3,0.1,0.5c0,0.2,0,0.5,0,0.7c0.1,0.3,0.1,0.5,0.1,0.7v0.5
			c0,0.2,0,0.4-0.1,0.5c0,0.1-0.1,0.4-0.1,0.7c0,0.3-0.1,0.7-0.1,1.1c0,0.4,0,0.7-0.1,1c0,0.2,0,0.5,0,0.9c0,0.4,0.1,0.6,0.2,0.8
			c0.1,0.3,0.2,0.5,0.4,0.6c0.1,0.2,0.3,0.3,0.6,0.5c0.2,0.1,0.5,0.2,0.8,0.3c0.3,0,0.7,0.1,1,0.2c0.1,0,0.2,0.1,0.4,0.1
			c0.1,0,0.2,0.1,0.3,0.1c0.3,0,0.7,0.1,1.1,0c0.4,0,0.8,0,1.2,0h1c0.2,0,0.4,0,0.5-0.1c0.1,0,0.3-0.1,0.5-0.1c0.2,0,0.5,0,0.7-0.1
			c0.3,0,0.4-0.1,0.5-0.1l0.6-0.3c0.5,0,1-0.2,1.4-0.3c0.2-0.1,0.3-0.2,0.5-0.2c0.2,0,0.3-0.1,0.6-0.2c0.3-0.1,0.5-0.2,0.6-0.2
			c0.1,0,0.3-0.1,0.5-0.2c0.1-0.1,0.3-0.2,0.6-0.3c0.3-0.1,0.5-0.2,0.6-0.3c0.3-0.2,0.5-0.3,0.7-0.3c0.1,0,0.4-0.1,0.7-0.2
			c0.2-0.1,0.5-0.2,0.7-0.4c0.3-0.2,0.5-0.3,0.7-0.4c0.1-0.1,0.2-0.2,0.4-0.3c0.2-0.1,0.3-0.2,0.4-0.4l0.2-0.4
			c0.1-0.1,0.2-0.2,0.3-0.4c0.1-0.1,0.2-0.2,0.3-0.4c0-0.1,0.1-0.2,0.2-0.2c0.1,0,0.1-0.1,0.2-0.2c0.1-0.3,0.2-0.5,0.3-0.7
			c0.1-0.2,0.1-0.4,0.1-0.6v-0.4c0-0.1,0-0.2-0.1-0.3C54.4,32.6,54.4,32.5,54.3,32.3z M123.8,12.3c0-0.2-0.1-0.4-0.1-0.7
			c0-0.3-0.1-0.5-0.2-0.7c0-0.1-0.1-0.3-0.3-0.7c-0.2-0.4-0.3-0.6-0.3-0.7c-0.2-0.3-0.4-0.7-0.6-1.1c-0.2-0.4-0.5-0.7-0.7-0.9
			c-0.2-0.2-0.4-0.4-0.6-0.6c-0.2-0.2-0.4-0.3-0.6-0.6l-0.1-0.1c-0.3-0.3-0.7-0.6-1.2-0.8c-0.5-0.2-0.9-0.4-1.3-0.5
			c-0.3,0-0.7,0-1-0.1c-0.3,0-0.7-0.1-1-0.1l-0.4-0.1c-0.3,0-0.6,0.1-1,0.2c-0.4,0.1-0.6,0.3-0.7,0.5c-0.1,0.2-0.2,0.3-0.4,0.5
			c-0.2,0.1-0.2,0.3-0.2,0.5v0.9c0,0.1,0,0.2,0.1,0.3c0.2,0.3,0.4,0.5,0.7,0.6c0.2,0.1,0.4,0.2,0.5,0.2c0.6,0,1,0.5,1.2,1.3
			c0.1,0.3,0.1,0.6,0.2,1c0,0.4,0.1,0.7,0.1,0.9c0,0.3,0,0.6,0,0.9c0,0.3,0,0.7,0,1v1.2c0,0,0,0.1,0,0.3c0,0.1,0,0.2,0,0.3
			c0,0.2-0.1,0.4-0.1,0.6c0,0.2-0.1,0.4-0.1,0.5c0,0.1-0.1,0.3-0.2,0.6c-0.1,0.3-0.1,0.4-0.1,0.5c0,0.3-0.1,0.7-0.2,1
			c-0.1,0.4-0.1,0.8-0.2,1.1c0,0,0,0.1-0.1,0.3c0,0.1-0.1,0.2-0.1,0.3c0,0.6-0.1,1.2-0.2,1.8c-0.1,0.6-0.2,1.1-0.2,1.6
			c0,0.1-0.1,0.2-0.1,0.3c0,0.1-0.1,0.2-0.1,0.3v0.3c0,0.3-0.1,0.5,0,0.8c0,0.3,0,0.5,0,0.8c0,0.3-0.1,0.5-0.1,0.8
			c0,0.3-0.1,0.5-0.1,0.8v0.4c0,0.3-0.1,0.6-0.1,0.8c0,0.2,0,0.5,0.1,0.7l0.3,0.6c0.1,0.1,0.2,0.3,0.5,0.5c0.2,0.1,0.4,0.2,0.6,0.4
			c0.2,0.1,0.3,0.2,0.6,0.2c0.1,0,0.2,0.1,0.3,0.2c0.1,0.1,0.2,0.2,0.4,0.2c0.2,0,0.3,0.1,0.4,0.1c0.1,0,0.2,0,0.5-0.1
			c0.4,0,0.7,0,1.1-0.3c0.3-0.2,0.5-0.3,0.6-0.4c0.2-0.3,0.3-0.5,0.4-0.7l1.2-3.1c0.1-0.4,0.2-0.7,0.3-0.9c0.1-0.2,0.2-0.6,0.4-0.9
			c0-0.2,0.1-0.4,0.2-0.6s0.1-0.4,0.2-0.6c0.1-0.2,0.2-0.4,0.3-0.7c0.1-0.2,0.2-0.5,0.2-0.7c0-0.2,0.1-0.6,0.3-1.1
			c0.1-0.5,0.2-0.9,0.3-1.1c0.1-0.6,0.2-1.1,0.3-1.4c0.1-0.3,0.2-0.7,0.2-1.2v-0.7c0-0.3,0-0.5,0.1-0.7c0.1-0.2,0.2-0.5,0.3-0.8
			c0-0.3,0.1-0.6,0.1-0.8c0.1-0.1,0.1-0.3,0.1-0.5v-0.6c0-0.2,0-0.4,0-0.6C123.9,12.7,123.9,12.5,123.8,12.3z M99.6,24.9
			c0.3-0.8,0.5-1.3,0.5-1.4c0-0.2,0.1-0.5,0.2-0.8c0.1-0.3,0.2-0.6,0.2-0.8c0-0.5,0-0.9-0.1-1.1c-0.1-0.3-0.2-0.6-0.3-0.9
			c0.1-0.3,0.1-0.8-0.1-1.3c-0.2-0.5-0.3-0.9-0.4-1.1c-0.3-0.4-0.7-0.7-1-0.9c-0.2-0.1-0.3-0.2-0.5-0.3c-0.2-0.1-0.3-0.2-0.5-0.3
			c-0.2-0.1-0.4-0.2-0.7-0.4c-0.2-0.2-0.4-0.3-0.4-0.3c-0.3-0.2-0.5-0.3-0.6-0.3c0,0-0.1-0.1-0.3-0.2L95,14.3
			c-0.1-0.2-0.2-0.3-0.4-0.3c-0.2,0-0.3-0.1-0.4-0.2c0,0-0.2,0-0.5,0c-0.3,0-0.5,0-0.6,0.1c-0.3,0.1-0.5,0.3-0.8,0.5
			c-0.3,0.2-0.5,0.4-0.6,0.7c0,0.1,0,0.2,0,0.3c0.1,0.1,0.1,0.2,0.2,0.3c0.1,0.1,0.2,0.2,0.3,0.4c0.1,0.1,0.2,0.2,0.3,0.3
			c-0.1,0.2-0.2,0.3-0.3,0.4c-0.1,0.1-0.2,0.2-0.3,0.4c-0.2,0.1-0.3,0.3-0.4,0.4c-0.1,0.2-0.3,0.4-0.6,0.7c-0.3,0.4-0.5,0.8-0.7,1.1
			c-0.1,0.2-0.2,0.3-0.2,0.4c0,0.1,0,0.1-0.1,0.2c0,0-0.1,0.1-0.1,0.2c0,0.1-0.1,0.2-0.2,0.4c-0.1,0.1-0.2,0.3-0.3,0.4
			c-0.1,0.2-0.2,0.3-0.3,0.4c-0.1,0.3-0.3,0.6-0.4,0.9c-0.2,0.3-0.3,0.7-0.4,1.1c-0.1,0.3-0.2,0.7-0.3,1c0,0.3-0.1,0.6-0.1,0.8
			c-0.1,0.6-0.1,1.2,0,1.8c0.1,0.6,0.3,1,0.6,1.2c0.3,0.2,0.4,0.4,0.6,0.6c0.1,0.2,0.3,0.3,0.5,0.4c0.1,0.1,0.2,0.1,0.5,0.1h0.5
			c0.3,0,0.6,0,0.8,0.1c0.2,0,0.5,0,0.7,0c0.2,0,0.5-0.1,0.9-0.1c0.4,0,0.7-0.2,1-0.3l0.5-0.1c0.3-0.1,0.5-0.2,0.6-0.3
			c0.2-0.1,0.3-0.2,0.6-0.3c0.2,0,0.4-0.1,0.5-0.2c0.1-0.1,0.2-0.1,0.4-0.2c0.2,0,0.4-0.2,0.6-0.3c0.2-0.2,0.4-0.3,0.5-0.3
			c0.5-0.3,0.9-0.6,1.2-0.9C99,25.8,99.3,25.5,99.6,24.9z M95.9,21.8c-0.1,0.2-0.1,0.4-0.2,0.6c0,0.2-0.1,0.3-0.2,0.4
			c-0.2,0.3-0.3,0.6-0.5,0.6c-0.1,0.1-0.2,0.2-0.4,0.4c-0.2,0.2-0.3,0.3-0.4,0.4c-0.1,0-0.2,0.1-0.5,0.2c-0.2,0.1-0.4,0.2-0.5,0.2
			c-0.2,0.2-0.4,0.3-0.6,0.3c-0.2,0-0.2,0-0.3,0c-0.3,0-0.5-0.1-0.5-0.4v-0.1c0-0.1,0-0.2,0.1-0.5c0.1-0.2,0.2-0.5,0.3-0.7
			c0-0.2,0.1-0.5,0.3-0.9c0.2-0.4,0.3-0.7,0.4-0.7c0.1-0.3,0.2-0.5,0.3-0.6c0.1-0.1,0.2-0.2,0.3-0.5c0.2-0.3,0.3-0.5,0.5-0.6
			c0.1-0.1,0.2-0.2,0.2-0.3c0-0.1,0.1-0.2,0.1-0.3c0-0.1,0.2-0.3,0.5-0.6c0.2,0.2,0.3,0.3,0.4,0.5c0.1,0.1,0.2,0.2,0.3,0.3
			c0.1,0.1,0.2,0.3,0.3,0.5c0.1,0.3,0.1,0.5,0.1,0.6C95.9,21.3,95.9,21.7,95.9,21.8z M123.1,42.7c-0.1-0.2-0.2-0.3-0.5-0.4
			c-0.2-0.2-0.4-0.3-0.7-0.3c-0.2,0-0.3,0-0.5,0c-0.2,0-0.3,0-0.5,0c-0.3,0-0.5,0-0.8,0c-0.3,0-0.6,0-0.9,0c-0.2,0-0.4,0-0.6,0
			c-0.2,0-0.4,0-0.6,0c-0.2,0-0.3,0-0.5,0c-0.2,0-0.3,0-0.5,0c-0.2,0-0.5,0-0.8-0.1c-0.3,0-0.8-0.1-1.2-0.1c-0.6,0-1.1,0-1.5-0.1
			c-0.4-0.1-0.9-0.1-1.4-0.1c-0.2,0-0.4,0-0.8,0c-0.3,0-0.6-0.1-0.8-0.2c-0.4,0-0.8-0.1-1.2-0.2c-0.4-0.1-0.8-0.2-1.2-0.3
			c-0.5-0.1-0.8-0.2-1.1-0.3c-0.3-0.1-0.6-0.2-1-0.3c-0.7-0.2-1.1-0.4-1.4-0.6c-0.3-0.2-0.6-0.3-0.8-0.5c-0.3-0.3-0.5-0.5-0.6-0.8
			c0-0.2-0.1-0.3-0.1-0.5c0-0.2,0-0.3,0-0.6c0-0.2,0-0.3,0-0.5c0-0.1,0.1-0.3,0.1-0.5c0.1-0.2,0.2-0.4,0.2-0.6
			c0-0.2,0.1-0.3,0.2-0.5c0-0.1,0.1-0.2,0.2-0.3s0.1-0.3,0.2-0.5l0.3-0.6c0.1-0.1,0.2-0.2,0.2-0.3c0-0.1,0.1-0.2,0.1-0.3
			c0-0.1,0.1-0.2,0.1-0.3c0-0.1,0-0.2,0-0.3c0-0.2-0.1-0.3-0.2-0.4c-0.1-0.1-0.2-0.2-0.3-0.3c0-0.2-0.2-0.3-0.5-0.5
			c-0.3-0.1-0.5-0.1-0.6-0.1c-0.2,0-0.3,0-0.5,0c-0.1,0-0.3,0-0.5,0c-0.1,0-0.2,0-0.4,0.1c-0.2,0.1-0.3,0.2-0.4,0.3
			c-0.2,0.2-0.3,0.3-0.4,0.4c-0.1,0.1-0.2,0.2-0.3,0.4c-0.1,0.1-0.2,0.2-0.2,0.3c0,0.1-0.2,0.3-0.3,0.6l-0.4,0.4
			c-0.2,0.2-0.3,0.4-0.4,0.6c-0.1,0.2-0.3,0.5-0.4,0.7c-0.1,0.3-0.2,0.5-0.3,0.6l-0.3,0.8c-0.1,0.3-0.2,0.5-0.2,0.7
			c0,0.2-0.1,0.5-0.1,0.7v0.5c0,0.2,0,0.3,0.1,0.5c0,0.2,0.1,0.4,0.2,0.6c0.1,0.2,0.1,0.3,0.2,0.4c0.1,0.1,0.2,0.3,0.3,0.5
			c0.1,0.2,0.3,0.4,0.4,0.5c0.2,0.2,0.4,0.4,0.6,0.6c0.2,0.2,0.4,0.3,0.6,0.4l0.4,0.3c0.3,0.2,0.6,0.4,0.8,0.6
			c0.2,0.2,0.5,0.3,0.8,0.4c0.3,0.1,0.7,0.2,0.9,0.4c0.3,0.2,0.6,0.3,0.9,0.4c0.4,0.1,0.7,0.2,0.7,0.2c0,0,0.3,0.1,0.8,0.3
			c0.5,0.1,1,0.2,1.6,0.3s1,0.1,1.5,0.2c0.2,0.1,0.4,0.1,0.5,0.1s0.3,0,0.5,0.1c0.5,0.1,0.9,0.1,1.4,0.2c0.4,0,0.8,0.1,1.2,0.1
			c0.4,0,0.7,0,0.9,0c0.2,0,0.5,0.1,0.8,0.1c0.2,0,0.5,0.1,1,0.1h1.5c0.6,0,1,0,1.2,0c0.3,0,0.5,0,0.7,0c0.2,0,0.4,0,0.7,0
			c0.1,0,0.3,0,0.6,0c0.2,0,0.4-0.1,0.5-0.1c0.2,0,0.3,0,0.5-0.1c0.2-0.1,0.3-0.2,0.5-0.3c0.1-0.1,0.3-0.1,0.4-0.2
			c0.2,0,0.3-0.1,0.4-0.2c0.3-0.1,0.5-0.3,0.6-0.6c0-0.1,0.1-0.2,0.1-0.3c0-0.1,0.1-0.2,0.1-0.3c0-0.1,0.1-0.2,0.1-0.3
			c0-0.1,0.1-0.3,0.2-0.6c0,0,0-0.1,0-0.3C123.1,42.7,123.1,42.7,123.1,42.7z M169.3,16.2c0,0.1,0,0.3,0,0.5c0,0.2,0.1,0.3,0.2,0.4
			l0.3,0.3c0,0.1,0.1,0.2,0.1,0.2c0,0,0.1,0.1,0.1,0.2c0.1,0.2,0.2,0.3,0.3,0.5c0.1,0.2,0.2,0.3,0.3,0.4c0.1,0.1,0.2,0.3,0.5,0.6
			c0.2,0.3,0.3,0.4,0.4,0.5c0.1,0.1,0.2,0.3,0.4,0.6c0.2,0.2,0.3,0.4,0.5,0.5c0.1,0.2,0.3,0.5,0.6,0.7c0.3,0.3,0.5,0.5,0.6,0.6
			c0.3,0.3,0.6,0.7,1,1.1c0.1,0.1,0.2,0.2,0.3,0.4c0.1,0.2,0.2,0.3,0.4,0.4c0.2,0.2,0.4,0.3,0.6,0.3c0.3,0,0.6,0,0.8-0.1
			c0.1,0,0.3-0.1,0.6-0.1c0.3,0,0.5,0,0.7-0.1c0.1-0.1,0.2-0.2,0.3-0.2c0.1-0.1,0.2-0.1,0.3-0.2c0.2-0.3,0.3-0.6,0.2-1
			c-0.1-0.3-0.3-0.7-0.6-1.2c-0.3-0.4-0.5-0.7-0.7-0.8c-0.1-0.3-0.3-0.6-0.7-0.9c-0.1-0.1-0.2-0.2-0.4-0.3c-0.2-0.1-0.3-0.2-0.4-0.3
			c-0.1-0.1-0.2-0.2-0.3-0.4s-0.2-0.3-0.3-0.4c-0.2-0.2-0.4-0.4-0.6-0.7c-0.2-0.2-0.4-0.4-0.6-0.7c-0.1-0.1-0.4-0.3-0.7-0.5
			c-0.3-0.2-0.5-0.3-0.6-0.4c-0.2-0.2-0.5-0.4-0.7-0.5s-0.5-0.2-0.6-0.2c-0.3,0-0.4-0.1-0.5-0.1c-0.1,0-0.2,0-0.4,0.1
			c-0.1,0.1-0.3,0.1-0.5,0.1c-0.2,0-0.3,0-0.4,0.1c-0.2,0.1-0.3,0.2-0.4,0.3S169.3,16.1,169.3,16.2z M154.3,13.5
			c0.1,0.3,0.3,0.5,0.7,0.8c0.1,0.2,0.2,0.4,0.4,0.5c0.1,0.1,0.2,0.2,0.5,0.2c0.2,0.1,0.5,0.1,0.8,0.1c0.5,0,0.9-0.2,1.3-0.6
			c0.2-0.2,0.3-0.4,0.4-0.7c0.1-0.2,0.1-0.4,0.2-0.5c0.3-0.5,0.5-0.8,0.6-1c0.1-0.2,0.3-0.4,0.5-0.6c0.1-0.1,0.2-0.2,0.3-0.3
			c0.1-0.1,0.2-0.2,0.3-0.4c0.1-0.1,0.3-0.2,0.5-0.2c0.2-0.1,0.3-0.1,0.4-0.2c0.2-0.1,0.5-0.3,0.7-0.4c0.3-0.2,0.6-0.2,0.8-0.3
			c0.1,0,0.2-0.1,0.3-0.1s0.3,0,0.4-0.1L164,10c0.2,0.1,0.4,0.2,0.6,0.4c0.2,0.2,0.3,0.3,0.3,0.5c0,0.2,0,0.6-0.1,1
			s-0.3,0.8-0.5,1.1c-0.2,0.3-0.3,0.5-0.3,0.7c0,0.2-0.2,0.4-0.5,0.6c-0.1,0.1-0.2,0.2-0.3,0.4c-0.1,0.2-0.2,0.3-0.4,0.5
			c-0.2,0.3-0.5,0.6-0.7,0.9c-0.3,0.3-0.5,0.6-0.7,0.9c-0.3,0.3-0.6,0.7-1,1.1c-0.4,0.4-0.8,0.9-1.3,1.3c-0.5,0.5-0.9,0.9-1.3,1.4
			c-0.4,0.5-0.7,0.9-1.1,1.2c-0.5,0.5-0.8,0.9-1,1.3c-0.2,0.4-0.4,0.7-0.5,0.9c-0.3,0.3-0.5,0.8-0.6,1.3c-0.1,0.5-0.1,1-0.1,1.4
			c0,0.3,0.1,0.6,0.3,0.7c0.1,0.1,0.2,0.2,0.4,0.2c0.2,0,0.3,0.1,0.6,0.2c0.3,0.1,0.5,0.1,0.7,0.1c0.2,0,0.3-0.1,0.4-0.1
			c0.2,0,0.4-0.1,0.8-0.1c0.4,0,0.7-0.1,0.9-0.2c0.3-0.1,0.5-0.2,0.7-0.2c0.2-0.1,0.5-0.3,0.8-0.7c0.1-0.1,0.3-0.3,0.6-0.6
			c0.3-0.2,0.4-0.5,0.5-0.7c0.1,0,0.3-0.2,0.5-0.3c0.2-0.2,0.3-0.3,0.5-0.5c0.3-0.3,0.5-0.6,0.7-0.7c0.2-0.1,0.5-0.3,0.7-0.6
			c0.1-0.1,0.2-0.2,0.2-0.3c0.1-0.1,0.1-0.2,0.2-0.3c0.4-0.5,0.7-0.9,0.9-1.2c0.2-0.3,0.4-0.6,0.5-0.8c0.2-0.4,0.4-0.7,0.6-1
			c0.2-0.3,0.4-0.5,0.6-0.8c0.1-0.1,0.2-0.2,0.2-0.4c0-0.2,0.1-0.3,0.2-0.4c0.1-0.2,0.2-0.4,0.2-0.5s0.1-0.3,0.2-0.5
			c0.1-0.3,0.2-0.5,0.3-0.6c0.4-0.6,0.6-1.2,0.6-1.7c0-0.3,0.1-0.5,0.3-0.8c0.2-0.3,0.2-0.5,0.3-0.6c0.1-0.3,0.1-0.4,0.2-0.6
			c0-0.1,0.1-0.3,0.1-0.5c0-0.3,0.1-0.7,0.1-1c0-0.3,0-0.7,0-1c0-0.5-0.1-0.9-0.4-1.3c0,0-0.2-0.2-0.4-0.3c-0.2-0.2-0.4-0.4-0.6-0.6
			c-0.2-0.2-0.4-0.3-0.6-0.4c-0.2-0.1-0.3-0.2-0.4-0.2c-0.2-0.2-0.3-0.4-0.5-0.4c-0.2-0.1-0.4-0.1-0.6-0.2c-0.4-0.2-0.8-0.3-1-0.3
			c-0.6,0-1-0.1-1.4,0c-0.4,0-0.8,0.1-1.3,0.2c-0.3,0.1-0.6,0.2-1,0.3c-0.4,0.1-0.7,0.2-0.9,0.3c0.2-0.3,0.3-0.5,0.5-0.7
			c0.2-0.2,0.3-0.5,0.4-0.8c0.1-0.1,0.1-0.3,0.2-0.4c0-0.1,0.1-0.3,0.2-0.5c0.1-0.2,0.1-0.3,0.1-0.5V3.8c0-0.1,0.1-0.3,0.2-0.5
			c0-0.1,0-0.2,0-0.4c0-0.2-0.1-0.3-0.1-0.4c0-0.3-0.2-0.5-0.3-0.8c-0.2-0.3-0.3-0.6-0.5-0.7c-0.1-0.1-0.2-0.2-0.5-0.3
			c-0.2-0.1-0.4-0.2-0.6-0.2c-0.1,0-0.3,0-0.4,0.1c-0.1,0-0.2,0.1-0.3,0.1c-0.3,0-0.5,0-0.7,0.1c-0.2,0-0.3,0.1-0.5,0.2
			c-0.2,0.2-0.4,0.4-0.5,0.7c0,0.2-0.1,0.5-0.1,0.7c0,0.3-0.1,0.5-0.2,0.8c-0.1,0.3-0.2,0.6-0.2,1c0,0.4-0.1,0.7-0.1,1v0.9
			c0,0.3,0,0.6,0.1,0.8c0,0.3,0,0.6,0.1,0.9c0,0.3,0.1,0.6,0.2,0.7c0,0-0.2,0.2-0.3,0.3l-0.6,0.6c-0.2,0.2-0.4,0.4-0.6,0.6
			s-0.3,0.3-0.4,0.4c-0.2,0.2-0.4,0.4-0.5,0.5c-0.1,0.1-0.3,0.3-0.5,0.6c-0.2,0.2-0.3,0.5-0.3,0.8c0,0.2,0,0.4,0,0.6
			S154.2,13.3,154.3,13.5z M181.7,32.1c-0.1-0.2-0.2-0.5-0.5-0.7c-0.2-0.3-0.4-0.4-0.6-0.5c-0.1,0-0.2-0.1-0.3-0.2
			c-0.1-0.1-0.3-0.2-0.4-0.3c-0.2-0.1-0.3-0.2-0.5-0.3c-0.3-0.1-0.6-0.2-0.9-0.3c-0.3-0.1-0.6-0.2-0.8-0.3c-0.2,0-0.4-0.1-0.7-0.1
			c-0.2,0-0.5-0.1-0.7-0.1c0,0-0.2,0-0.5,0c-0.3,0-0.5,0-0.7,0c-0.5,0-1.1,0-1.9,0c-0.7,0-1.3,0.1-1.8,0.1c-0.5,0-1,0.1-1.6,0.2
			c-0.6,0.1-1.3,0.2-2.2,0.4l-2.7,0.4c-0.2,0-0.3,0.1-0.5,0.1c-0.2,0-0.4,0.1-0.6,0.1c-0.2,0-0.5,0.1-1,0.2
			c-0.5,0.1-1.1,0.2-1.7,0.3c-0.6,0.1-1.2,0.2-1.7,0.3c-0.5,0.1-0.9,0.2-1.1,0.2c-0.2,0.1-0.5,0.2-0.8,0.2c-0.3,0.1-0.6,0.1-0.8,0.2
			c-0.3,0.1-0.6,0.2-0.8,0.2c-0.2,0-0.5,0.1-0.7,0.1c-0.3,0-0.6,0.1-0.9,0.2c-0.3,0.1-0.6,0.2-0.9,0.3c-0.3,0.1-0.7,0.2-0.9,0.3
			c-0.3,0.1-0.6,0.1-0.9,0.2c-0.3,0.1-0.6,0.2-0.8,0.3c-0.2,0.1-0.4,0.3-0.6,0.5c-0.1,0.1-0.2,0.2-0.3,0.3c-0.1,0.1-0.2,0.2-0.3,0.3
			c-0.1,0.1-0.2,0.2-0.2,0.4c-0.1,0.2-0.1,0.3-0.2,0.4c-0.1,0.1-0.1,0.2-0.1,0.4v0.6c0,0.2,0,0.3,0.1,0.5c0,0.1,0.1,0.3,0.1,0.5
			c0,0.3,0.1,0.5,0.1,0.7s0.1,0.4,0.2,0.7c0,0.1,0.1,0.2,0.2,0.5c0.1,0.2,0.3,0.4,0.5,0.5c0.4,0.2,0.8,0.3,1.2,0.3
			c0.4,0,0.7-0.1,0.8-0.1c0.2,0,0.5-0.2,0.8-0.4c0.3-0.2,0.6-0.3,0.7-0.4c0.3-0.1,0.8-0.2,1.2-0.4c0.5-0.1,0.8-0.2,1-0.3
			c0.1,0,0.3-0.1,0.5-0.2c0.3-0.1,0.5-0.1,0.6-0.1c0.3,0,0.5,0,0.6-0.1c0.2,0,0.3-0.1,0.6-0.1c0.4-0.1,0.9-0.2,1.4-0.2
			c0.6-0.1,1-0.1,1.3-0.2c0.3-0.1,0.8-0.2,1.2-0.2c0.5-0.1,0.8-0.1,1.1-0.2c0.3,0,0.7,0,1.2-0.1c0.5-0.1,1-0.1,1.4-0.2
			c0.1,0,0.3,0,0.5,0c0.2,0,0.4-0.1,0.7-0.1c0.3,0,0.6-0.1,0.8-0.1c0.2,0,0.4,0,0.5,0c0.1,0.3,0.1,0.6,0.1,0.9c0,0.3,0,0.6,0,0.8
			c0,0.3,0,0.7-0.1,1.1c-0.1,0.5-0.1,0.8-0.2,1c0,0.1-0.1,0.4-0.2,0.8c-0.1,0.4-0.2,0.7-0.2,0.8c-0.1,0.5-0.2,1-0.3,1.6
			c-0.1,0.6-0.2,1.2-0.3,1.8c-0.1,0.7-0.2,1.3-0.3,2c-0.1,0.7-0.2,1.3-0.2,2c0,0.3-0.1,0.5-0.1,0.6s0,0.2-0.1,0.6
			c-0.1,1-0.1,1.9,0.2,2.8c0.1,0.2,0.2,0.5,0.2,0.7c0,0.3,0.2,0.6,0.3,0.9c0.2,0.3,0.3,0.6,0.4,0.8c0.1,0.3,0.3,0.4,0.5,0.4
			c0.1,0,0.2,0,0.3,0.1s0.3,0.1,0.4,0c0.1-0.1,0.3-0.2,0.4-0.4c0.1-0.2,0.3-0.2,0.5-0.1c0.2,0,0.4,0,0.8-0.2c0.1,0,0.3-0.1,0.5-0.3
			c0.2-0.2,0.3-0.3,0.4-0.4c0,0,0.1-0.1,0.3-0.2l0.1-0.1c0.1-0.1,0.2-0.2,0.3-0.3c0.1-0.2,0.1-0.5,0.1-0.8c0-0.4,0-0.9-0.1-1.6
			c-0.1-0.6-0.1-1.2-0.1-1.6V49c0-0.2,0-0.9,0.1-2c0-0.3,0-0.6,0.1-0.9c0-0.3,0.1-0.7,0.1-1.2c0-0.6,0.1-1.1,0.1-1.6
			c0-0.5,0.1-0.9,0.2-1.2c0-0.3,0.1-0.6,0.1-0.9c0-0.3,0.1-0.7,0.1-1.1c0-0.2,0-0.4,0-0.6c0-0.2,0-0.4,0-0.7c0-0.7-0.1-1.3-0.2-2
			c0-0.2-0.1-0.4-0.1-0.6c0-0.2-0.1-0.4-0.1-0.6c0.3,0,0.7-0.1,1.1-0.2c0.4-0.1,0.7-0.1,1.1-0.1c0.3,0,0.6,0,0.9,0
			c0.3,0,0.6,0,0.8-0.1c0.1,0.1,0.3,0.1,0.6,0.2c0.3,0,0.6,0.1,1,0.2c0.2,0.1,0.4,0.1,0.6,0.2c0.2,0,0.4,0.1,0.6,0.1
			c0.3,0.1,0.6,0.2,0.7,0.2c0.1,0,0.3,0.1,0.6,0.1c0.3,0,0.5,0,0.6,0c0.2,0,0.4-0.1,0.6-0.1c0.2,0,0.3-0.2,0.5-0.4
			c0.1-0.1,0.1-0.2,0.1-0.3s0-0.3,0.1-0.4c0-0.1,0.1-0.4,0.1-0.7c-0.1-0.5-0.2-0.9-0.3-1.3C182.1,32.7,182,32.4,181.7,32.1z
			 M189.3,9.4c0,0.1,0,0.3,0.1,0.7c0,0.4,0.1,0.6,0.1,0.7c0.1,0.3,0.2,0.7,0.2,1c0,0.3,0.1,0.6,0.2,0.8c0.1,0.5,0.2,1,0.4,1.5
			c0.2,0.5,0.3,0.9,0.5,1.2c0.1,0.3,0.3,0.6,0.4,0.9c0.1,0.3,0.2,0.6,0.3,0.8c0.2,0.3,0.3,0.7,0.5,1.1c0.1,0.4,0.2,0.6,0.3,0.7
			c0.1,0.2,0.2,0.5,0.4,0.7c0.1,0.3,0.2,0.4,0.2,0.5c-0.2,0-0.3,0.1-0.4,0.1c-0.1,0-0.1,0.1-0.2,0.1c-0.2,0.1-0.4,0.2-0.5,0.2
			c-0.1,0.1-0.3,0.2-0.5,0.3c-0.2,0.1-0.3,0.4-0.4,0.7c0,0.4,0,0.6,0.2,0.8c0.1,0.1,0.2,0.3,0.1,0.5s0,0.4,0.2,0.6
			c0.3,0.4,0.7,0.7,1,0.7c0.2,0,0.5,0,0.8,0c0.3,0,0.5-0.1,0.7-0.1c0.4-0.1,0.8-0.2,1.2-0.3c0.4-0.1,0.8-0.2,1.1-0.3
			c0,0,0.2-0.1,0.5-0.2c0.3-0.1,0.5-0.2,0.7-0.2c0.2,0,0.5,0,0.7-0.1c0.3-0.1,0.4-0.1,0.5-0.1c0.1,0,0.2,0,0.5,0
			c0.2,0,0.5-0.1,0.7-0.2l1-0.3c0.2,0,0.4-0.1,0.7-0.1c0.2,0,0.5-0.1,0.7-0.1c0.2,0,0.3-0.1,0.5-0.2c0.2-0.1,0.3-0.2,0.5-0.2
			c0.2,0,0.4,0,0.7,0c0.2,0,0.5,0,0.7-0.1c0.4-0.1,0.8-0.2,1.1-0.3c0.4-0.1,0.6-0.2,0.7-0.3c0.7-0.3,1-0.7,1.2-1.3
			c0.1-0.2,0.1-0.4,0.1-0.7v-0.7c0-0.4,0-0.8-0.1-1.1c0-0.3-0.1-0.5-0.1-0.6c0-0.2,0.1-0.5,0.2-0.9c0.1-0.4,0.2-0.8,0.3-1.2
			c0-0.5,0.1-1,0.2-1.5c0.1-0.5,0.2-0.9,0.3-1.2c0.1-0.5,0.2-0.9,0.3-1.2s0.1-0.7,0.2-1c0.1,0,0.2,0,0.3-0.1c0.1,0,0.2-0.1,0.3-0.1
			c0.2-0.1,0.3-0.3,0.5-0.5c0.1-0.1,0.2-0.3,0.2-0.6c0-0.3,0.1-0.5,0.1-0.7c0,0,0-0.1,0-0.2c0-0.1,0-0.2,0-0.4V6.4
			c0-0.1,0-0.2-0.1-0.3c0-0.1-0.1-0.2-0.1-0.3c-0.1-0.2-0.2-0.4-0.4-0.6c-0.2-0.2-0.4-0.3-0.6-0.4c-0.2-0.1-0.5-0.2-0.7-0.2
			c-0.3,0-0.5-0.1-0.7-0.2c-0.2,0-0.5-0.1-0.7-0.1c-0.3,0-0.5-0.1-0.8-0.2C205.6,4,205.2,4,204.8,4c-0.5,0-1.2-0.1-2.1-0.1
			c-0.9,0-1.5,0-1.9,0c-0.4,0-0.7,0-1.1,0.1c-0.4,0-0.7,0.1-1,0.1c-0.3,0-0.5,0.1-0.7,0.1h-0.9c-0.4,0-0.8,0-1.1,0.1
			c-0.4,0.1-0.7,0.1-0.9,0.2c-0.2,0-0.4,0.1-0.6,0.1c-0.1-0.1-0.4-0.3-0.8-0.5C193.4,4,193.2,4,193,4c-0.2,0-0.4,0.1-0.5,0.1
			c-0.3,0-0.7,0.1-1.1,0.2c-0.4,0.1-0.7,0.3-0.8,0.6c-0.2,0.2-0.4,0.4-0.6,0.6c-0.2,0.3-0.3,0.5-0.4,0.8c-0.1,0.3-0.2,0.6-0.3,0.9
			c-0.1,0.3-0.1,0.5-0.1,0.7c0,0.3,0,0.6,0,0.7C189.3,8.8,189.3,9.1,189.3,9.4z M195.2,10.9c0-0.2,0-0.5,0.1-0.8
			c0.1-0.6,0.4-1,0.9-1c0.1,0,0.3,0,0.4,0c0.1,0,0.2,0,0.3,0c0.2-0.1,0.5-0.2,0.9-0.2c0.4,0,0.7-0.1,0.9-0.1c0.1,0,0.4-0.1,0.7-0.1
			c0.3,0,0.6,0,0.7-0.1c0.3,0,0.5-0.1,0.7-0.1h1.5c0.3,0,0.5,0,0.7,0.1c0.2,0.1,0.2,0.3,0.1,0.5c0,0.1-0.1,0.2-0.1,0.5
			c0,0.1,0,0.2-0.1,0.2c-0.1,0.4-0.2,0.8-0.2,1.1c0,0.3-0.1,0.7-0.2,1.2c-0.1,0.6-0.2,0.9-0.2,1c0,0.1,0,0.3-0.1,0.6
			c0,0,0,0.2-0.1,0.3c0,0.2-0.1,0.4-0.1,0.6c0,0.2-0.1,0.4-0.1,0.6c0,0.2-0.1,0.3-0.1,0.4c0,0.3-0.1,0.5-0.1,0.7c0,0.2,0,0.5,0,0.7
			c0,0.1,0,0.3,0,0.5c0,0.2,0,0.4,0,0.6c-0.2,0.1-0.5,0.2-1,0.3c-0.3,0-0.6,0.1-1.1,0.3c-0.5,0.1-0.8,0.2-1,0.3
			c-0.1,0-0.3,0-0.6,0.1c-0.2,0.1-0.5,0.1-0.8,0.2c-0.3,0-0.5,0.1-0.7,0.1c-0.2,0-0.3,0.1-0.4,0.1c0-0.1-0.1-0.2-0.1-0.3
			c0-0.1-0.1-0.2-0.1-0.3c0-0.1-0.1-0.2-0.1-0.5c0-0.2-0.1-0.5-0.1-0.7c0-0.2-0.1-0.5-0.2-0.8c-0.1-0.3-0.1-0.5-0.1-0.7
			s0-0.3-0.1-0.5c0-0.2-0.1-0.4-0.2-0.8c-0.1-0.3-0.1-0.5-0.1-0.6c0-0.1,0-0.2,0-0.4c0-0.1-0.1-0.3-0.1-0.7c0-0.4,0-0.7-0.1-1
			l-0.1-0.7V10.9z M211.3,39.8c-0.2,0-0.4,0-0.6,0.1s-0.5,0.1-0.8,0.2c-0.4,0.1-0.7,0.2-0.9,0.2c-0.2,0.1-0.4,0.1-0.6,0.2
			c-0.2,0-0.3,0.1-0.5,0c-0.2,0-0.4,0-0.8,0.1c-0.1,0-0.2,0-0.4,0.1c-0.2,0-0.3,0.1-0.4,0.1c-0.3,0-0.6,0.1-0.8,0.1
			c-0.3,0-0.6,0.1-1,0.1l-1.2,0.2c-0.5,0.1-0.9,0.1-1.1,0.1c-0.3,0-0.7,0-1.2,0.1c-0.1,0-0.3,0-0.6,0.1c-0.3,0-0.5,0.1-0.6,0.1
			c-0.6,0-1.2,0-1.9,0c-0.6,0-1.2,0-1.9,0c-0.3,0-0.6,0-1-0.1c-0.1,0-0.2-0.1-0.1-0.2c0-0.1,0.1-0.2,0.2-0.2
			c0.3-0.1,0.7-0.2,1.1-0.2c0.2,0,0.3,0,0.4,0c0.1,0,0.2,0,0.3,0c0.1,0,0.2-0.1,0.3-0.2s0.3-0.1,0.4,0c0.2,0,0.4,0.1,0.5,0
			c0.1,0,0.3,0,0.5,0.1c0.4,0.1,0.7,0.2,1,0.2h1.4c0.3,0,0.7-0.1,1.1-0.2c0.4-0.1,0.7-0.3,0.8-0.7c0.1-0.2,0.2-0.3,0.3-0.5
			c0.1-0.2,0.2-0.3,0.2-0.4c0-0.1,0.1-0.3,0.2-0.7c0.1-0.3,0.2-0.5,0.2-0.6c0.1-0.4,0.1-0.7,0.2-1c0-0.3,0.1-0.6,0.2-1
			c0.1-0.3,0.1-0.6,0.1-0.7v-0.6c0-0.2,0-0.4,0.1-0.7c0-0.2,0.1-0.4,0.1-0.6c0-0.3,0-0.7-0.1-1c0-0.3-0.1-0.7-0.1-1
			c0-0.2,0-0.3,0-0.5c0-0.2,0-0.3,0-0.5c0-0.3,0-0.6,0-0.8c0-0.2-0.1-0.4-0.1-0.7c0-0.1,0-0.2-0.1-0.3c0-0.1-0.1-0.3-0.1-0.4
			c0-0.5-0.1-0.8-0.3-1.1c-0.2-0.2-0.3-0.5-0.4-0.7c0-0.1-0.1-0.4-0.3-0.7c-0.2-0.4-0.4-0.6-0.6-0.6c0,0-0.1,0-0.1,0
			c0,0-0.1,0-0.1,0c-0.1-0.1-0.2-0.2-0.3-0.2c-0.1,0-0.2-0.1-0.4-0.1c-0.1,0-0.2,0-0.2-0.1s-0.1-0.1-0.2-0.1c-0.1,0-0.3,0-0.4,0
			c-0.2,0-0.3,0-0.4,0c-0.2,0-0.3,0-0.4-0.1c-0.3,0-0.6,0.2-0.8,0.5c-0.1,0.2-0.2,0.5-0.2,0.8c0,0.3-0.1,0.6-0.1,0.7v0.3
			c0,0.3-0.1,0.7-0.2,1.2c-0.1,0.5-0.2,0.9-0.4,1.2c0,0.1-0.1,0.3-0.1,0.6c0,0.3-0.1,0.6-0.2,0.8c-0.1,0.1-0.2,0.3-0.2,0.6
			c-0.1,0.3-0.1,0.5-0.1,0.6c0,0.2,0,0.6-0.1,1.3c-0.1,0.6-0.1,1-0.1,1.2c0,0.6,0,1.1-0.1,1.5c0,0.4-0.1,0.8-0.2,1.1
			c-0.1,0.2-0.1,0.4-0.2,0.5c0,0.1-0.1,0.3-0.1,0.5c-0.1,0.5-0.4,1-0.8,1.3c-0.4,0.3-0.8,0.5-1.2,0.5c-0.1,0-0.2,0-0.4,0
			c-0.2,0-0.2,0-0.3,0c-0.6,0-1,0-1.1,0.1c-0.2,0.1-0.3,0.2-0.6,0.2c-0.3,0-0.6,0.1-0.9,0.3c-0.2,0.2-0.5,0.3-0.7,0.4
			c-0.2,0.1-0.4,0.2-0.5,0.2c-0.1,0-0.2,0.1-0.4,0.2c-0.2,0.2-0.4,0.3-0.6,0.4c-0.2,0.1-0.3,0.2-0.6,0.3c-0.2,0.1-0.4,0.2-0.6,0.2
			c-0.2,0.1-0.3,0.2-0.4,0.4c-0.1,0.1-0.2,0.2-0.2,0.4c0,0.2-0.1,0.3-0.1,0.5c-0.1,0.3-0.1,0.6-0.1,0.9c0,0.4,0,0.6,0,0.7
			c0,0.2,0.1,0.4,0.3,0.4c0.2,0.1,0.3,0.1,0.5,0.2c0.3,0.2,0.7,0.3,1.3,0.4c0.5,0.1,0.8,0.1,0.9,0.2c0.3,0,0.6,0,0.9,0
			c0.2,0,0.5,0,0.9,0c0.3,0,0.6-0.1,0.8,0c0.2,0,0.6,0,1,0c0.3,0.1,0.6,0.1,0.8,0.1c0.2,0,0.5,0,0.8,0h1.2c0.4,0,0.8,0,1.1-0.1
			c0.3,0.1,0.6,0.1,1,0.1c0.4,0,0.8-0.1,1.2-0.1c0.6,0,1-0.1,1.3-0.1c0.3,0,0.7-0.1,1.3-0.2c0.6,0,1.1-0.1,1.5-0.2s0.8-0.1,1.1-0.2
			c0.1,0,0.3-0.1,0.5-0.1c0.2,0,0.4-0.1,0.6-0.1c0.3,0,0.6-0.1,0.8-0.1c0.2,0,0.5-0.1,0.8-0.2c0.5-0.1,0.9-0.2,1.1-0.2
			c0.3-0.1,0.5-0.2,0.7-0.3c0.2,0,0.4-0.1,0.7-0.4c0.1-0.1,0.2-0.2,0.3-0.2c0.1,0,0.2-0.1,0.3-0.2c0.3-0.3,0.6-0.6,0.8-1.1
			c0.1-0.2,0.2-0.5,0.2-0.7c0-0.3,0.1-0.4,0.1-0.5c0-0.2-0.1-0.4-0.3-0.6C211.7,39.8,211.5,39.8,211.3,39.8z M272.6,18.5
			c0-0.1-0.1-0.2-0.2-0.4c-0.1-0.2-0.3-0.3-0.5-0.4c-0.1,0-0.3-0.1-0.5-0.2c-0.2-0.1-0.3-0.1-0.5-0.1c-0.2-0.1-0.4-0.1-0.7-0.1
			c-0.2,0-0.5,0.1-0.8,0.1H269c-0.3,0-0.6,0-1,0.1c-0.1,0-0.3,0.1-0.4,0.1c-0.2,0-0.3,0.1-0.4,0.2c-0.2,0.1-0.4,0.1-0.6,0.2
			c-0.2,0-0.4,0.1-0.6,0.2c-0.1,0-0.2,0-0.2,0c-0.1,0-0.1,0-0.2,0c-0.1,0-0.2,0.1-0.4,0.1c-0.2,0-0.3,0.1-0.5,0.1
			c-0.4,0.2-0.7,0.3-0.7,0.3c-0.4,0.2-0.8,0.3-1.2,0.4c-0.4,0.1-0.8,0.2-1.2,0.4c-0.2,0.1-0.4,0.2-0.6,0.3c-0.2,0.1-0.4,0.2-0.6,0.2
			c-0.2,0.1-0.5,0.2-0.9,0.5c-0.3,0.2-0.4,0.4-0.4,0.7c0,0.1,0,0.2,0,0.4c0,0.2,0.1,0.3,0.2,0.4c0.1,0.1,0.2,0.2,0.2,0.2
			c0.1,0,0.2,0.1,0.4,0.3c0.1,0.1,0.3,0.2,0.4,0.3c0.2,0.1,0.3,0.2,0.5,0.3c0.1,0,0.2,0.1,0.5,0.1c0.2,0,0.5,0,0.8,0
			c0.3,0,0.6-0.1,0.9-0.2c0.3-0.1,0.5-0.2,0.6-0.2c0,0,0.1-0.1,0.1-0.1c0,0,0.1,0,0.1-0.1c0.1-0.1,0.2-0.1,0.4-0.2
			c0.2,0,0.3-0.1,0.4-0.1c0.4-0.2,0.7-0.3,0.9-0.3c0,0,0.1,0,0.3-0.1c0.2-0.1,0.2-0.1,0.3-0.1c0.1,0,0.2-0.1,0.2-0.1
			c0,0,0.2-0.1,0.3-0.2l0.4-0.1c0.1,0,0.2-0.1,0.2-0.1c0,0,0.1,0,0.2-0.1c0.2,0,0.3-0.1,0.5-0.1c0.1,0,0.3,0,0.4,0
			c0.1,0,0.2,0,0.5,0c0.2,0,0.4,0,0.5,0.1c0.1,0.1,0.3,0.1,0.7,0.2c0.4,0,0.7,0,0.8,0c0,0,0.1,0,0.3,0c0.1,0,0.2,0,0.3,0
			c0.1,0,0.2-0.1,0.2-0.1s0.1,0,0.2-0.1c0.1-0.1,0.2-0.2,0.3-0.2c0.1-0.1,0.2-0.2,0.3-0.4c0.2-0.3,0.3-0.7,0.3-1.1
			C272.7,19.2,272.7,18.8,272.6,18.5z M249.1,31.2c0.1,0.1,0.2,0.1,0.3,0c0.1-0.1,0.2-0.1,0.3,0c0,0,0.1,0,0.1,0.1
			c0,0.1,0.1,0.1,0.1,0.2c0.2,0.2,0.4,0.3,0.5,0.2c0.1-0.1,0.3-0.1,0.5,0.1l0.3,0.7l0.3,0.2l0.4,0.3c0.3,0.1,0.4,0.2,0.4,0.2
			c0,0.1,0.1,0.1,0.3,0.1c0.1,0,0.2,0,0.4,0c0.2,0,0.2-0.1,0.3-0.2c0.1-0.1,0.2-0.3,0.5-0.4c0.2-0.1,0.4-0.2,0.5-0.2
			c0,0,0.1-0.1,0.3-0.2c0.2-0.2,0.3-0.3,0.5-0.5c0.2-0.2,0.3-0.3,0.5-0.5c0.2-0.2,0.2-0.3,0.2-0.3l0.5-1.1c0.1-0.2,0.2-0.5,0.3-0.8
			c0.1-0.3,0.3-0.7,0.5-1.2c0.1-0.2,0.2-0.5,0.3-0.7c0.1-0.3,0.2-0.6,0.3-0.8c0-0.2,0.1-0.4,0.2-0.6c0.1-0.2,0.1-0.4,0.2-0.5
			c0.1-0.4,0.1-0.7,0.2-0.9c0-0.2,0.1-0.4,0.1-0.7c0,0,0-0.1,0.1-0.2c0.1-0.1,0.1-0.2,0.1-0.3c0,0,0-0.2,0.1-0.5
			c0-0.3,0.1-0.4,0.1-0.5c0-0.2,0.1-0.4,0.1-0.6c0-0.2,0.1-0.4,0.1-0.6c0-0.2,0.1-0.5,0.1-0.9c0-0.4,0-0.7,0-0.9V18
			c0-0.4,0-0.8-0.1-1.1c-0.1-0.3-0.1-0.6-0.1-0.9c0-0.3,0-0.6-0.1-0.9c-0.1-0.4-0.2-0.7-0.3-0.9c-0.1-0.2-0.2-0.5-0.2-0.9
			c-0.1-0.7-0.2-1.2-0.4-1.6c-0.2-0.4-0.3-0.8-0.5-1.1c-0.2-0.5-0.4-0.9-0.6-1.3c-0.2-0.3-0.6-0.7-1-1c-0.1,0-0.3-0.1-0.5-0.2
			c-0.2-0.1-0.4-0.2-0.5-0.3c-0.3-0.1-0.5-0.2-0.8-0.3c-0.3,0-0.5-0.1-0.6-0.1c-0.3,0-0.7,0.1-0.9,0.3c-0.2,0-0.4,0.2-0.6,0.4
			c-0.2,0.1-0.3,0.3-0.4,0.6c0,0.1-0.1,0.2-0.1,0.4s0,0.3,0.1,0.4c0,0.1,0,0.2,0.1,0.3c0,0.1,0,0.2,0.1,0.2c0,0.3,0,0.6,0.1,0.7
			c0.1,0.1,0.1,0.4,0.1,0.7v1.1c0,0.3,0,0.5,0.1,0.7c0.1,0.2,0.1,0.5,0.1,0.7c0,0.1,0,0.2,0,0.4c0,0.1,0,0.3,0,0.5
			c0,0.2,0,0.4-0.1,0.6s-0.1,0.4-0.2,0.7c-0.1,0.4-0.2,0.7-0.2,1c-0.1,0.3-0.1,0.6-0.2,0.9c-0.1,0.6-0.2,1.3-0.5,1.8
			c-0.2,0.6-0.4,1.1-0.5,1.8c0,0.3,0,0.5-0.1,0.7c-0.1,0.2-0.1,0.4-0.1,0.4c0,0.2-0.1,0.4-0.1,0.6c0,0.2-0.1,0.4-0.1,0.6
			c-0.1,0.2-0.2,0.5-0.3,0.7c-0.1,0.3-0.2,0.5-0.3,0.8c-0.2,0.6-0.3,1.2-0.3,1.9c0,0.7-0.1,1.3-0.1,2v1.1
			C248.5,30.9,248.7,31.1,249.1,31.2z M237.1,34.6c-0.1-0.1-0.3-0.2-0.6-0.3c-0.2-0.1-0.5-0.1-0.7-0.1h-1.2c-0.2,0-0.4,0-0.5,0
			c-0.1,0-0.2,0-0.3,0c-0.2,0-0.4,0.1-0.6,0.1c-0.2,0-0.4,0.1-0.6,0.1c-0.5,0-0.9,0.1-1.3,0.1s-0.8,0-1.3,0.1c-0.3,0-0.5,0.1-0.8,0
			c-0.3,0-0.6,0-0.9,0.1c-0.1,0-0.2,0.1-0.4,0.1c-0.2,0-0.3,0.1-0.5,0.1h-0.1c-0.2,0-0.3,0.1-0.4,0.1c-0.1,0-0.2,0.1-0.4,0.1
			c0.1-0.2,0.2-0.4,0.4-0.6c0.2-0.2,0.3-0.3,0.4-0.6c0-0.1,0.1-0.3,0.2-0.5c0-0.1,0.1-0.3,0.1-0.5c0-0.2,0.1-0.4,0.1-0.5
			c0-0.2,0.1-0.3,0.1-0.4c0-0.1,0-0.2,0-0.3c0-0.1,0-0.2,0.1-0.4c0-0.2,0.1-0.2,0.1-0.3c0.1-0.3,0.2-0.7,0.3-1.1
			c0.1-0.4,0.2-0.7,0.3-0.9l0.2-0.7c0,0,0-0.2,0.1-0.4c0-0.2,0.1-0.5,0.2-0.7c0.1-0.3,0.2-0.6,0.3-1c0.1-0.3,0.2-0.7,0.2-0.9
			c0.1-0.3,0.1-0.6,0.2-0.9c0.1-0.3,0.2-0.7,0.2-0.9c0-0.3,0.1-0.6,0.1-0.9c0-0.1,0-0.3,0-0.5c0-0.3,0-0.4,0-0.5v-0.5
			c0-0.5-0.1-0.9-0.3-1.4c-0.1-0.1-0.2-0.2-0.2-0.3c-0.1-0.1-0.1-0.2-0.2-0.4c-0.1-0.2-0.3-0.4-0.5-0.6c-0.3-0.2-0.5-0.4-0.7-0.4
			c-0.3,0-0.6,0.1-0.8,0.3c-0.1,0.2-0.2,0.5-0.3,0.7c-0.1,0.3-0.1,0.5-0.1,0.6c0,0.3-0.1,0.4-0.1,0.5c0,0.1,0,0.1,0,0.2
			c-0.1,0.3-0.2,0.5-0.2,0.8c-0.1,0.3-0.1,0.6-0.2,1c-0.1,0.2-0.2,0.4-0.2,0.5c0,0.1-0.1,0.3-0.1,0.5l-0.1,0.3
			c0,0.2-0.1,0.4-0.1,0.6c0,0.2-0.1,0.3-0.2,0.5c-0.1,0.3-0.2,0.7-0.3,1.1c-0.1,0.4-0.2,0.8-0.3,1.2c-0.1,0.1-0.2,0.4-0.3,0.9
			c-0.1,0.5-0.2,1.1-0.4,1.7c-0.1,0.7-0.2,1.3-0.3,1.9c-0.1,0.6-0.2,1-0.2,1.1V33c-0.1,0.1-0.4,0.3-0.8,0.5c-0.3,0.2-0.7,0.3-1,0.5
			c-0.3,0.1-0.6,0.2-0.7,0.3c-0.1,0.1-0.2,0.1-0.2,0.1c0,0-0.2,0-0.4,0.1c-0.1,0-0.2,0-0.4,0.1c-0.2,0-0.4,0.1-0.6,0.1
			c-0.2,0.1-0.3,0.2-0.5,0.2c-0.2,0-0.3,0.1-0.4,0.1c-0.2,0.1-0.5,0.3-0.8,0.7c-0.3,0.3-0.6,0.6-0.7,1c0,0.1-0.1,0.2-0.1,0.3
			c0,0.1,0,0.2,0,0.3c0,0.2-0.1,0.3-0.2,0.5c-0.1,0.2-0.2,0.5-0.2,0.9c0,0.3,0.1,0.7,0.2,1.2c0.1,0.4,0.2,0.7,0.2,0.8
			c0.1,0.2,0.2,0.4,0.4,0.5c0.2,0.1,0.3,0.3,0.6,0.4c0,0,0.2,0.1,0.6,0.2c0.3,0,0.7,0,1.1-0.2c0.1,0,0.2-0.1,0.3-0.1
			c0.1,0,0.2-0.1,0.3-0.2c0,0,0.1,0,0.2-0.1c0.1,0,0.2-0.1,0.2-0.1c0.2-0.1,0.5-0.2,0.9-0.3s0.8-0.3,1.2-0.5c0.2,0,0.4-0.1,0.6-0.2
			c0.2-0.1,0.4-0.1,0.6-0.1c0.1,0,0.2,0,0.4,0c0.1,0,0.2-0.1,0.4-0.1c0.2,0,0.4-0.1,0.6-0.2c0.2-0.1,0.4-0.1,0.5-0.2
			c0.1,0,0.3-0.1,0.4-0.1c0.2,0,0.3-0.1,0.4-0.1c0.2-0.1,0.4-0.2,0.6-0.2c0.2,0,0.7-0.1,1.3-0.2c0,0,0.1,0,0.3-0.1
			c0.1,0,0.3-0.1,0.5-0.1l0.9-0.1h1.2c0.3,0,0.6,0,1-0.1c0.4,0,0.9-0.1,1.4-0.2c0.2,0,0.4-0.1,0.6-0.1c0.2,0,0.3-0.1,0.4-0.1
			c0.2-0.1,0.3-0.1,0.5-0.1c0.1,0,0.3,0,0.5-0.1c0.2-0.1,0.3-0.2,0.4-0.3c0.1-0.1,0.2-0.2,0.3-0.3c0,0,0.1-0.2,0.2-0.4
			s0.1-0.4,0.2-0.6c0.1-0.1,0.2-0.3,0.5-0.5c0.1-0.1,0.1-0.2,0.2-0.3c0-0.1,0-0.3,0-0.4v-0.1C237.4,34.8,237.2,34.6,237.1,34.6z
			 M225.2,35l-0.1,0.3l-0.8,0.3c0,0-0.1,0.1-0.2,0.1s-0.1,0-0.2,0.1c-0.1,0-0.2,0.1-0.3,0.1c0,0-0.1,0-0.1,0c0,0-0.1,0-0.1,0
			l-0.7,0.1c0.1-0.1,0.2-0.1,0.3-0.2c0.1,0,0.2-0.1,0.2-0.1l0.3-0.1c0.1,0,0.2-0.1,0.3-0.1c0.1,0,0.3-0.1,0.5-0.2l0.5-0.3
			c0.1-0.1,0.2-0.2,0.4-0.3c0.1-0.1,0.2-0.2,0.3-0.3C225.3,34.6,225.3,34.8,225.2,35z M240.2,21.5v-0.4c0-0.2,0.1-0.3,0.1-0.5
			c0-0.1,0.1-0.3,0.1-0.5c0.1-0.5,0.2-1,0.3-1.6s0.1-1.1,0.1-1.7v-1.9c0-0.4,0-0.7-0.1-1c0-0.4,0-0.7-0.1-0.9c0-0.2-0.1-0.4-0.1-0.6
			c-0.1-0.4-0.2-0.8-0.3-1.1c-0.1-0.4-0.2-0.7-0.3-0.9c-0.1,0-0.2-0.2-0.2-0.4c0-0.1-0.1-0.2-0.1-0.3c-0.1-0.1-0.2-0.2-0.3-0.5
			c-0.1-0.2-0.2-0.4-0.3-0.5c-0.1-0.1-0.2-0.2-0.2-0.3c0-0.1-0.1-0.2-0.1-0.2c0,0-0.1-0.1-0.1-0.1c0,0,0-0.1-0.1-0.2L238.5,8
			c-0.1-0.2-0.2-0.3-0.3-0.3c-0.1,0-0.2-0.1-0.3-0.2c0,0-0.1,0-0.2-0.1c-0.1-0.1-0.2-0.1-0.3-0.2C237.3,7,237.1,7,237,6.9
			c-0.1-0.1-0.3-0.1-0.4-0.2l-0.4-0.2c-0.1,0-0.2-0.1-0.2-0.1c-0.1,0-0.1-0.1-0.2-0.1c-0.6-0.1-1.1-0.2-1.4-0.2h-0.6
			c-0.1,0-0.3,0-0.7,0c-0.3,0-0.6,0.1-0.8,0.1h-0.1c-0.1,0-0.2,0-0.2,0.1c-0.1,0-0.1,0.1-0.2,0.1c-0.2,0-0.3,0-0.5,0.1l-0.8,0.4
			c-0.1,0-0.2,0.1-0.3,0.1c-0.1,0-0.2,0.1-0.3,0.1c-0.1,0-0.2,0.1-0.3,0.1c-0.1,0-0.2,0.1-0.2,0.1c-0.1,0.1-0.3,0.2-0.4,0.3
			c-0.2,0.1-0.2,0.2-0.3,0.2l-0.5,0.4c-0.2,0.2-0.4,0.3-0.6,0.5c-0.2,0.2-0.3,0.3-0.4,0.5c-0.1,0.4-0.2,0.8-0.2,1.3V11l0.1,0.5
			c0,0.1,0.1,0.2,0.1,0.3c0,0.1,0.1,0.2,0.1,0.3l0.2,0.2c0.1,0.1,0.2,0.1,0.2,0.2c0,0,0.1,0.1,0.2,0.2c0.1,0,0.2,0.1,0.3,0.2
			c0.1,0.1,0.2,0.1,0.4,0.1h0.1l0.1,0.1c0.1,0,0.1,0,0.2,0c0,0,0.1,0,0.2,0h0.2l0.3-0.1c0.3-0.1,0.4-0.3,0.5-0.5
			c0.1-0.1,0.2-0.3,0.2-0.5c0-0.2,0.1-0.4,0.2-0.5c0.4-0.4,0.7-0.8,1-1l0.6-0.4c0.2-0.1,0.4-0.3,0.8-0.4c0.1,0,0.2,0,0.3-0.1
			c0.1,0,0.2-0.1,0.3-0.1h0.5c0.1,0,0.2,0.1,0.5,0.3c0.2,0.2,0.3,0.3,0.3,0.4v0.6c0,0.3,0.1,0.6,0.2,0.9c0.1,0.2,0.1,0.5,0,0.9
			c0,0.5,0.1,0.8,0.1,1v0.9c0,0.3,0,0.5,0,0.6c0,0.1,0,0.3,0,0.5v0.3c0,0.1,0,0.3-0.1,0.8c0,0.2-0.1,0.4-0.1,0.6
			c0,0.2-0.1,0.5-0.1,0.8c0,0.2-0.1,0.4-0.1,0.6c0,0.2-0.1,0.3-0.1,0.4c0,0,0,0.2-0.1,0.3c-0.1,0.2-0.1,0.3-0.1,0.3
			c0,0.1-0.1,0.2-0.2,0.4c-0.1,0.2-0.1,0.3-0.2,0.4c-0.1,0.3-0.2,0.6-0.3,0.8c-0.1,0.2-0.2,0.3-0.2,0.4c0,0.1,0,0.2-0.1,0.4
			c-0.1,0.2-0.1,0.3-0.1,0.3c-0.2,0.3-0.3,0.5-0.3,0.6c0,0.1,0,0.2,0,0.3c0,0.1,0,0.4,0.1,0.7c0,0,0,0.1,0,0.2c0,0.1,0,0.2,0,0.4
			s0,0.3,0.1,0.4c0,0.1,0.1,0.2,0.1,0.3c0.1,0.2,0.2,0.3,0.4,0.4c0.1,0.1,0.2,0.2,0.4,0.3c0,0,0.1,0.1,0.1,0.2
			c0,0.1,0.1,0.1,0.2,0.1c0,0,0.1,0,0.1,0c0,0,0.1,0,0.2,0c0.2,0,0.3,0,0.4,0c0.1,0,0.1,0.1,0.2,0.2h0.5c0.1,0,0.2,0,0.3,0
			c0.1,0,0.1,0,0.2,0h0.5c0.2-0.1,0.3-0.2,0.3-0.2c0.1,0,0.3-0.1,0.6-0.1c0.3,0,0.5-0.1,0.6-0.1c0.2,0,0.4-0.1,0.6-0.3
			c0.2-0.2,0.3-0.4,0.4-0.6c0.1-0.3,0.2-0.5,0.3-0.7v-0.1c0,0,0-0.1,0.1-0.1c0,0,0-0.1,0.1-0.2c0.2-0.3,0.3-0.6,0.5-1.2
			C240,22.2,240.1,21.8,240.2,21.5z M261.1,42.5c0-0.1-0.1-0.1-0.2-0.1h-0.2l-0.1-0.1h0.1c0,0,0.1,0,0.1,0c0,0,0,0,0.1,0
			c0,0,0.1-0.1,0.1-0.1c0.1,0,0.2,0,0.2-0.1V42c0,0,0-0.1,0-0.1c0,0-0.1-0.1-0.1-0.1c0-0.1-0.1-0.2-0.3-0.3
			c-0.1-0.1-0.2-0.2-0.3-0.2h-0.7c-0.3,0-0.5,0-0.8,0.1c-0.2,0-0.4,0.1-0.6,0.1c-0.2,0-0.3,0-0.6,0.1c-0.1,0-0.2,0-0.3,0
			c-0.1,0-0.2,0-0.3,0c-0.2,0-0.4,0.1-0.6,0.1c-0.2,0-0.4,0-0.6,0h-0.6c-0.2,0-0.3,0-0.5,0.1c-0.3,0.1-0.5,0.1-0.8,0.1
			s-0.5,0-0.8,0.1c-0.2,0-0.4,0.1-0.6,0.1c-0.2,0-0.4,0.1-0.6,0.1c-0.2,0-0.4,0.1-0.6,0.2c-0.2,0.1-0.4,0.1-0.6,0.1
			c-0.2,0-0.6,0-1.1,0.1c-0.5,0.1-0.8,0.1-0.9,0.1c-0.1,0-0.3,0-0.5,0.1c-0.3,0.1-0.6,0.1-0.7,0.2c-0.1,0-0.3,0.1-0.6,0.2
			c-0.1,0-0.2,0-0.4-0.1c-0.2,0-0.3,0-0.4,0c-0.2,0.1-0.3,0.1-0.4,0.1c-0.1,0-0.2-0.1-0.3-0.1c-0.3-0.1-0.5-0.2-0.7-0.4
			c-0.1-0.1-0.2-0.2-0.2-0.2s-0.1-0.2-0.2-0.4c-0.1-0.3-0.1-0.6,0-0.9c0.1-0.3,0.1-0.6,0.1-0.7c0-0.1,0-0.2,0-0.4c0-0.2,0-0.3,0-0.4
			c0.1-0.1,0.2-0.3,0.2-0.6c0-0.3,0.1-0.5,0.1-0.7c0-0.2,0.1-0.4,0.1-0.6c0-0.2,0-0.4,0.1-0.5c0.1-0.2,0.1-0.4,0.1-0.6
			c0-0.2,0-0.4,0-0.5c0-0.1,0.1-0.3,0.1-0.5c0-0.2,0.1-0.3,0.1-0.4c0,0,0-0.2,0.1-0.4c0-0.2,0.1-0.4,0.2-0.6c0.1-0.2,0.1-0.4,0-0.5
			c-0.1-0.1-0.2-0.2-0.4-0.4c0,0-0.1-0.1-0.3-0.1c-0.2,0-0.3,0-0.5,0c-0.2,0-0.3,0-0.5,0c-0.2,0-0.3-0.1-0.3-0.1
			c-0.1-0.1-0.3-0.1-0.6-0.1c-0.1,0-0.2,0-0.3,0.1l-0.8,0.3c-0.1,0-0.2,0.1-0.2,0.1c0,0-0.1,0.1-0.2,0.1c-0.1,0-0.2,0.1-0.3,0.2
			c-0.1,0.1-0.2,0.2-0.2,0.3c-0.1,0.2-0.2,0.4-0.3,0.7c-0.1,0.3-0.2,0.5-0.3,0.7c-0.1,0.2-0.2,0.4-0.3,0.7c0,0.2-0.1,0.5-0.1,0.7
			c0,0.1-0.1,0.3-0.1,0.6c0,0.3-0.1,0.5-0.1,0.6c0,0.1,0,0.2-0.1,0.2c0,0-0.1,0.1-0.1,0.2c0,0.1-0.1,0.3-0.1,0.4s0,0.3-0.1,0.4
			c0,0.2,0,0.3,0,0.4c0,0.1,0,0.2,0,0.4v0.6c0,0.2,0,0.4-0.1,0.5c0,0.1-0.1,0.2-0.1,0.4c0,0.1,0,0.2,0,0.4c0,0.1,0,0.2,0,0.4
			c0,0.2,0,0.3,0,0.4c0,0.4,0,0.7,0.1,0.9c0.1,0.5,0.2,0.8,0.3,1c0,0.1,0.1,0.2,0.3,0.4c0.2,0.2,0.3,0.3,0.4,0.4
			c0.1,0.2,0.3,0.4,0.5,0.5c0.2,0.1,0.4,0.3,0.6,0.5c0.2,0.2,0.4,0.4,0.7,0.6c0.2,0.2,0.4,0.3,0.6,0.4c0.2,0.1,0.4,0.1,0.6,0.1h0.6
			c0.2,0,0.5,0,1-0.1c0.1,0,0.2,0,0.2,0c0.1,0,0.1,0,0.2,0c0.1,0,0.3-0.1,0.5-0.2c0,0,0.1,0,0.3-0.1c0.2,0,0.2-0.1,0.3-0.1
			c0.6-0.2,1-0.3,1.4-0.3c0.1,0,0.3-0.1,0.4-0.1c0.2,0,0.3,0,0.4-0.1c0.1,0,0.2-0.1,0.2-0.1c0,0,0.1,0,0.2-0.1
			c0.1,0,0.2-0.1,0.4-0.1c0.1,0,0.2-0.1,0.4-0.1c0.2,0,0.4-0.1,0.7-0.1c0.2,0,0.5-0.1,0.7-0.1c0.3,0,0.5-0.1,0.6-0.1
			c0.1,0,0.3-0.1,0.6-0.2c0.2,0,0.3-0.1,0.5-0.1c0.1,0,0.3-0.1,0.5-0.1c0.1,0,0.2,0,0.3-0.1c0.1,0,0.2-0.1,0.3-0.1
			c0.1,0,0.3-0.1,0.5-0.1c0.2,0,0.4-0.1,0.5-0.1h0.2c0.3-0.1,0.5-0.1,0.6-0.1c0.2,0,0.6-0.1,1.1-0.3c0.5-0.1,1-0.2,1.5-0.3
			c0.2,0,0.3-0.1,0.5-0.2c0.2-0.1,0.3-0.1,0.4-0.2c0,0,0.1,0,0.3-0.1c0.1,0,0.2-0.1,0.3-0.1l0.8-0.2c0.2,0,0.3-0.1,0.4-0.2
			c0.1-0.1,0.2-0.2,0.2-0.2c0-0.1,0.1-0.2,0.1-0.2c0,0,0.1-0.1,0.1-0.2c0-0.1,0-0.2,0-0.2C261.2,42.6,261.2,42.6,261.1,42.5z"/>
	</g>
</g>
</svg>
