<?xml version="1.0" encoding="utf-8"?>
<!-- Generator: Adobe Illustrator 22.0.1, SVG Export Plug-In . SVG Version: 6.00 Build 0)  -->
<svg version="1.1" id="레이어_1" xmlns="http://www.w3.org/2000/svg" xmlns:xlink="http://www.w3.org/1999/xlink" x="0px"
	 y="0px" viewBox="0 0 470 30" style="enable-background:new 0 0 470 30;" xml:space="preserve">
<style type="text/css">
	.st0{fill:#FFFFFF;}
</style>
<g>
	<g>
		<path class="st0" d="M30,10.9c-0.6,0-1,0.2-1.4,0.6c-0.4,0.4-0.5,0.8-0.5,1.4c0,0.5,0.2,1,0.5,1.4c0.4,0.4,0.8,0.6,1.4,0.6
			c0.6,0,1-0.2,1.4-0.6c0.4-0.4,0.5-0.8,0.5-1.4c0-0.5-0.2-1-0.5-1.4C31.1,11.1,30.6,10.9,30,10.9z M5.7,7.1h10.4V4.7h-15v2.4h2.1
			v15.7h13.6v-2.4H5.7V7.1z M23.5,27.2H26V1.6h-2.5V27.2z M59,27.2h2.5V1.6H59V27.2z M34.8,21.4l2.2,1.4l7-13.8l7.4,13.8l2.2-1.4
			L43.9,4.2L34.8,21.4z M92.8,8.9h2.4C95.1,9.1,95,9.4,95,9.6c0,0.5,0.2,0.9,0.5,1.3c0.3,0.3,0.8,0.5,1.3,0.5c0.5,0,1-0.2,1.3-0.5
			c0.3-0.3,0.5-0.7,0.5-1.3c0-0.5-0.2-0.9-0.5-1.3c-0.3-0.3-0.8-0.5-1.3-0.5c-0.5,0-1,0.2-1.3,0.5c-0.1,0.1-0.2,0.2-0.2,0.3V1.8
			H84.7V4h8V8.9z M82.7,14.3H111V12H82.7V14.3z M105.7,9.6h2.5V1.8H97.3V4h8.4V9.6z M109.3,20.6v-2.4H98.2v-1.9h-2.7v1.9H84.4v2.4
			h12l-12.6,5.3l1.4,2L96.8,23l11.5,4.9l1.4-2l-12.5-5.3H109.3z M154.5,27.2h2.5V1.6h-2.5V27.2z M145.6,7.1h2.9V4.7h-17.4v2.4h2.9
			v13.3h-2.9v2.4h18v-2.4h-3.6V7.1z M143,20.4h-6.5V7.1h6.5V20.4z M163.8,19.9h28.3v-2.4h-28.3V19.9z M177.9,21.8
			c-0.6,0-1.1,0.2-1.5,0.6c-0.4,0.4-0.6,0.9-0.6,1.5c0,0.6,0.2,1.1,0.6,1.5c0.4,0.4,0.9,0.6,1.5,0.6c0.6,0,1.1-0.2,1.5-0.6
			c0.4-0.4,0.6-0.9,0.6-1.5c0-0.6-0.2-1.1-0.6-1.5C179,22,178.5,21.8,177.9,21.8z M173,12.6c0.6,0.6,1.4,1.1,2.2,1.4
			s1.8,0.5,2.7,0.5c1,0,1.9-0.2,2.7-0.5s1.6-0.8,2.2-1.4c0.6-0.6,1.1-1.3,1.5-2.1c0.4-0.8,0.6-1.7,0.6-2.6c0-0.9-0.2-1.8-0.6-2.6
			c-0.4-0.8-0.9-1.5-1.5-2.1c-0.6-0.6-1.4-1.1-2.2-1.4s-1.8-0.5-2.7-0.5c-1,0-1.9,0.2-2.7,0.5s-1.6,0.8-2.2,1.4
			c-0.6,0.6-1.1,1.3-1.5,2.1c-0.4,0.8-0.6,1.7-0.6,2.6c0,0.9,0.2,1.8,0.6,2.6C171.9,11.3,172.4,12,173,12.6z M173.8,6.3
			c0.2-0.5,0.5-1,1-1.4c0.4-0.4,0.9-0.7,1.4-1c0.5-0.3,1.1-0.4,1.8-0.4c0.6,0,1.2,0.1,1.8,0.4c0.5,0.3,1,0.6,1.4,1
			c0.4,0.4,0.7,0.9,1,1.4c0.2,0.5,0.3,1.1,0.3,1.7c0,0.6-0.1,1.2-0.3,1.7c-0.2,0.5-0.5,1-1,1.4c-0.4,0.4-0.9,0.7-1.4,1
			c-0.5,0.2-1.1,0.4-1.8,0.4c-0.6,0-1.2-0.1-1.8-0.4c-0.5-0.2-1-0.6-1.4-1c-0.4-0.4-0.7-0.9-1-1.4c-0.2-0.5-0.3-1.1-0.3-1.7
			C173.4,7.3,173.5,6.8,173.8,6.3z M202.3,19.2h-2.5v7.9h24.9v-2.4h-22.4V19.2z M223.3,8.2H203V1.9h-2.5v8.5h22.8V8.2z M197.7,16.5
			H226v-2.4h-28.3V16.5z M269.5,17.3h2.5V0.9h-2.5V17.3z M266.1,9.3c-0.6,0-1,0.2-1.4,0.5c-0.3,0.4-0.5,0.8-0.5,1.4
			c0,0.5,0.2,1,0.5,1.4c0.3,0.4,0.8,0.5,1.4,0.5c0.6,0,1-0.2,1.4-0.5c0.3-0.4,0.5-0.8,0.5-1.4c0-0.5-0.2-1-0.5-1.4
			C267.1,9.5,266.7,9.3,266.1,9.3z M266.1,3.5c-0.6,0-1,0.2-1.4,0.5c-0.3,0.4-0.5,0.8-0.5,1.4c0,0.5,0.2,1,0.5,1.4
			c0.3,0.4,0.8,0.5,1.4,0.5c0.6,0,1-0.2,1.4-0.5c0.3-0.4,0.5-0.8,0.5-1.4c0-0.5-0.2-1-0.5-1.4C267.1,3.7,266.7,3.5,266.1,3.5z
			 M265.4,17.9c-0.7-0.5-1.4-1-2.3-1.3c-0.9-0.3-1.8-0.5-2.8-0.5s-2,0.2-2.8,0.5c-0.9,0.3-1.6,0.7-2.3,1.3c-0.7,0.5-1.2,1.2-1.5,2
			c-0.4,0.8-0.5,1.6-0.5,2.6c0,1,0.2,1.8,0.5,2.6c0.4,0.8,0.9,1.4,1.5,2c0.6,0.5,1.4,1,2.3,1.3c0.9,0.3,1.8,0.5,2.8,0.5
			s2-0.2,2.8-0.5c0.9-0.3,1.6-0.7,2.3-1.3c0.6-0.5,1.1-1.2,1.5-2c0.4-0.8,0.5-1.6,0.5-2.6c0-1-0.2-1.8-0.5-2.6
			C266.6,19.1,266.1,18.4,265.4,17.9z M264.6,24c-0.2,0.5-0.6,0.9-1,1.3c-0.4,0.4-0.9,0.7-1.5,0.9c-0.6,0.2-1.2,0.3-1.8,0.3
			c-0.7,0-1.3-0.1-1.8-0.3c-0.6-0.2-1-0.5-1.5-0.9c-0.4-0.4-0.8-0.8-1-1.3c-0.2-0.5-0.4-1-0.4-1.6c0-0.5,0.1-1.1,0.4-1.6
			c0.2-0.5,0.6-0.9,1-1.3c0.4-0.4,0.9-0.7,1.5-0.9c0.6-0.2,1.2-0.3,1.8-0.3c0.6,0,1.2,0.1,1.8,0.3c0.6,0.2,1.1,0.5,1.5,0.9
			c0.4,0.4,0.7,0.8,1,1.3c0.2,0.5,0.4,1,0.4,1.6C265,23,264.8,23.5,264.6,24z M262.8,11.6h-3.1V4.9h2.7V2.6h-16.3v2.3h2.7v6.6h-2.7
			v2.3h16.7V11.6z M257.3,11.6h-5.9V4.9h5.9V11.6z M300.5,27.2h2.5V1.6h-2.5V27.2z M285.9,18.5c-0.3,0.4-0.5,0.8-0.5,1.2
			c0,0.5,0.2,0.8,0.5,1.2c0.3,0.3,0.8,0.5,1.3,0.5c0.5,0,1-0.2,1.3-0.5c0.3-0.3,0.5-0.7,0.5-1.2c0-0.5-0.2-0.9-0.5-1.2
			c-0.3-0.4-0.8-0.5-1.3-0.5C286.6,18,286.2,18.2,285.9,18.5z M278.1,24.3h19.4v-2.4h-19.4V24.3z M281.9,9.3
			c-0.5,0.8-0.7,1.7-0.7,2.7c0,0.7,0.1,1.4,0.4,2.1c0.3,0.7,0.7,1.3,1.2,1.8c0.5,0.5,1.2,0.9,1.9,1.2c0.7,0.3,1.5,0.5,2.5,0.5
			c0.9,0,1.7-0.2,2.5-0.5c0.7-0.3,1.4-0.7,1.9-1.2c0.5-0.5,0.9-1.1,1.2-1.8c0.3-0.7,0.4-1.4,0.4-2.1c0-1-0.2-1.9-0.7-2.7
			c-0.5-0.8-1.2-1.5-2-2h4.8V4.8h-6.7V1.9h-2.5v2.9h-6.7v2.4h4.7C283,7.8,282.3,8.4,281.9,9.3z M287.2,8.4c1,0,1.9,0.3,2.5,1
			c0.6,0.7,1,1.5,1,2.5c0,1-0.3,1.8-1,2.5c-0.6,0.7-1.5,1-2.5,1s-1.9-0.3-2.5-1c-0.6-0.7-1-1.5-1-2.5c0-1,0.3-1.8,1-2.5
			C285.3,8.7,286.1,8.4,287.2,8.4z M306.8,11c-0.6,0-1,0.2-1.4,0.5c-0.3,0.4-0.5,0.8-0.5,1.4c0,0.5,0.2,1,0.5,1.4
			c0.3,0.4,0.8,0.5,1.4,0.5c0.6,0,1-0.2,1.4-0.5c0.3-0.4,0.5-0.8,0.5-1.4c0-0.5-0.2-1-0.5-1.4C307.8,11.2,307.4,11,306.8,11z
			 M316.8,14.3c0.6,0.5,1.3,1,2.1,1.2c0.8,0.3,1.7,0.4,2.6,0.4c1,0,1.8-0.1,2.6-0.4c0.8-0.3,1.5-0.7,2.1-1.2c0.6-0.5,1.1-1.2,1.4-2
			c0.3-0.8,0.5-1.7,0.5-2.7c0-0.8-0.2-1.5-0.5-2.3c-0.3-0.8-0.8-1.4-1.4-2c-0.6-0.6-1.3-1.1-2.1-1.4c-0.8-0.4-1.7-0.5-2.6-0.5
			c-1,0-1.8,0.2-2.6,0.5c-0.8,0.4-1.5,0.8-2.1,1.4c-0.6,0.6-1.1,1.3-1.4,2c-0.3,0.8-0.5,1.5-0.5,2.3c0,1,0.2,1.9,0.5,2.7
			C315.7,13.1,316.1,13.7,316.8,14.3z M317.6,8.1c0.2-0.5,0.5-0.9,0.8-1.3c0.3-0.4,0.8-0.7,1.3-0.9c0.5-0.2,1.1-0.3,1.8-0.3
			s1.3,0.1,1.8,0.3c0.5,0.2,1,0.5,1.3,0.9c0.3,0.4,0.6,0.8,0.8,1.3c0.2,0.5,0.3,1,0.3,1.6c0,0.5-0.1,1.1-0.3,1.6
			c-0.2,0.5-0.4,0.9-0.8,1.3c-0.4,0.4-0.8,0.7-1.3,0.9c-0.5,0.2-1.1,0.3-1.8,0.3s-1.3-0.1-1.8-0.3c-0.5-0.2-0.9-0.5-1.3-0.9
			c-0.4-0.4-0.6-0.8-0.8-1.3c-0.2-0.5-0.3-1-0.3-1.6C317.3,9.1,317.4,8.6,317.6,8.1z M336.2,27.2h2.5V1.6h-2.5V27.2z M312.5,24.3
			h20.4v-2.4h-20.4V24.3z M379.8,10c0.6,0,1-0.2,1.4-0.6c0.4-0.4,0.5-0.8,0.5-1.4c0-0.5-0.2-1-0.5-1.4c-0.4-0.4-0.8-0.6-1.4-0.6
			c-0.6,0-1,0.2-1.4,0.6c-0.4,0.4-0.5,0.8-0.5,1.4c0,0.5,0.2,1,0.5,1.4C378.8,9.8,379.2,10,379.8,10z M375.9,14.4l1.8-1.6l-9.2-10.6
			l-8.8,10.6l1.8,1.6l7-8.6L375.9,14.4z M361.6,27.7h24.9V17.5h-24.9V27.7z M364.1,19.9H384v5.5h-19.8V19.9z M384,15.3h2.5V0.9H384
			V15.3z M432.6,27.2h2.5V1.6h-2.5V27.2z M425.9,27.2h2.5V1.6h-2.5V27.2z M420.6,7.1V4.7H408v2.4h6l-6.7,14.4l2.1,1.4l4.9-11l4.9,11
			l2.1-1.4l-6.7-14.4H420.6z M422.7,11.3c-0.6,0-1,0.2-1.4,0.5c-0.3,0.4-0.5,0.8-0.5,1.4s0.2,1,0.5,1.4c0.3,0.4,0.8,0.5,1.4,0.5
			c0.6,0,1-0.2,1.4-0.5c0.3-0.4,0.5-0.8,0.5-1.4s-0.2-1-0.5-1.4C423.7,11.5,423.2,11.3,422.7,11.3z M441.5,17.5v2.4h28.3v-2.4H441.5
			z M445.2,14.8L455.6,8l10.5,6.8l1.6-1.8l-11.8-7.6h11V3h-22.5v2.4h11l-11.8,7.6L445.2,14.8z M455.6,21.8c-0.6,0-1.1,0.2-1.5,0.6
			c-0.4,0.4-0.6,0.9-0.6,1.5c0,0.6,0.2,1.1,0.6,1.5c0.4,0.4,0.9,0.6,1.5,0.6c0.6,0,1.1-0.2,1.5-0.6c0.4-0.4,0.6-0.9,0.6-1.5
			c0-0.6-0.2-1.1-0.6-1.5C456.7,22,456.2,21.8,455.6,21.8z"/>
	</g>
</g>
</svg>
